<?xml version="1.0" encoding="utf-8"?>
<!-- Generator: Adobe Illustrator 27.5.0, SVG Export Plug-In . SVG Version: 6.00 Build 0)  -->
<svg version="1.1" id="Layer_1" xmlns="http://www.w3.org/2000/svg" xmlns:xlink="http://www.w3.org/1999/xlink" x="0px" y="0px"
	 viewBox="0 0 383.508 425.639" style="enable-background:new 0 0 383.508 425.639;" xml:space="preserve">
<g>
	<g>
		
			<ellipse transform="matrix(0.7071 -0.7071 0.7071 0.7071 -103.1779 201.5918)" style="fill:#A6E4F4;" cx="191.754" cy="225.343" rx="191.754" ry="191.754"/>
		<g>
			<path style="fill:#FFFFFF;" d="M104.615,165.099c-2.208-1.753-5.703-3.777-8.59-3.377c-0.843-2.472-2.649-4.599-4.961-6.059
				c-2.805-1.771-6.134-2.325-9.346-1.803c-1.097-6.113-10.128-9.276-15.913-8.727c-5.257,0.498-10.708,3.582-13.846,7.837
				c-0.38,0.515-0.796,1.127-1.203,1.802c-2.898-1.918-7.792-1.904-10.816-1.501c-3.271,0.435-5.999,1.643-8.224,4.16
				c-1.406,1.591-2.592,3.53-3.269,5.602c-1.824-0.335-3.754-0.16-5.405,0.54c-3.243,1.375-5.188,4.989-3.863,8.408
				c2.091,5.4,10.265,7.349,15.825,5.433c1.423,2.328,3.755,4.365,5.553,5.643c4.487,3.186,9.777,5.295,15.251,5.922
				c7.271,0.833,15.484-0.85,20.446-6.276c1.491,0.95,3.324,1.613,4.395,2.019c3.768,1.427,7.689,2.487,11.738,2.393
				c5.939-0.139,11.01-2.438,13.804-7.881C108.573,174.589,109.055,168.626,104.615,165.099z"/>
			<path style="fill:#BFE7FB;" d="M107.652,169.747c-0.082,0.893-0.232,1.781-0.466,2.654c-1.517,5.66-6.616,9.583-12.141,10.998
				c-2.756,0.706-5.553,0.671-8.354,0.304c-1.963-0.257-4.597-0.758-5.345-2.889c-0.034-0.097,0.039-0.204,0.131-0.232
				c0.982-0.287,1.92-0.724,2.79-1.26c0.689-0.424,1.376-0.929,1.89-1.566c-2.51,0.857-5,1.787-7.699,1.729
				c-2.877-0.061-5.54-1.24-8.295-1.933c0.708,1.206,1.751,2.244,2.966,2.924c0.177,0.099,0.078,0.332-0.095,0.351
				c-2.233,0.241-4.382,0.902-6.54,1.495c-2.099,0.577-4.184,0.975-6.36,1.105c-6.69,0.401-13.391-1.334-19.276-4.493
				c-2.376-1.275-4.66-2.871-6.38-4.972c-1.471-1.798-2.414-3.92-2.66-6.208c-0.291,0.938-0.521,1.898-0.626,2.872
				c-0.138,1.271-0.101,2.731,0.76,3.76c0.084,0.1,0.067,0.283-0.083,0.314c-1.701,0.358-3.469,0.141-5.08-0.491
				c-2.595-1.018-5.149-3.164-5.887-5.949c-0.326-1.229-0.205-2.536,0.445-3.641c0.016-0.028,0.036-0.052,0.053-0.079
				c-2.206,1.727-3.306,4.648-2.224,7.44c2.091,5.4,10.265,7.349,15.825,5.433c1.423,2.328,3.755,4.365,5.553,5.643
				c4.487,3.186,9.777,5.295,15.251,5.922c7.271,0.833,15.484-0.85,20.446-6.276c1.491,0.95,3.324,1.613,4.395,2.019
				c3.768,1.427,7.689,2.487,11.738,2.393c5.939-0.139,11.01-2.438,13.804-7.881C107.704,176.283,108.448,172.8,107.652,169.747z"/>
		</g>
		<g>
			<path style="fill:#FFFFFF;" d="M272.591,166.259c-1.899-1.273-4.858-2.679-7.164-2.167c-0.843-1.943-2.443-3.543-4.407-4.572
				c-2.383-1.247-5.11-1.477-7.672-0.844c-1.288-4.869-8.794-6.833-13.434-6.011c-4.216,0.747-8.42,3.597-10.678,7.242
				c-0.273,0.441-0.57,0.963-0.854,1.535c-2.468-1.36-6.423-1.028-8.84-0.504c-2.616,0.567-4.741,1.721-6.374,3.902
				c-1.032,1.378-1.864,3.023-2.275,4.742c-1.496-0.151-3.045,0.117-4.333,0.791c-2.531,1.324-3.866,4.373-2.571,7.049
				c2.045,4.227,8.779,5.267,13.147,3.354c1.303,1.788,3.321,3.282,4.858,4.197c3.835,2.281,8.249,3.638,12.715,3.786
				c5.931,0.197,12.459-1.702,16.114-6.413c1.268,0.67,2.792,1.085,3.685,1.343c3.139,0.906,6.378,1.506,9.644,1.164
				c4.791-0.502,8.739-2.693,10.64-7.275C276.413,173.67,276.411,168.819,272.591,166.259z"/>
			<path style="fill:#BFE7FB;" d="M275.351,169.817c-0.008,0.728-0.071,1.455-0.203,2.176c-0.855,4.674-4.719,8.179-9.091,9.685
				c-2.182,0.751-4.444,0.906-6.732,0.794c-1.604-0.079-3.766-0.311-4.51-1.985c-0.035-0.078,0.02-0.171,0.095-0.197
				c0.359-0.124,0.724-0.222,1.039-0.432c0.806-0.538,1.903-1.202,2.554-2.157c-1.973,0.858-3.924,1.772-6.109,1.903
				c-2.33,0.139-4.559-0.639-6.831-1.019c0.651,0.929,1.562,1.699,2.589,2.169c0.15,0.068,0.085,0.263-0.054,0.29
				c-1.789,0.341-3.483,1.016-5.188,1.637c-1.659,0.604-3.318,1.062-5.068,1.31c-5.381,0.763-10.911-0.2-15.875-2.367
				c-2.005-0.875-3.955-2.015-5.482-3.601c-1.307-1.357-2.208-3.01-2.557-4.843c-0.173,0.777-0.296,1.568-0.318,2.363
				c-0.028,1.036,0.098,2.214,0.861,2.989c0.075,0.076,0.073,0.224-0.046,0.26c-1.352,0.401-2.795,0.342-4.138-0.064
				c-2.164-0.653-4.369-2.219-5.149-4.422c-0.344-0.972-0.332-2.037,0.121-2.972c0.011-0.023,0.026-0.044,0.038-0.067
				c-1.669,1.54-2.367,3.973-1.31,6.159c2.045,4.227,8.779,5.267,13.147,3.354c1.303,1.788,3.321,3.282,4.858,4.197
				c3.835,2.281,8.249,3.638,12.715,3.786c5.931,0.197,12.459-1.702,16.114-6.413c1.268,0.67,2.792,1.085,3.685,1.343
				c3.139,0.906,6.378,1.506,9.644,1.164c4.791-0.502,8.739-2.693,10.64-7.275C275.822,175.096,276.195,172.232,275.351,169.817z"/>
		</g>
		<g>
			<path style="fill:#FFFFFF;" d="M99.537,317.45c-1.899-1.273-4.857-2.679-7.164-2.167c-0.843-1.943-2.443-3.543-4.407-4.572
				c-2.383-1.247-5.11-1.477-7.673-0.844c-1.287-4.869-8.794-6.833-13.434-6.011c-4.216,0.747-8.42,3.597-10.677,7.242
				c-0.273,0.441-0.569,0.963-0.854,1.535c-2.468-1.36-6.423-1.028-8.84-0.504c-2.616,0.567-4.741,1.721-6.374,3.902
				c-1.032,1.378-1.864,3.023-2.275,4.742c-1.496-0.151-3.045,0.117-4.333,0.791c-2.531,1.324-3.866,4.373-2.571,7.049
				c2.045,4.227,8.779,5.267,13.147,3.354c1.303,1.788,3.321,3.282,4.858,4.197c3.835,2.281,8.249,3.638,12.715,3.786
				c5.931,0.197,12.459-1.702,16.114-6.413c1.268,0.67,2.792,1.085,3.685,1.343c3.139,0.906,6.378,1.506,9.644,1.164
				c4.791-0.502,8.739-2.693,10.64-7.275C103.359,324.861,103.357,320.009,99.537,317.45z"/>
			<path style="fill:#BFE7FB;" d="M102.297,321.007c-0.008,0.728-0.071,1.455-0.202,2.176c-0.855,4.674-4.719,8.179-9.091,9.685
				c-2.182,0.751-4.444,0.906-6.732,0.794c-1.604-0.079-3.766-0.311-4.51-1.985c-0.035-0.078,0.02-0.171,0.095-0.197
				c0.359-0.124,0.724-0.222,1.039-0.433c0.806-0.538,1.904-1.202,2.554-2.157c-1.972,0.858-3.924,1.772-6.109,1.903
				c-2.33,0.139-4.559-0.639-6.831-1.019c0.651,0.929,1.562,1.699,2.589,2.169c0.15,0.068,0.085,0.263-0.054,0.29
				c-1.789,0.341-3.483,1.016-5.188,1.637c-1.659,0.604-3.318,1.062-5.068,1.31c-5.381,0.763-10.911-0.2-15.875-2.367
				c-2.005-0.875-3.955-2.015-5.482-3.601c-1.307-1.357-2.208-3.01-2.557-4.843c-0.173,0.777-0.296,1.568-0.318,2.363
				c-0.028,1.036,0.098,2.214,0.861,2.989c0.075,0.076,0.073,0.225-0.046,0.26c-1.352,0.401-2.795,0.342-4.138-0.064
				c-2.164-0.653-4.369-2.219-5.149-4.422c-0.344-0.972-0.332-2.036,0.121-2.972c0.011-0.023,0.026-0.044,0.038-0.067
				c-1.669,1.54-2.367,3.974-1.31,6.159c2.045,4.227,8.779,5.267,13.147,3.354c1.303,1.788,3.321,3.282,4.858,4.197
				c3.835,2.281,8.249,3.638,12.715,3.786c5.931,0.197,12.459-1.702,16.114-6.413c1.268,0.67,2.792,1.085,3.685,1.343
				c3.139,0.906,6.378,1.506,9.644,1.164c4.791-0.502,8.739-2.693,10.64-7.275C102.768,326.286,103.141,323.422,102.297,321.007z"/>
		</g>
		<g>
			<path style="fill:#FFFFFF;" d="M332.022,339.069c-1.899-1.273-4.858-2.679-7.164-2.167c-0.843-1.943-2.443-3.543-4.407-4.572
				c-2.383-1.247-5.11-1.477-7.672-0.844c-1.288-4.869-8.794-6.833-13.434-6.011c-4.216,0.747-8.42,3.597-10.678,7.242
				c-0.273,0.441-0.569,0.963-0.854,1.535c-2.468-1.36-6.423-1.028-8.84-0.504c-2.615,0.567-4.741,1.721-6.374,3.902
				c-1.032,1.378-1.864,3.023-2.275,4.742c-1.496-0.151-3.045,0.117-4.333,0.791c-2.531,1.324-3.866,4.373-2.571,7.049
				c2.045,4.227,8.779,5.267,13.147,3.354c1.303,1.788,3.321,3.282,4.858,4.197c3.835,2.281,8.249,3.638,12.715,3.786
				c5.931,0.197,12.459-1.702,16.114-6.414c1.268,0.67,2.792,1.086,3.685,1.343c3.139,0.906,6.378,1.506,9.644,1.164
				c4.792-0.502,8.74-2.693,10.64-7.275C335.844,346.48,335.842,341.629,332.022,339.069z"/>
			<path style="fill:#BFE7FB;" d="M334.782,342.627c-0.008,0.728-0.07,1.455-0.203,2.176c-0.855,4.674-4.719,8.179-9.091,9.685
				c-2.181,0.751-4.444,0.906-6.732,0.794c-1.604-0.079-3.766-0.311-4.51-1.985c-0.035-0.078,0.02-0.171,0.095-0.197
				c0.359-0.124,0.724-0.222,1.039-0.433c0.806-0.538,1.903-1.202,2.554-2.157c-1.973,0.858-3.924,1.772-6.109,1.903
				c-2.33,0.139-4.559-0.639-6.831-1.019c0.651,0.929,1.562,1.699,2.589,2.169c0.15,0.068,0.085,0.263-0.054,0.29
				c-1.789,0.341-3.483,1.016-5.188,1.637c-1.659,0.604-3.318,1.062-5.068,1.31c-5.381,0.763-10.911-0.2-15.875-2.367
				c-2.005-0.875-3.955-2.015-5.483-3.601c-1.307-1.357-2.208-3.01-2.557-4.843c-0.173,0.777-0.296,1.568-0.318,2.363
				c-0.028,1.036,0.098,2.214,0.861,2.989c0.075,0.076,0.073,0.224-0.046,0.26c-1.352,0.401-2.795,0.342-4.138-0.064
				c-2.164-0.653-4.369-2.219-5.149-4.422c-0.344-0.972-0.332-2.036,0.121-2.972c0.011-0.023,0.026-0.044,0.038-0.067
				c-1.669,1.54-2.367,3.973-1.31,6.159c2.045,4.227,8.779,5.267,13.147,3.354c1.303,1.788,3.321,3.282,4.858,4.197
				c3.835,2.281,8.249,3.638,12.715,3.786c5.931,0.197,12.459-1.702,16.114-6.414c1.268,0.67,2.792,1.086,3.685,1.343
				c3.139,0.906,6.378,1.506,9.644,1.164c4.792-0.502,8.74-2.693,10.64-7.275C335.253,347.906,335.626,345.042,334.782,342.627z"/>
		</g>
		<g>
			<path style="fill:#FFFFFF;" d="M258.51,86.345c-1.899-1.272-4.858-2.679-7.164-2.166c-0.843-1.943-2.443-3.543-4.408-4.572
				c-2.383-1.247-5.11-1.477-7.673-0.844c-1.288-4.869-8.794-6.833-13.434-6.011c-4.216,0.747-8.42,3.597-10.678,7.243
				c-0.273,0.441-0.569,0.963-0.854,1.535c-2.468-1.36-6.423-1.028-8.84-0.504c-2.615,0.567-4.741,1.721-6.374,3.902
				c-1.032,1.378-1.864,3.023-2.275,4.743c-1.496-0.152-3.045,0.117-4.333,0.791c-2.531,1.324-3.866,4.373-2.571,7.049
				c2.045,4.227,8.779,5.267,13.147,3.354c1.303,1.788,3.321,3.282,4.859,4.197c3.835,2.281,8.249,3.638,12.715,3.786
				c5.932,0.197,12.459-1.702,16.115-6.414c1.268,0.67,2.792,1.086,3.685,1.343c3.139,0.906,6.378,1.506,9.644,1.164
				c4.792-0.502,8.74-2.692,10.64-7.275C262.332,93.756,262.33,88.905,258.51,86.345z"/>
			<path style="fill:#BFE7FB;" d="M261.27,89.903c-0.008,0.728-0.07,1.455-0.202,2.176c-0.855,4.674-4.719,8.179-9.092,9.685
				c-2.182,0.751-4.445,0.906-6.732,0.793c-1.604-0.079-3.765-0.311-4.51-1.985c-0.035-0.078,0.02-0.171,0.095-0.197
				c0.358-0.124,0.724-0.222,1.039-0.433c0.806-0.538,1.903-1.202,2.554-2.157c-1.973,0.858-3.924,1.772-6.109,1.902
				c-2.33,0.139-4.559-0.639-6.831-1.018c0.651,0.928,1.562,1.699,2.589,2.169c0.15,0.068,0.085,0.263-0.054,0.29
				c-1.789,0.341-3.483,1.016-5.188,1.637c-1.659,0.604-3.318,1.062-5.068,1.31c-5.381,0.763-10.911-0.2-15.875-2.367
				c-2.004-0.875-3.955-2.015-5.483-3.601c-1.307-1.357-2.208-3.01-2.557-4.843c-0.173,0.777-0.296,1.568-0.318,2.363
				c-0.028,1.036,0.098,2.214,0.861,2.989c0.075,0.076,0.073,0.224-0.046,0.26c-1.352,0.401-2.794,0.341-4.138-0.064
				c-2.164-0.652-4.369-2.219-5.149-4.422c-0.344-0.972-0.332-2.036,0.121-2.972c0.011-0.023,0.026-0.044,0.038-0.067
				c-1.669,1.54-2.367,3.973-1.31,6.159c2.045,4.227,8.779,5.267,13.147,3.354c1.303,1.788,3.321,3.282,4.859,4.197
				c3.835,2.281,8.249,3.638,12.715,3.786c5.932,0.197,12.459-1.702,16.115-6.414c1.268,0.67,2.792,1.086,3.685,1.343
				c3.139,0.906,6.378,1.506,9.644,1.164c4.792-0.502,8.74-2.692,10.64-7.275C261.74,95.182,262.113,92.318,261.27,89.903z"/>
		</g>
		<g>
			<path style="fill:#FFFFFF;" d="M365.348,146.498c-1.375-0.921-3.516-1.939-5.185-1.568c-0.611-1.406-1.768-2.565-3.19-3.309
				c-1.725-0.903-3.699-1.069-5.553-0.611c-0.932-3.524-6.365-4.945-9.723-4.35c-3.051,0.541-6.094,2.604-7.728,5.242
				c-0.198,0.319-0.412,0.697-0.618,1.111c-1.786-0.984-4.649-0.744-6.398-0.365c-1.893,0.41-3.431,1.246-4.613,2.824
				c-0.747,0.998-1.349,2.188-1.647,3.433c-1.083-0.11-2.204,0.085-3.136,0.572c-1.832,0.958-2.798,3.165-1.861,5.102
				c1.48,3.059,6.354,3.812,9.516,2.427c0.943,1.294,2.404,2.376,3.517,3.037c2.776,1.651,5.971,2.633,9.203,2.741
				c4.293,0.142,9.018-1.232,11.663-4.642c0.917,0.485,2.021,0.786,2.667,0.972c2.272,0.656,4.616,1.09,6.98,0.843
				c3.468-0.363,6.326-1.949,7.701-5.265C368.114,151.862,368.113,148.35,365.348,146.498z"/>
			<path style="fill:#BFE7FB;" d="M367.346,149.073c-0.005,0.527-0.051,1.053-0.146,1.575c-0.619,3.383-3.415,5.92-6.58,7.01
				c-1.579,0.544-3.217,0.656-4.872,0.574c-1.161-0.057-2.725-0.225-3.264-1.437c-0.025-0.056,0.015-0.124,0.069-0.143
				c0.259-0.09,0.524-0.161,0.752-0.313c0.583-0.389,1.378-0.87,1.848-1.561c-1.428,0.621-2.84,1.283-4.422,1.377
				c-1.686,0.101-3.3-0.462-4.944-0.737c0.471,0.672,1.131,1.23,1.874,1.57c0.108,0.049,0.061,0.191-0.039,0.21
				c-1.295,0.247-2.521,0.735-3.755,1.185c-1.201,0.437-2.401,0.769-3.668,0.948c-3.895,0.552-7.897-0.145-11.49-1.713
				c-1.451-0.633-2.862-1.458-3.968-2.606c-0.946-0.982-1.598-2.178-1.851-3.505c-0.125,0.562-0.214,1.135-0.23,1.71
				c-0.02,0.75,0.071,1.603,0.623,2.163c0.054,0.055,0.053,0.162-0.034,0.188c-0.978,0.29-2.023,0.247-2.995-0.046
				c-1.566-0.472-3.162-1.606-3.726-3.201c-0.249-0.703-0.24-1.474,0.087-2.151c0.008-0.017,0.019-0.032,0.027-0.049
				c-1.208,1.115-1.713,2.876-0.948,4.458c1.48,3.059,6.354,3.812,9.516,2.427c0.943,1.294,2.404,2.376,3.517,3.037
				c2.776,1.651,5.971,2.633,9.203,2.741c4.293,0.142,9.018-1.232,11.663-4.642c0.917,0.485,2.021,0.786,2.667,0.972
				c2.272,0.656,4.616,1.09,6.98,0.843c3.468-0.363,6.326-1.949,7.701-5.265C367.686,152.894,367.957,150.821,367.346,149.073z"/>
		</g>
		<g>
			<path style="fill:#FFFFFF;" d="M166.043,213.126c-1.375-0.921-3.516-1.939-5.185-1.568c-0.611-1.406-1.768-2.565-3.19-3.309
				c-1.725-0.903-3.699-1.069-5.553-0.611c-0.932-3.524-6.365-4.946-9.723-4.35c-3.051,0.541-6.094,2.604-7.728,5.242
				c-0.198,0.319-0.412,0.697-0.618,1.111c-1.786-0.984-4.649-0.744-6.398-0.365c-1.893,0.41-3.431,1.246-4.613,2.824
				c-0.747,0.998-1.349,2.188-1.647,3.433c-1.083-0.11-2.203,0.085-3.136,0.572c-1.832,0.958-2.798,3.165-1.861,5.102
				c1.48,3.059,6.354,3.812,9.516,2.427c0.943,1.294,2.404,2.376,3.516,3.038c2.776,1.651,5.971,2.633,9.203,2.74
				c4.293,0.142,9.018-1.232,11.663-4.642c0.917,0.485,2.021,0.786,2.667,0.972c2.272,0.656,4.616,1.09,6.98,0.843
				c3.468-0.363,6.326-1.949,7.701-5.265C168.809,218.491,168.808,214.979,166.043,213.126z"/>
			<path style="fill:#BFE7FB;" d="M168.04,215.701c-0.005,0.527-0.051,1.053-0.146,1.575c-0.619,3.383-3.415,5.92-6.58,7.01
				c-1.579,0.544-3.217,0.656-4.872,0.574c-1.161-0.057-2.725-0.225-3.264-1.437c-0.025-0.056,0.015-0.124,0.069-0.143
				c0.259-0.09,0.524-0.161,0.752-0.313c0.583-0.389,1.378-0.87,1.849-1.561c-1.428,0.621-2.84,1.283-4.422,1.377
				c-1.686,0.101-3.3-0.462-4.944-0.737c0.471,0.672,1.131,1.23,1.874,1.57c0.108,0.049,0.061,0.191-0.039,0.21
				c-1.295,0.247-2.521,0.735-3.755,1.185c-1.2,0.437-2.401,0.769-3.668,0.948c-3.895,0.552-7.897-0.145-11.49-1.713
				c-1.451-0.633-2.862-1.458-3.968-2.606c-0.946-0.982-1.598-2.178-1.851-3.505c-0.125,0.563-0.214,1.135-0.23,1.71
				c-0.02,0.75,0.071,1.602,0.623,2.163c0.054,0.055,0.053,0.162-0.034,0.188c-0.978,0.29-2.023,0.247-2.995-0.046
				c-1.566-0.472-3.162-1.606-3.726-3.2c-0.249-0.704-0.24-1.474,0.088-2.151c0.008-0.017,0.019-0.032,0.027-0.048
				c-1.208,1.115-1.713,2.876-0.948,4.458c1.48,3.059,6.354,3.812,9.516,2.427c0.943,1.294,2.404,2.376,3.516,3.038
				c2.776,1.651,5.971,2.633,9.203,2.74c4.293,0.142,9.018-1.232,11.663-4.642c0.917,0.485,2.021,0.786,2.667,0.972
				c2.272,0.656,4.616,1.09,6.98,0.843c3.468-0.363,6.326-1.949,7.701-5.265C168.381,219.522,168.651,217.449,168.04,215.701z"/>
		</g>
		<g>
			<path style="fill:#FFFFFF;" d="M191.044,378.282c-1.375-0.921-3.516-1.939-5.185-1.568c-0.611-1.406-1.768-2.564-3.19-3.309
				c-1.725-0.903-3.699-1.069-5.553-0.611c-0.932-3.524-6.365-4.945-9.723-4.35c-3.051,0.541-6.094,2.604-7.728,5.242
				c-0.198,0.319-0.412,0.697-0.618,1.111c-1.786-0.984-4.649-0.744-6.398-0.365c-1.893,0.41-3.432,1.246-4.613,2.824
				c-0.747,0.998-1.349,2.188-1.647,3.433c-1.083-0.11-2.204,0.085-3.136,0.572c-1.832,0.958-2.798,3.165-1.861,5.102
				c1.48,3.059,6.354,3.812,9.516,2.427c0.943,1.294,2.404,2.376,3.517,3.037c2.776,1.651,5.971,2.633,9.203,2.741
				c4.293,0.142,9.018-1.232,11.663-4.642c0.917,0.485,2.021,0.786,2.667,0.972c2.272,0.656,4.616,1.09,6.98,0.843
				c3.468-0.363,6.326-1.949,7.701-5.265C193.811,383.646,193.809,380.135,191.044,378.282z"/>
			<path style="fill:#BFE7FB;" d="M193.042,380.857c-0.006,0.527-0.051,1.053-0.147,1.575c-0.619,3.383-3.415,5.92-6.58,7.01
				c-1.579,0.544-3.217,0.656-4.872,0.574c-1.161-0.057-2.725-0.225-3.264-1.437c-0.025-0.056,0.015-0.124,0.069-0.143
				c0.259-0.09,0.524-0.161,0.752-0.313c0.583-0.389,1.378-0.87,1.848-1.561c-1.428,0.621-2.84,1.283-4.422,1.377
				c-1.686,0.101-3.3-0.462-4.944-0.737c0.471,0.672,1.131,1.23,1.874,1.57c0.108,0.049,0.061,0.191-0.039,0.21
				c-1.295,0.247-2.521,0.735-3.755,1.185c-1.201,0.437-2.401,0.769-3.668,0.948c-3.895,0.552-7.897-0.145-11.49-1.713
				c-1.451-0.633-2.862-1.458-3.968-2.606c-0.946-0.982-1.598-2.178-1.851-3.505c-0.125,0.563-0.214,1.135-0.23,1.71
				c-0.02,0.75,0.071,1.602,0.623,2.163c0.054,0.055,0.053,0.162-0.034,0.188c-0.978,0.29-2.023,0.247-2.995-0.046
				c-1.566-0.472-3.162-1.606-3.726-3.201c-0.249-0.703-0.24-1.474,0.087-2.151c0.008-0.017,0.019-0.032,0.027-0.048
				c-1.208,1.115-1.713,2.876-0.948,4.458c1.48,3.059,6.354,3.812,9.516,2.427c0.943,1.294,2.404,2.376,3.517,3.037
				c2.776,1.651,5.971,2.633,9.203,2.741c4.293,0.142,9.018-1.232,11.663-4.642c0.917,0.485,2.021,0.786,2.667,0.972
				c2.272,0.656,4.616,1.09,6.98,0.843c3.468-0.363,6.326-1.949,7.701-5.265C193.383,384.678,193.653,382.605,193.042,380.857z"/>
		</g>
		<g>
			<path style="fill:#FFFFFF;" d="M128.177,87.552c-1.375-0.921-3.516-1.939-5.185-1.568c-0.61-1.406-1.768-2.565-3.19-3.309
				c-1.725-0.903-3.699-1.069-5.553-0.611c-0.932-3.524-6.365-4.946-9.723-4.35c-3.051,0.541-6.094,2.604-7.728,5.242
				c-0.198,0.319-0.412,0.697-0.618,1.111c-1.786-0.984-4.649-0.744-6.398-0.365c-1.893,0.41-3.431,1.246-4.613,2.824
				c-0.747,0.998-1.349,2.188-1.647,3.433c-1.083-0.11-2.204,0.085-3.136,0.572c-1.832,0.958-2.798,3.165-1.861,5.102
				c1.48,3.059,6.354,3.812,9.515,2.427c0.943,1.294,2.404,2.376,3.516,3.037c2.776,1.651,5.971,2.633,9.203,2.741
				c4.293,0.142,9.018-1.232,11.663-4.642c0.917,0.485,2.021,0.786,2.667,0.972c2.272,0.656,4.616,1.09,6.98,0.843
				c3.468-0.363,6.325-1.949,7.701-5.265C130.943,92.916,130.942,89.405,128.177,87.552z"/>
			<path style="fill:#BFE7FB;" d="M130.174,90.127c-0.005,0.527-0.051,1.053-0.146,1.575c-0.619,3.383-3.415,5.92-6.58,7.01
				c-1.579,0.544-3.217,0.656-4.872,0.574c-1.161-0.057-2.725-0.225-3.264-1.437c-0.025-0.056,0.015-0.124,0.069-0.143
				c0.259-0.09,0.524-0.161,0.752-0.313c0.583-0.389,1.378-0.87,1.848-1.561c-1.428,0.621-2.84,1.283-4.422,1.377
				c-1.686,0.101-3.3-0.462-4.944-0.737c0.471,0.672,1.131,1.23,1.874,1.57c0.108,0.05,0.061,0.191-0.039,0.21
				c-1.295,0.247-2.521,0.735-3.755,1.185c-1.2,0.437-2.401,0.769-3.668,0.948c-3.895,0.552-7.897-0.145-11.49-1.713
				c-1.451-0.633-2.862-1.458-3.968-2.606c-0.946-0.982-1.598-2.178-1.851-3.505c-0.125,0.563-0.214,1.135-0.23,1.71
				c-0.02,0.75,0.071,1.603,0.623,2.163c0.054,0.055,0.053,0.162-0.034,0.188c-0.978,0.29-2.023,0.247-2.995-0.046
				c-1.566-0.472-3.162-1.606-3.726-3.2c-0.249-0.703-0.24-1.474,0.088-2.151c0.008-0.017,0.019-0.032,0.027-0.048
				c-1.208,1.115-1.713,2.876-0.948,4.458c1.48,3.059,6.354,3.812,9.515,2.427c0.943,1.294,2.404,2.376,3.516,3.037
				c2.776,1.651,5.971,2.633,9.203,2.741c4.293,0.142,9.018-1.232,11.663-4.642c0.917,0.485,2.021,0.786,2.667,0.972
				c2.272,0.656,4.616,1.09,6.98,0.843c3.468-0.363,6.325-1.949,7.701-5.265C130.515,93.948,130.785,91.875,130.174,90.127z"/>
		</g>
		<g>
			<path style="fill:#FFFFFF;" d="M332.914,235.74c-1.375-0.921-3.516-1.939-5.185-1.568c-0.61-1.406-1.768-2.565-3.19-3.309
				c-1.725-0.903-3.699-1.069-5.553-0.611c-0.932-3.524-6.365-4.945-9.723-4.35c-3.051,0.541-6.094,2.604-7.728,5.242
				c-0.198,0.319-0.412,0.697-0.618,1.111c-1.786-0.984-4.649-0.744-6.398-0.365c-1.893,0.41-3.431,1.246-4.613,2.824
				c-0.747,0.998-1.349,2.188-1.647,3.433c-1.083-0.11-2.204,0.085-3.136,0.572c-1.832,0.958-2.798,3.165-1.861,5.102
				c1.48,3.059,6.354,3.812,9.516,2.427c0.943,1.294,2.404,2.376,3.517,3.037c2.776,1.651,5.971,2.633,9.203,2.741
				c4.293,0.142,9.018-1.232,11.663-4.642c0.917,0.485,2.021,0.786,2.667,0.972c2.272,0.656,4.616,1.09,6.98,0.843
				c3.468-0.363,6.325-1.949,7.701-5.265C335.681,241.105,335.679,237.593,332.914,235.74z"/>
			<path style="fill:#BFE7FB;" d="M334.912,238.315c-0.005,0.527-0.051,1.053-0.146,1.575c-0.619,3.383-3.415,5.92-6.58,7.01
				c-1.579,0.544-3.217,0.656-4.872,0.574c-1.161-0.057-2.725-0.225-3.264-1.436c-0.025-0.056,0.015-0.124,0.069-0.143
				c0.259-0.09,0.524-0.161,0.752-0.313c0.583-0.389,1.378-0.87,1.848-1.561c-1.428,0.621-2.84,1.283-4.422,1.377
				c-1.686,0.101-3.3-0.462-4.944-0.737c0.471,0.672,1.131,1.23,1.874,1.57c0.108,0.05,0.061,0.191-0.039,0.21
				c-1.295,0.247-2.521,0.735-3.755,1.185c-1.2,0.437-2.401,0.769-3.668,0.948c-3.895,0.552-7.897-0.145-11.49-1.713
				c-1.451-0.633-2.862-1.458-3.968-2.606c-0.946-0.982-1.598-2.178-1.851-3.505c-0.125,0.563-0.214,1.135-0.23,1.71
				c-0.02,0.75,0.071,1.602,0.623,2.163c0.054,0.055,0.053,0.162-0.034,0.188c-0.978,0.29-2.023,0.247-2.995-0.046
				c-1.566-0.472-3.162-1.606-3.727-3.201c-0.249-0.703-0.24-1.474,0.088-2.151c0.008-0.017,0.019-0.032,0.027-0.048
				c-1.208,1.115-1.713,2.876-0.948,4.458c1.48,3.059,6.354,3.812,9.516,2.427c0.943,1.294,2.404,2.376,3.517,3.037
				c2.776,1.651,5.971,2.633,9.203,2.741c4.293,0.142,9.018-1.232,11.663-4.642c0.917,0.485,2.021,0.786,2.667,0.972
				c2.272,0.656,4.616,1.09,6.98,0.843c3.468-0.363,6.325-1.949,7.701-5.265C335.253,242.137,335.523,240.064,334.912,238.315z"/>
		</g>
	</g>
	<g>
		<path style="fill:#F1BB95;" d="M267.693,111.933c0,0-0.348-7.539,10.091-13.223l-0.115,12.642L267.693,111.933z"/>
		<g>
			<g>
				<path style="fill:#F1D6BC;" d="M217.574,336.289c-1.557,0.269-3.111,0.545-4.673,0.8c-4.906,0.8-9.943,0.732-14.876,1.332
					c-1.45,6.27-3.475,14.919-2.979,23.64c0.83,14.497,2.25,34.462,2.25,34.462s-1.151,3.193,1.061,3.733
					c2.209,0.537,2.691,1.812,2.859,1.159c0.762-3.014,5.708-4.261,5.708-4.261c2.121-4.464,9.844-53.865,10.425-59.437
					C217.404,337.21,217.484,336.741,217.574,336.289z"/>
				<path style="fill:#F1D6BC;" d="M217.574,336.289c-1.557,0.269-3.111,0.545-4.673,0.8c-4.906,0.8-9.943,0.732-14.876,1.332
					c-1.45,6.27-3.475,14.919-2.979,23.64c0.83,14.497,2.25,34.462,2.25,34.462s-1.151,3.193,1.061,3.733
					c2.209,0.537,2.691,1.812,2.859,1.159c0.762-3.014,5.708-4.261,5.708-4.261c2.121-4.464,9.844-53.865,10.425-59.437
					C217.404,337.21,217.484,336.741,217.574,336.289z"/>
				<path style="fill:#64BB46;" d="M208.429,391.436c-0.622,2.908-1.148,4.96-1.504,5.717c0,0-4.947,1.247-5.708,4.261
					c-0.167,0.652-0.65-0.622-2.859-1.159c-2.212-0.54-1.061-3.733-1.061-3.733s-0.164-2.253-0.406-5.78
					C201.183,391.59,205.68,391.576,208.429,391.436z"/>
				<g>
					<path style="fill:#CF262C;" d="M211.389,414.901c-12.047-1.631-17.219-5.404-20.814-7.279c0.225-2.464,1.085-6.873,1.474-8.484
						c0.502-2.023,5.248-2.615,5.248-2.615s-1.151,3.193,1.061,3.733c2.209,0.537,2.691,1.812,2.859,1.159
						c0.762-3.014,5.708-4.261,5.708-4.261s1.924,0.469,4.451,4.979c1.044,1.861,5.755,2.713,10.452,3.807
						c4.352,1.009,12.609,0.307,12.615,7.923C231.332,415.054,224.368,416.657,211.389,414.901z"/>
					<path style="fill:#DEDDC7;" d="M221.827,405.939c-0.57-0.134-1.145-0.263-1.71-0.392c-2.442,0.954-4.604,2.546-5.413,4.229
						c-0.808,1.677-1.255,3.508-1.362,5.366c11.724,1.343,18.15-0.151,21.099-1.28C234.437,406.246,226.18,406.948,221.827,405.939z
						"/>
					<path style="fill:#9E9F91;" d="M211.389,414.901c12.979,1.757,19.943,0.154,23.053-1.039c0,0.617-0.046,1.277-0.162,2.009
						c-0.186,1.195-11.458,3.971-27.531,1.074c-16.076-2.897-15.977-6.435-16.199-7.89c-0.044-0.296-0.027-0.806,0.025-1.433
						C194.17,409.496,199.342,413.27,211.389,414.901z"/>
				</g>
			</g>
			<path style="fill:#244156;" d="M207.462,188.227c0,0-40.683,20.71-40.702,20.721c-3.171,1.614,5.366,23.119,6.243,25.572
				c4.053,11.329,8.874,22.363,13.33,33.536c2.231,5.596,7.684,23.632,9.762,29.283c1.792,4.873-2.735,20.192-3.083,24.772
				c-0.408,5.347,0.036,10.798-0.014,16.158c-0.058,6.339-0.206,12.675-0.392,19.014c-0.186,6.309-0.433,12.615-0.51,18.923
				c-0.036,2.954-0.08,5.884-0.269,8.833c-0.175,2.73-0.488,5.673,0.329,8.326c0.016,0.049,0.049,0.099,0.091,0.148
				c-0.65-0.186-1.088,0.619-0.414,1.239c2.554,2.349,6.753,2.823,9.953,3.05c1.42,0.102,0.896,0.973,2.302,0.754
				c1.072-0.167,4.212-1.37,4.925-2.239c0.573-0.702,0.721-1.622,0.792-2.497c0.107-1.28,0.186-2.56,0.334-3.834
				c0.526-4.533,1.362-9.027,2.19-13.513c1.973-10.686,13.563-65.452,15.437-72.152c3.892-13.916-1.477-31.804-4.179-45.504
				C220.896,245.153,208.451,187.725,207.462,188.227z"/>
			<path style="opacity:0.54;fill:#244156;" d="M223.587,258.814c-2.691-13.662-15.136-71.089-16.125-70.588
				c0,0-40.683,20.71-40.702,20.721c-3.171,1.614,5.366,23.119,6.243,25.572c1.535,4.286,3.179,8.534,4.873,12.76
				c0.608,0.962,1.214,1.921,1.822,2.88c7.405,11.669,14.84,23.418,20.379,36.117c5.634,12.922,8.967,26.674,8.989,40.812
				c0,0.554-6.69-12.346-8.452-19.047c-0.167,6.158-5.303,77.894-5.002,88.749c2.045,0.644,4.281,0.874,6.174,1.008
				c1.42,0.102,0.896,0.973,2.302,0.754c1.072-0.167,4.212-1.37,4.925-2.239c0.573-0.702,0.721-1.622,0.792-2.497
				c0.107-1.28,0.186-2.56,0.334-3.834c0.526-4.533,1.362-9.027,2.19-13.513c1.973-10.686,13.563-65.452,15.437-72.152
				C231.658,290.401,226.289,272.514,223.587,258.814z"/>
			<path style="opacity:0.54;fill:#244156;" d="M195.993,259.518c3.538-9.137,7.166-18.255,11.439-27.079
				c2.297-4.744,4.793-9.392,7.528-13.895c-3.598-16.136-7.002-30.57-7.498-30.318c0,0-40.683,20.71-40.702,20.721
				c-3.171,1.614,5.366,23.119,6.243,25.572c1.535,4.286,3.179,8.534,4.873,12.76c0.608,0.962,1.214,1.921,1.822,2.88
				c4.171,6.577,8.342,13.182,12.19,19.965C193.26,266.592,194.625,263.054,195.993,259.518z"/>
		</g>
		<path style="fill:#F1D6BC;" d="M223.708,156.617c0.644,6.61,7.449,13.193,12.239,14.856
			c10.208-11.532,39.551-52.221,39.551-52.221l-7.52-6.142C267.978,113.111,223.598,155.475,223.708,156.617z"/>
		<g>
			<g>
				<path style="fill:#F1D6BC;" d="M238.279,153.956l-12.943-20.009c-8.605-28.227-19.458-17.586-25.043-11.905
					c-4.13,4.199,11.099,29.288,15.404,35.372c3.288,4.656,9.838,12.321,15.295,14.621c1.209,0.51,5.615,2.11,6.169-3.486
					C238.339,162.572,240.51,159.668,238.279,153.956z"/>
			</g>
			<g>
				<path style="fill:#F1D6BC;" d="M214.351,150.799c5.443-2.946,10.063-7.104,14.497-11.42l-3.513-5.432
					c-8.605-28.227-19.458-17.586-25.043-11.905c-3.313,3.368,5.837,20.189,11.809,29.847
					C212.863,151.553,213.617,151.196,214.351,150.799z"/>
			</g>
			<g>
				<g>
					<path style="fill:#7ECDC7;" d="M221.455,143.202c-4.38,2.71-8.877,5.18-13.686,6.736c-2.795-4.07-6.662-11.398-11.436-20.31
						c-5.591-10.431-9.849-27.457,2.639-27.888c0,0,9.767,1.625,15.393,9.112c2.941,3.908,11.516,18.112,15.531,25.427
						C227.435,138.891,224.675,141.207,221.455,143.202z"/>
				</g>
			</g>
			<g>
				<g>
					<path style="opacity:0.42;fill:#3DB3B6;" d="M218.002,144.932c-0.137-11.34-0.507-23.07-3.62-34.059
						c-0.005-0.005-0.011-0.014-0.016-0.019c-5.626-7.487-15.393-9.112-15.393-9.112c-12.489,0.43-8.23,17.457-2.639,27.888
						c4.774,8.912,8.641,16.24,11.436,20.31c3.557-1.151,6.942-2.804,10.236-4.681C218.005,145.148,218.005,145.041,218.002,144.932
						z"/>
					<path style="fill:#7ECDC7;" d="M216.081,113.314c0.129,0.548,0.266,1.091,0.384,1.639c2.099,9.756,2.472,19.732,2.587,29.696
						c0.806-0.474,1.606-0.954,2.403-1.447c3.22-1.995,5.98-4.311,8.441-6.923C226.497,130.086,219.83,118.954,216.081,113.314z"/>
				</g>
			</g>
		</g>
		<g>
			<g>
				<path style="fill:#F1D6BC;" d="M148.664,341.973c-1.507-0.471-3.017-0.932-4.524-1.419c-4.73-1.521-9.184-3.878-13.848-5.593
					c-4.149,4.919-9.893,11.694-13.429,19.685c-5.868,13.281-13.703,31.7-13.703,31.7s-2.48,2.313-0.756,3.804
					c1.718,1.485,3.713,2.919,4.16,2.414c2.05-2.335,4.875-1.272,4.875-1.272c3.927-3.006,33.317-43.456,36.372-48.151
					C148.091,342.715,148.376,342.334,148.664,341.973z"/>
				<path style="fill:#F1D6BC;" d="M148.664,341.973c-1.507-0.471-3.017-0.932-4.524-1.419c-4.73-1.521-9.184-3.878-13.848-5.593
					c-4.149,4.919-9.893,11.694-13.429,19.685c-5.868,13.281-13.703,31.7-13.703,31.7s-2.48,2.313-0.756,3.804
					c1.718,1.485,3.713,2.919,4.16,2.414c2.05-2.335,4.875-1.272,4.875-1.272c3.927-3.006,33.317-43.456,36.372-48.151
					C148.091,342.715,148.376,342.334,148.664,341.973z"/>
				<path style="fill:#64BB46;" d="M115.386,386.887c-1.877,2.307-3.283,3.891-3.946,4.404c0,0-2.825-1.063-4.875,1.272
					c-0.447,0.504-2.442-0.929-4.16-2.414c-1.724-1.491,0.756-3.804,0.756-3.804s0.88-2.083,2.275-5.33
					C108.866,383.724,112.878,385.761,115.386,386.887z"/>
				<g>
					<path style="fill:#CF262C;" d="M109.472,409.203c-9.978-6.942-15.01-12.738-17.356-16.046c1.324-2.094,4.1-5.624,5.182-6.879
						c1.365-1.573,5.862,0.066,5.862,0.066s-2.48,2.313-0.756,3.804c1.718,1.485,3.713,2.919,4.16,2.414
						c2.05-2.335,4.875-1.272,4.875-1.272s3.648,1.373,3.84,6.539c0.079,2.135,3.886,5.04,7.569,8.156
						c3.412,2.88,11.083,6.021,7.616,12.801C127.153,418.431,120.223,416.682,109.472,409.203z"/>
					<path style="fill:#DEDDC7;" d="M122.848,405.986c-0.449-0.381-0.902-0.756-1.346-1.129c-2.609-0.266-5.256,0.167-6.744,1.296
						c-1.483,1.123-2.716,2.551-3.656,4.154c9.819,6.539,16.221,8.139,19.362,8.479C133.931,412.007,126.26,408.866,122.848,405.986
						z"/>
					<path style="fill:#9E9F91;" d="M109.472,409.203c10.751,7.479,17.682,9.227,20.992,9.584c-0.282,0.551-0.622,1.115-1.061,1.713
						c-0.71,0.978-12.006-1.685-24.996-11.592c-12.985-9.904-13.434-13.089-12.965-14.487c0.096-0.282,0.342-0.729,0.674-1.263
						C94.462,396.465,99.493,402.261,109.472,409.203z"/>
				</g>
			</g>
			<path style="fill:#244156;" d="M207.152,205.577c-0.003,0-45.652-0.11-45.671-0.11c-3.56-0.008-5.763,23.023-6.1,25.605
				c-1.557,11.935-2.297,23.949-3.426,35.926c-0.564,5.999-3.93,24.539-4.656,30.513c-0.628,5.155-11.639,16.728-14.034,20.644
				c-2.801,4.574-4.892,9.628-7.377,14.374c-2.943,5.618-5.961,11.192-9.016,16.747c-3.039,5.53-6.136,11.031-9.079,16.613
				c-1.379,2.612-2.754,5.196-4.267,7.736c-1.4,2.349-3.02,4.829-3.5,7.561c-0.011,0.049-0.003,0.11,0.011,0.173
				c-0.493-0.46-1.249,0.055-0.934,0.912c1.206,3.256,4.725,5.594,7.471,7.254c1.22,0.734,2.502,1.354,3.853,1.801
				c1.028,0.34,2.228,0.619,3.256,0.17c0.83-0.362,1.381-1.116,1.844-1.861c0.677-1.091,1.332-2.192,2.045-3.259
				c2.535-3.798,5.328-7.416,8.109-11.033c6.626-8.611,41.908-52.073,46.627-57.181c9.808-10.614,13.182-28.981,17.024-42.407
				C193.159,262.369,208.259,205.582,207.152,205.577z"/>
			<path style="opacity:0.54;fill:#244156;" d="M207.152,205.577c-0.003,0-45.652-0.11-45.671-0.11
				c-0.814-0.003-1.557,1.206-2.223,3.094c5.059,3.042,10.685,5.01,16.249,6.911c2.609,0.893,5.188,1.869,7.86,2.549
				c2.34,0.595,4.725,1.11,6.966,2.025c1.765,0.723,3.587,1.754,4.522,3.491c1.047,1.949,0.674,4.237,0.055,6.257
				c-0.773,2.521-2.066,4.826-2.913,7.312c-1.167,3.415-1.809,7.123-2.442,10.669c-0.641,3.579-1.277,7.125-2.096,10.672
				c-0.828,3.593-1.71,7.172-2.606,10.748c-1.598,6.38-3.1,12.727-5.698,18.789c-4.618,10.778-11.754,20.233-19.748,28.729
				c-7.797,8.285-16.396,15.75-24.862,23.33c3.746-0.978,7.325-2.653,10.707-4.491c4.042-2.201,7.956-4.752,11.42-7.792
				c0.436-0.384,1.135,0.104,0.822,0.636c-2.614,4.456-5.309,8.868-8.074,13.234c-5.339,8.43-10.935,16.695-16.706,24.837
				c12.593-15.722,35.824-44.227,39.592-48.305c9.808-10.614,13.182-28.981,17.024-42.407
				C193.159,262.369,208.259,205.582,207.152,205.577z"/>
		</g>
		<path style="fill:#F1D6BC;" d="M196.486,98.499c0.167-0.195,1.055-2.642,1.2-2.847c4.527,1.496,10.776,0.115,14.708,2.971
			l-4.048,10.672c0,0,4.048,8.805,2.656,10.022C209.605,120.53,194,106.427,194,106.427S197.053,99.403,196.486,98.499z"/>
		<path style="fill:#F1BB95;" d="M196.486,98.499c0.167-0.195,1.055-2.642,1.2-2.847c4.527,1.496,10.776,0.115,14.708,2.971
			l-4.048,10.672c0,0,4.048,8.805,2.656,10.022C209.605,120.53,194,106.427,194,106.427S197.053,99.403,196.486,98.499z"/>
		<g>
			<g>
				<path style="fill:#E67326;" d="M240.702,49.487c1.754-4.486-5.495-11.921-5.495-11.921s1.236,4.588-3.072,7.101
					c2.598-10.896-4.053-15.358-4.053-15.358s2.088,19.869-15.588,23.601c5.991-5.081,3.472-12.124,3.472-12.124
					s-3.275,9.367-10.096,12.072c1.211-5.095-2.338-7.756-2.338-7.756s1.77,15.448-3.119,24.188
					c-2.631-11-9.918-11.069-13.714-6.194c-3.793,4.875-1.236,20.014,9.057,18.389c5.155,7.904,3.297,15.659,3.297,15.659
					l-3.631-6.372l-0.597,7.545l-1.466-5.284c0,0,0.088,4.651-2.321,7.838c-1.214-1.677-4.056-3.124-7.835-4.749
					c-6.054-2.601-29.343-10.373-29.68-18.89c-3.05,3.785-3.05,3.785-3.05,3.785s-2.483-4.376-2.006-7.602
					c-1.603,4.094-1.861,6.092-1.861,6.092s-10.225-10.036-3.281-20.417c-4.7,1.302-5.097,2.987-5.097,2.987
					s0.225-11.971,7.134-15.555c-5.204,0.578-6.807-1.359-6.807-1.359s4.884-1.757,6.533-11.332
					c1.65-9.575,12.393-15.594,16.347-14.311c-4.481-4.632-6.651-4.434-6.651-4.434s5.692-2.491,10.57,1.781
					c-2.321-7.465,0.249-9.34,0.249-9.34s-0.11,3.626,2.73,7.095c11.628-14.322,22.911-19.715,60.144-8.915
					c37.235,10.803,35.323,25.882,32.845,32.812c0.469-9.153-6.218-12.253-6.218-12.253s6.791,10.773-1.423,20.485
					c1.866-7.991-4.991-16.243-4.991-16.243s4.873,8.964-4.831,18.608c0,0-0.005,0.038-0.011,0.052
					C242.812,49.63,241.738,49.819,240.702,49.487z"/>
				<path style="fill:#F1D6BC;" d="M186.7,63.097c3.796-4.875,11.083-4.807,13.714,6.194c4.889-8.739,3.119-24.188,3.119-24.188
					s3.549,2.661,2.338,7.756c6.821-2.705,10.096-12.072,10.096-12.072s2.518,7.043-3.472,12.124
					c17.676-3.733,15.588-23.601,15.588-23.601s6.651,4.461,4.053,15.358c4.308-2.513,3.072-7.101,3.072-7.101
					s7.249,7.435,5.495,11.921c1.036,0.332,2.11,0.143,3.146-0.318c-0.178,0.573-3.256,10.685,0.17,16.169
					c3.521,5.643,8.545,7.046,7.04,9.989c-1.505,2.941-8.77,4.341-8.77,4.341s-0.06,9.099-6.155,17.742
					c-6.07,8.608-11.518,12.53-43.991,1.571c1.274-2.869,1.217-5.947,1.217-5.947l1.466,5.284l0.597-7.545l3.631,6.372
					c0,0,1.858-7.756-3.297-15.659C185.464,83.111,182.907,67.972,186.7,63.097z"/>
				<path style="opacity:0.5;fill:#FBC9A7;" d="M186.7,63.097c3.796-4.875,11.083-4.807,13.714,6.194
					c4.889-8.739,3.119-24.188,3.119-24.188s3.549,2.661,2.338,7.756c6.821-2.705,10.096-12.072,10.096-12.072
					s2.518,7.043-3.472,12.124c17.676-3.733,15.588-23.601,15.588-23.601s6.651,4.461,4.053,15.358
					c4.308-2.513,3.072-7.101,3.072-7.101s7.249,7.435,5.495,11.921c1.036,0.332,2.11,0.143,3.146-0.318
					c-0.178,0.573-3.256,10.685,0.17,16.169c3.521,5.643,8.545,7.046,7.04,9.989c-1.505,2.941-8.77,4.341-8.77,4.341
					s-0.06,9.099-6.155,17.742c-6.07,8.608-11.518,12.53-43.991,1.571c1.274-2.869,1.217-5.947,1.217-5.947l1.466,5.284l0.597-7.545
					l3.631,6.372c0,0,1.858-7.756-3.297-15.659C185.464,83.111,182.907,67.972,186.7,63.097z"/>
			</g>
			<g>
				<path style="fill:#7C422C;" d="M231.162,65.884c-0.255,2.036,0.225,3.672,1.063,3.645c0.85-0.03,1.724-1.702,1.971-3.746
					c0.266-2.034-0.225-3.659-1.052-3.634C232.299,62.176,231.408,63.859,231.162,65.884z"/>
				<path style="fill:#FFFFFF;" d="M233.091,64.297c-0.033,0.603,0.151,1.069,0.414,1.047c0.26-0.038,0.485-0.551,0.51-1.165
					c0.033-0.622-0.143-1.093-0.416-1.069C233.349,63.154,233.116,63.673,233.091,64.297z"/>
			</g>
			<path style="fill:#AA6028;" d="M227.226,56.802c0,0,10.039-3.716,11.724,1.302C239.701,51.683,233.42,52.14,227.226,56.802z"/>
			<path style="fill:#C09068;" d="M240.606,88.384c0,0-0.107,0.082-0.291,0.173c-0.074,0.049-0.216,0.071-0.34,0.115
				c-0.12,0.055-0.288,0.055-0.452,0.082c-0.318,0.077-0.726,0.016-1.129,0.036c-0.211,0-0.436-0.066-0.655-0.077
				c-0.219-0.03-0.444-0.038-0.672-0.071c-0.449-0.088-0.904-0.183-1.343-0.233c-0.433-0.057-0.833-0.178-1.192-0.219
				c-0.715-0.107-1.231-0.115-1.231-0.115s0.4,0.296,1.055,0.655c0.326,0.164,0.704,0.389,1.151,0.518
				c0.441,0.143,0.926,0.252,1.414,0.37c0.513,0.033,1.017,0.071,1.494,0.041c0.249-0.041,0.48-0.096,0.696-0.14
				c0.216-0.028,0.414-0.145,0.592-0.233c0.184-0.082,0.334-0.167,0.452-0.293c0.121-0.118,0.227-0.195,0.29-0.296
				C240.586,88.504,240.606,88.384,240.606,88.384z"/>
			<path style="opacity:0.5;fill:#F8D3CA;" d="M232.984,75.607c-0.096,1.23-2.565,2.036-5.522,1.792
				c-2.968-0.244-5.278-1.441-5.191-2.669c0.104-1.233,2.587-2.031,5.533-1.792C230.77,73.185,233.086,74.377,232.984,75.607z"/>
			<path style="fill:#C09068;" d="M193.548,67.92c-1.4-1.803-3.741-1.768-5.35-0.375c-0.162,0.137,0.039,0.183,0.159,0.093
				c2.329-1.743,4.689,0.274,5.355,2.535c0.052,0.162,0.079,0.329,0.118,0.488c-0.584,0.112-1.11,0.326-1.639,0.647
				c-0.351,0.216-0.661,0.458-0.954,0.74c-0.307,0.302-0.414,0.704-0.691,1.006c-0.129,0.148,0.112,0.153,0.195,0.074
				c0.145-0.132,0.173-0.162,0.274-0.337c0.241-0.414,0.589-0.69,0.987-0.951c0.6-0.384,1.225-0.534,1.888-0.68
				c0.11,1.209-0.173,2.406-0.354,3.609c-0.052,0.365,0.526,0.082,0.614-0.091C195.184,72.593,194.981,69.767,193.548,67.92z"/>
			<g style="opacity:0.5;">
				<path style="fill:#C26C2E;" d="M191.038,100.872c-1.214-1.677-4.056-3.124-7.835-4.749c-6.054-2.601-29.343-10.373-29.68-18.89
					c-3.05,3.785-3.05,3.785-3.05,3.785s-2.483-4.376-2.006-7.602c-1.603,4.094-1.861,6.092-1.861,6.092
					s-10.225-10.036-3.281-20.417c-4.7,1.302-5.097,2.987-5.097,2.987s0.225-11.971,7.134-15.555
					c-5.204,0.578-6.807-1.359-6.807-1.359s0.255-0.096,0.658-0.345c8.024,2.393,17.177-1.45,17.177-1.45s-3.206,3.51-10.115,11.803
					c4.851-3.966,14.045-4.034,14.045-4.034s-10.192,2.615-13.689,18.107c2.42-7.117,8.227-10.713,21.773-13.475
					c-8.38,7.353-9.647,15.287-9.647,15.287s8.082-12.231,19.406-15.868c0.068,9.192,4.259,9.485,4.259,9.485
					c3.198-10.225,9.403-8.334,9.403-8.334l-4.108-5.878c0,0,4.481,0.148,10.603,9.751c2.998-12.442,0.156-21.56-2.965-25.183
					c7.027,1.148,12.694,11.908,12.694,11.908c6.868-7.989,5.015-20.998,5.015-20.998s7.802,5.991,5.371,21.058
					c9.559-12.815,2.382-27.901,2.382-27.901s9.299,2.836,13.601,15.733c1.496-3.152-0.639-10.658-0.639-10.658
					s8.578,4.686,9.312,22.598c6.161-9.605,1.206-23.557,1.206-23.557s9.636,4.04,10.989,17.649
					c1.433-5.045-1.181-15.415-5.147-20.971c7.298,2.856,10.759,7.147,12.286,11.272c0.216,2.902-0.422,5.443-1.104,7.358
					c0.469-9.153-6.218-12.253-6.218-12.253s6.791,10.773-1.423,20.485c1.866-7.991-4.991-16.243-4.991-16.243
					s4.873,8.964-4.831,18.608c0,0-0.005,0.038-0.011,0.052c-1.036,0.46-2.11,0.649-3.146,0.318
					c1.754-4.486-5.495-11.921-5.495-11.921s1.236,4.588-3.072,7.101c2.598-10.896-4.053-15.358-4.053-15.358
					s2.088,19.869-15.588,23.601c5.991-5.081,3.472-12.124,3.472-12.124s-3.275,9.367-10.096,12.072
					c1.211-5.095-2.338-7.756-2.338-7.756s1.77,15.448-3.119,24.188c-2.631-11-9.918-11.069-13.714-6.194
					c-3.793,4.875-1.236,20.014,9.057,18.389c5.155,7.904,3.297,15.659,3.297,15.659l-3.631-6.372l-0.597,7.545l-1.466-5.284
					C193.359,93.035,193.447,97.685,191.038,100.872z"/>
			</g>
		</g>
		<path style="fill:#3DB3B6;" d="M163.126,208.701c4.629,1.526,9.46,2.392,14.278,3.064c4.185,0.581,8.411,1.151,12.623,1.486
			c5.347,0.425,10.792,0.381,16.098-0.469c3.365-0.537,6.838-1.414,9.932-2.971c-0.145-14.289-0.945-89.555-1.743-92.268
			c-0.883-3.001-5.569-9.43-5.569-9.43l-0.515,1.458c0,0,3.867,6.835,2.524,8.386c-1.247,1.439-14.401-15.964-14.64-17.613
			c-9.855,4.79-19.693-0.334-33.958,64.15c-0.976,12.395-7.35,26.778-10.118,37.271
			C154.619,205.349,159.056,207.355,163.126,208.701z"/>
		<path style="opacity:0.42;fill:#3DB3B6;" d="M183.515,194.362c-1.872-3.752-3.691-7.528-5.492-11.313
			c-0.74-1.559-1.425-3.149-2.321-4.629c-0.814-1.351-1.71-2.664-2.39-4.089c-0.606-1.274-0.899-2.59-0.586-3.996
			c0.337-1.51,1.305-2.776,2.275-3.941c2.351-2.828,4.385-5.829,6.245-9.003c3.922-6.703,7.087-13.809,10.458-20.798
			c1.677-3.475,3.53-6.851,5.262-10.296c1.795-3.563,3.409-7.336,3.743-11.351c0.036-0.45,0.545-0.696,0.894-0.37
			c2.946,2.752,4.944,6.361,6.404,10.082c1.551,3.949,3.037,7.937,4.714,11.834c0.924,2.143,1.705,4.352,2.436,6.577
			c-0.26-13.853-0.554-24.536-0.844-25.528c-0.883-3.001-5.569-9.43-5.569-9.43l-0.515,1.458c0,0,3.867,6.835,2.524,8.386
			c-1.247,1.439-14.401-15.964-14.64-17.613c-9.855,4.79-19.693-0.334-33.958,64.15c-0.559,7.101-2.889,14.848-5.298,22.149
			c1.025,1.329,2.058,2.653,3.111,3.96c6.01,7.479,12.428,14.629,19.219,21.406c3.598,0.493,7.224,0.954,10.839,1.242
			c1.293,0.104,2.592,0.178,3.894,0.219C190.172,207.259,186.754,200.852,183.515,194.362z"/>
		<g>
			<g>
				<g>
					<g>
						<path style="fill:#0C0E0E;" d="M238.487,409.732c0.022,0.085,0.573,7.986,0.573,7.986s0.189,0.548,0.995,0.598
							c0,0,0.537-0.121,0.693-0.567l1.146-8.345L238.487,409.732z"/>
						<path style="fill:#222425;" d="M242.699,416.953c0.079-0.899-0.079-1.746-0.406-2.453l0.655-1.255c0,0-1.436-0.422-2.62-0.581
							c0,0-0.485-0.047-0.49-0.041c-1.721-0.112-3.258,1.565-3.453,3.776c-0.173,1.973,0.784,3.711,2.206,4.201h-0.003
							c0,0,1.518,0.469,2.998,0.62l0.186-1.784C242.275,418.779,242.615,417.918,242.699,416.953z"/>
						<path style="fill:#0D0F10;" d="M236.374,416.602c-0.093,1.888,0.841,3.527,2.217,3.998h-0.003c0,0,1.518,0.469,2.998,0.62
							l0.186-1.784c0.395-0.512,0.685-1.157,0.836-1.872C240.491,417.364,238.314,417.389,236.374,416.602z"/>
						<path style="fill:#383A3B;" d="M245.24,417.474c-0.197,2.237-1.77,3.93-3.511,3.777c-1.746-0.154-3.001-2.091-2.803-4.33
							c0.194-2.239,1.768-3.927,3.513-3.777C244.182,413.297,245.437,415.235,245.24,417.474z"/>
						<path style="fill:#696B6D;" d="M245.24,417.474c-0.197,2.237-1.77,3.93-3.511,3.777c-1.746-0.154-3.001-2.091-2.803-4.33
							c0.194-2.239,1.768-3.927,3.513-3.777C244.182,413.297,245.437,415.235,245.24,417.474z"/>
						<path style="fill:#383A3B;" d="M245.24,417.474c-0.186,2.143-1.694,3.76-3.363,3.615c-1.669-0.148-2.869-2-2.683-4.143
							c0.189-2.143,1.693-3.763,3.363-3.615C244.226,413.475,245.429,415.331,245.24,417.474z"/>
						<path style="fill:#252828;" d="M243.974,417.482c-0.101,1.159-0.915,2.039-1.82,1.96c-0.907-0.079-1.557-1.085-1.455-2.247
							c0.102-1.159,0.915-2.036,1.823-1.96C243.426,415.315,244.075,416.323,243.974,417.482z"/>
						<path style="fill:#4E5252;" d="M243.631,417.452c-0.091,1.039-0.82,1.825-1.631,1.754c-0.811-0.068-1.395-0.97-1.302-2.012
							c0.09-1.039,0.819-1.825,1.631-1.754C243.141,415.512,243.724,416.413,243.631,417.452z"/>
						<path style="fill:#252828;" d="M240.778,409.968c0.019,0.085,0.573,7.986,0.573,7.986s0.186,0.548,0.992,0.597
							c0,0,0.537-0.12,0.696-0.567l1.146-8.342L240.778,409.968z"/>
					</g>
					<g>
						<path style="fill:#646768;" d="M236.889,406.189l0.669,4.393c0,0,0.386,1.617,2.614,1.499c0,0,4.122,0.285,4.653-1.25
							c0.562-1.62,1.041-4.585,1.041-4.585L236.889,406.189z"/>
						<path style="fill:#383A3B;" d="M241.579,410.179c1.282-0.019,2.346-0.332,3.598-0.546c0.397-1.567,0.691-3.387,0.691-3.387
							l-8.978-0.057l0.546,3.576C238.602,410.233,240.419,410.201,241.579,410.179z"/>
					</g>
					<path style="fill:#383A3B;" d="M239.309,412.823c0,0-2.527,0.455-2.743,3.949C236.566,416.772,236.941,413.969,239.309,412.823
						z"/>
					<path style="fill:#383A3B;" d="M237.468,408.759l0.4,1.921c0,0,0.29,1.077,1.817,1.104c0,0-0.71-0.342-0.844-1.077
						c-0.129-0.737-0.11-1.833-0.11-1.833L237.468,408.759z"/>
				</g>
				<g>
					<g>
						<path style="fill:#0C0E0E;" d="M186.749,409.732c0.022,0.085,0.57,7.986,0.57,7.986s0.189,0.548,0.998,0.598
							c0,0,0.535-0.121,0.693-0.567l1.145-8.345L186.749,409.732z"/>
						<path style="fill:#222425;" d="M190.961,416.953c0.079-0.899-0.08-1.746-0.406-2.453l0.652-1.255c0,0-1.433-0.422-2.617-0.581
							c0,0-0.485-0.047-0.493-0.041c-1.719-0.112-3.258,1.565-3.45,3.776c-0.173,1.973,0.781,3.711,2.203,4.201l0,0
							c0,0,1.518,0.469,2.998,0.62l0.189-1.784C190.536,418.779,190.876,417.918,190.961,416.953z"/>
						<path style="fill:#0D0F10;" d="M184.636,416.602c-0.093,1.888,0.841,3.527,2.214,3.998l0,0c0,0,1.518,0.469,2.998,0.62
							l0.189-1.784c0.389-0.512,0.682-1.157,0.83-1.872C188.755,417.364,186.576,417.389,184.636,416.602z"/>
						<path style="fill:#383A3B;" d="M193.501,417.474c-0.195,2.237-1.768,3.93-3.513,3.777c-1.743-0.154-2.998-2.091-2.804-4.33
							c0.194-2.239,1.768-3.927,3.513-3.777C192.444,413.297,193.696,415.235,193.501,417.474z"/>
						<path style="fill:#696B6D;" d="M193.501,417.474c-0.195,2.237-1.768,3.93-3.513,3.777c-1.743-0.154-2.998-2.091-2.804-4.33
							c0.194-2.239,1.768-3.927,3.513-3.777C192.444,413.297,193.696,415.235,193.501,417.474z"/>
						<path style="fill:#383A3B;" d="M193.501,417.474c-0.186,2.143-1.694,3.76-3.363,3.615c-1.669-0.148-2.872-2-2.683-4.143
							c0.186-2.143,1.691-3.763,3.363-3.615C192.488,413.475,193.688,415.331,193.501,417.474z"/>
						<path style="fill:#252828;" d="M192.235,417.482c-0.101,1.159-0.918,2.039-1.823,1.96c-0.904-0.079-1.554-1.085-1.455-2.247
							c0.104-1.159,0.918-2.036,1.823-1.96C191.687,415.315,192.337,416.323,192.235,417.482z"/>
						<path style="fill:#4E5252;" d="M191.893,417.452c-0.09,1.039-0.82,1.825-1.631,1.754c-0.811-0.068-1.395-0.97-1.305-2.012
							c0.093-1.039,0.822-1.825,1.633-1.754C191.402,415.512,191.983,416.413,191.893,417.452z"/>
						<path style="fill:#252828;" d="M189.037,409.968c0.022,0.085,0.573,7.986,0.573,7.986s0.189,0.548,0.995,0.597
							c0,0,0.537-0.12,0.693-0.567l1.146-8.342L189.037,409.968z"/>
					</g>
					<g>
						<path style="fill:#646768;" d="M185.151,406.189l0.669,4.393c0,0,0.384,1.617,2.614,1.499c0,0,4.122,0.285,4.654-1.25
							c0.562-1.62,1.041-4.585,1.041-4.585L185.151,406.189z"/>
						<path style="fill:#383A3B;" d="M189.84,410.179c1.283-0.019,2.346-0.332,3.595-0.546c0.398-1.567,0.694-3.387,0.694-3.387
							l-8.978-0.057l0.543,3.576C186.861,410.233,188.681,410.201,189.84,410.179z"/>
					</g>
					<path style="fill:#383A3B;" d="M187.568,412.823c0,0-2.524,0.455-2.743,3.949C184.825,416.772,185.201,413.969,187.568,412.823
						z"/>
					<path style="fill:#383A3B;" d="M185.729,408.759l0.4,1.921c0,0,0.29,1.077,1.817,1.104c0,0-0.712-0.342-0.844-1.077
						c-0.132-0.737-0.112-1.833-0.112-1.833L185.729,408.759z"/>
				</g>
			</g>
			<path style="fill:#B62529;" d="M244.374,266.402h-80.136c-0.502,0-0.987,0.06-1.455,0.17l-0.005-0.011l-21.579,3.763
				l-0.488,1.765l16.958,28.085l65.082,107.776l1.738,2.875l0.104,0.567l20.485-3.48c3.297-0.354,5.862-3.157,5.862-6.564V273.005
				C250.94,269.357,248,266.402,244.374,266.402z"/>
			<g>
				<path style="fill:#B62529;" d="M250.173,383.009c0.079,3.475-1.263,3.396-1.263,3.396l-3.316,0.159
					c-2.527-0.159-2.683-2.053-2.683-2.053l-2.212-95.844c0,0-1.42,102.476-1.42,107.527c0,5.054-2.37,5.21-2.37,5.21l-3.157,0.633
					c-3.001,0.159-2.686-3.631-2.686-3.631l-1.894-110.846c0,0-35.517,35.106-49.606,48.875l43.185,71.517l1.738,2.875l0.104,0.567
					l20.485-3.48c3.297-0.354,5.862-3.157,5.862-6.564V277.702C250.811,293.452,250.102,379.852,250.173,383.009z"/>
			</g>
			<g>
				<g>
					<g>
						<rect x="192.441" y="227.35" style="fill:#A8AAAD;" width="3.552" height="39"/>
						<rect x="194.491" y="227.35" style="fill:#727476;" width="1.502" height="39"/>
						<rect x="192.992" y="227.35" style="fill:#FFFFFF;" width="0.554" height="39"/>
						<path style="fill:#A8AAAD;" d="M195.993,229.97v-2.62h-3.552v2.59C193.123,230.57,194.707,230.362,195.993,229.97z"/>
						<rect x="192.441" y="257.351" style="fill:#A8AAAD;" width="3.552" height="9"/>
					</g>
					<g>
						<rect x="224.861" y="227.35" style="fill:#A8AAAD;" width="3.552" height="39"/>
						<rect x="226.914" y="227.35" style="fill:#727476;" width="1.499" height="39"/>
						<rect x="225.415" y="227.35" style="fill:#FFFFFF;" width="0.551" height="39"/>
						<path style="fill:#A8AAAD;" d="M228.413,229.97v-2.62h-3.552v2.59C225.546,230.57,227.128,230.362,228.413,229.97z"/>
						<rect x="224.861" y="257.403" style="fill:#A8AAAD;" width="3.552" height="8.948"/>
					</g>
					<path style="fill:#32342C;" d="M228.413,221.031c-0.23-2.223-0.521-4.382-3.971-5.064c0,0.003,0,0.008,0,0.008
						c-0.532-0.148-1.137-0.252-1.839-0.31c-5.155-0.422-21.532-0.354-25.473,0.211c-3.944,0.567-4.248,2.826-4.492,5.155
						c-0.129,1.25-0.365,3.954-0.554,6.199c0.033,0.206,0.088,0.406,0.184,0.581c0.34,0.625,0.965,0.721,1.625,0.767
						c0.658,0.044,1.589,0.175,2.176-0.189c0.228-0.142,0.345-0.345,0.414-0.575c-0.074-2.261-0.449-5.766,0.159-6.361
						c1.518-1.483,2.124,0.778,4.064,0.778c1.943,0,2.365-2.118,4.368-0.921c2.017,1.214,2.91,1.554,4.489,0.425
						c2.384-1.707,3.143,0.455,4.67,0.496c2.669,0.069,2.793-2.614,5.278-0.707c1.916,1.469,3.135-0.439,4.533-0.365
						c0.115,0.071,0.238,0.167,0.365,0.293c0.611,0.595,0.233,4.1,0.159,6.361c0.071,0.23,0.186,0.433,0.414,0.575
						c0.586,0.365,1.521,0.233,2.176,0.189c0.66-0.046,1.285-0.143,1.628-0.767c0.096-0.175,0.151-0.376,0.181-0.581
						C228.777,224.985,228.545,222.28,228.413,221.031z"/>
					<path style="fill:#32342C;" d="M228.413,221.031c-0.23-2.223-0.521-4.382-3.971-5.064c0,0.003,0,0.008,0,0.008
						c-0.532-0.148-1.137-0.252-1.839-0.31c-5.155-0.422-21.532-0.354-25.473,0.211c-3.944,0.567-4.248,2.826-4.492,5.155
						c-0.129,1.25-0.365,3.954-0.554,6.199c0.033,0.206,0.088,0.406,0.184,0.581c0.34,0.625,0.965,0.721,1.625,0.767
						c0.658,0.044,1.589,0.175,2.176-0.189c0.228-0.142,0.345-0.345,0.414-0.575c-0.074-2.261-0.449-5.766,0.159-6.361
						c1.518-1.483,2.124,0.778,4.064,0.778c1.943,0,2.365-2.118,4.368-0.921c2.017,1.214,2.91,1.554,4.489,0.425
						c2.384-1.707,3.143,0.455,4.67,0.496c2.669,0.069,2.793-2.614,5.278-0.707c1.916,1.469,3.135-0.439,4.533-0.365
						c0.115,0.071,0.238,0.167,0.365,0.293c0.611,0.595,0.233,4.1,0.159,6.361c0.071,0.23,0.186,0.433,0.414,0.575
						c0.586,0.365,1.521,0.233,2.176,0.189c0.66-0.046,1.285-0.143,1.628-0.767c0.096-0.175,0.151-0.376,0.181-0.581
						C228.777,224.985,228.545,222.28,228.413,221.031z"/>
					<path style="fill:#32342C;" d="M228.413,221.031c-0.214-2.045-0.474-4.029-3.195-4.867c0.285,0.266,0.524,0.529,0.674,0.696
						c1.37,1.518,1.324,3.757,1.535,5.673c0.145,1.337,0.707,4.703-1.137,5.275c-0.682,0.208-1.274-0.008-1.702-0.43
						c-0.005,0.148-0.014,0.296-0.019,0.436c0.071,0.23,0.186,0.433,0.414,0.575c0.586,0.365,1.521,0.233,2.176,0.189
						c0.66-0.046,1.285-0.143,1.628-0.767c0.096-0.175,0.151-0.376,0.181-0.581C228.777,224.985,228.545,222.28,228.413,221.031z"/>
					<path style="fill:#32342C;" d="M197.7,220.299c-0.984-0.175-1.748,0.225-2.042,1.2c-0.46,1.524-0.181,3.138-0.222,4.7
						c-0.019,0.773-0.405,1.905-1.091,2.411c0.586,0.044,1.263,0.066,1.724-0.222c0.228-0.142,0.345-0.345,0.414-0.575
						c-0.074-2.261-0.449-5.766,0.159-6.361c1.315-1.285,1.949,0.241,3.357,0.669C199.35,221.389,198.689,220.477,197.7,220.299z"/>
					<path style="fill:#32342C;" d="M206.969,222.036c-0.817-0.567-1.724-1.847-2.875-1.518c-0.408,0.115-0.778,0.414-1.143,0.751
						c0.573-0.348,1.167-0.532,2.124,0.041c1.688,1.014,2.59,1.414,3.76,0.86C208.21,222.376,207.571,222.453,206.969,222.036z"/>
					<path style="fill:#32342C;" d="M214.061,221.603c-0.776-0.206-1.612-0.647-2.376-0.469c0.94,0.219,1.595,1.069,2.549,1.096
						c1.907,0.049,2.513-1.304,3.612-1.389C216.618,220.318,215.461,221.982,214.061,221.603z"/>
					<path style="fill:#32342C;" d="M224.752,223.609c0.038-0.151,0.074-0.304,0.104-0.458c0.137-0.677,0.373-1.765-0.093-2.376
						c-0.861-1.126-2.302,0.535-3.1,0.877c-0.628,0.268-1.214,0.238-1.801,0.11c1.718,1,2.872-0.672,4.182-0.603
						c0.115,0.071,0.238,0.167,0.365,0.293C224.68,221.718,224.757,222.56,224.752,223.609z"/>
					<path style="fill:#58594D;" d="M195.362,216.876c0,0-1.896,0.803-2.212,2.935l-0.592,6.235c0,0-0.156,1.343,0.474,1.54
						c0,0,1.537,0.554,1.696-0.71c0.159-1.263-0.159-6.235,0.792-7.106c0.945-0.866,2.012-0.828,2.76-0.274
						c0.751,0.551,1.937,1.853,3.631,0.551c1.699-1.302,2.686-1.537,3.593-0.551c0.91,0.987,2.332,1.499,3.831,0.471
						c1.499-1.025,2.168-1.458,3.513-0.354c1.343,1.104,1.655,1.343,3.196,0.156c1.54-1.184,2.212-1.42,3.278-0.471
						c1.066,0.945,2.803,0.827,3.552-0.674c0.751-1.499-0.907-2.25-2.765-2.486C218.257,215.903,202.31,215.245,195.362,216.876z"/>
				</g>
				<g>
					<path style="fill:#10110B;" d="M197.335,266.929l-0.554-6.473c0,0-0.079-1.579-1.025-1.817h-0.789h-1.579h-0.792
						c-0.945,0.238-1.025,1.817-1.025,1.817l-0.553,6.473H197.335z"/>
					<path style="fill:#32342C;" d="M195.751,263.245l-0.219-2.595c0,0-0.055-1.107-0.71-1.274h-2.184
						c-0.655,0.167-0.71,1.274-0.71,1.274l-0.219,2.595H195.751z"/>
				</g>
				<g>
					<path style="fill:#10110B;" d="M229.967,266.929l-0.551-6.473c0,0-0.082-1.579-1.028-1.817h-0.789h-1.581h-0.789
						c-0.945,0.238-1.025,1.817-1.025,1.817l-0.554,6.473H229.967z"/>
					<path style="fill:#32342C;" d="M228.383,263.245l-0.219-2.595c0,0-0.055-1.107-0.71-1.274h-2.184
						c-0.655,0.167-0.71,1.274-0.71,1.274l-0.219,2.595H228.383z"/>
				</g>
			</g>
			<g>
				<g>
					<g>
						<path style="fill:#0C0E0E;" d="M204.066,413.207c0.022,0.082,0.573,7.983,0.573,7.983s0.186,0.548,0.995,0.6
							c0,0,0.534-0.12,0.693-0.567l1.145-8.345L204.066,413.207z"/>
						<path style="fill:#222425;" d="M208.278,420.426c0.079-0.896-0.079-1.746-0.406-2.45l0.655-1.258c0,0-1.436-0.419-2.62-0.578
							c0,0-0.485-0.049-0.491-0.044c-1.721-0.11-3.261,1.565-3.456,3.779c-0.17,1.973,0.784,3.711,2.206,4.199v0.003
							c0,0,1.518,0.469,2.998,0.617l0.189-1.781C207.854,422.253,208.193,421.39,208.278,420.426z"/>
						<path style="fill:#0D0F10;" d="M201.953,420.075c-0.093,1.888,0.841,3.527,2.214,3.999v0.003c0,0,1.518,0.469,2.998,0.617
							l0.189-1.781c0.389-0.515,0.682-1.156,0.83-1.874C206.069,420.839,203.894,420.864,201.953,420.075z"/>
						<path style="fill:#383A3B;" d="M210.819,420.946c-0.197,2.239-1.768,3.93-3.513,3.776c-1.743-0.151-2.998-2.088-2.803-4.327
							c0.197-2.239,1.77-3.93,3.513-3.776C209.758,416.772,211.016,418.71,210.819,420.946z"/>
						<path style="fill:#696B6D;" d="M210.819,420.946c-0.197,2.239-1.768,3.93-3.513,3.776c-1.743-0.151-2.998-2.088-2.803-4.327
							c0.197-2.239,1.77-3.93,3.513-3.776C209.758,416.772,211.016,418.71,210.819,420.946z"/>
						<path style="fill:#383A3B;" d="M210.819,420.946c-0.189,2.146-1.694,3.76-3.363,3.615c-1.669-0.145-2.872-2.001-2.683-4.144
							c0.186-2.141,1.691-3.76,3.363-3.615C209.805,416.948,211.005,418.803,210.819,420.946z"/>
						<path style="fill:#252828;" d="M209.553,420.954c-0.102,1.162-0.918,2.039-1.822,1.96c-0.904-0.08-1.554-1.085-1.452-2.244
							c0.101-1.162,0.915-2.039,1.82-1.96C209.005,418.789,209.654,419.795,209.553,420.954z"/>
						<path style="fill:#4E5252;" d="M209.21,420.924c-0.09,1.041-0.822,1.825-1.631,1.757c-0.811-0.071-1.395-0.973-1.302-2.012
							c0.09-1.039,0.822-1.825,1.631-1.754C208.72,418.984,209.301,419.886,209.21,420.924z"/>
						<path style="fill:#252828;" d="M206.355,413.443c0.022,0.085,0.573,7.986,0.573,7.986s0.189,0.548,0.995,0.598
							c0,0,0.537-0.121,0.693-0.567l1.146-8.345L206.355,413.443z"/>
					</g>
					<g>
						<path style="fill:#646768;" d="M202.469,409.661l0.669,4.393c0,0,0.384,1.62,2.614,1.499c0,0,4.122,0.288,4.653-1.25
							c0.562-1.62,1.044-4.585,1.044-4.585L202.469,409.661z"/>
						<path style="fill:#383A3B;" d="M207.158,413.654c1.283-0.022,2.346-0.332,3.596-0.545c0.397-1.57,0.696-3.39,0.696-3.39
							l-8.981-0.057l0.545,3.579C204.181,413.708,205.998,413.673,207.158,413.654z"/>
					</g>
					<path style="fill:#383A3B;" d="M204.886,416.298c0,0-2.524,0.455-2.74,3.946C202.145,420.245,202.518,417.444,204.886,416.298z
						"/>
					<path style="fill:#383A3B;" d="M203.047,412.231l0.4,1.921c0,0,0.29,1.08,1.814,1.107c0,0-0.71-0.342-0.841-1.08
						c-0.129-0.737-0.11-1.831-0.11-1.831L203.047,412.231z"/>
				</g>
				<g>
					<g>
						<path style="fill:#0C0E0E;" d="M150.382,414.114c0.019,0.082,0.57,7.983,0.57,7.983s0.189,0.548,0.995,0.6
							c0,0,0.537-0.121,0.693-0.567l1.148-8.345L150.382,414.114z"/>
						<path style="fill:#222425;" d="M154.594,421.332c0.079-0.896-0.079-1.746-0.408-2.45l0.655-1.258c0,0-1.436-0.419-2.62-0.578
							c0,0-0.485-0.049-0.491-0.044c-1.718-0.11-3.258,1.565-3.453,3.779c-0.173,1.973,0.784,3.711,2.206,4.198l-0.003,0.003
							c0,0,1.521,0.469,2.998,0.616l0.189-1.781C154.167,423.161,154.509,422.297,154.594,421.332z"/>
						<path style="fill:#0D0F10;" d="M148.269,420.982c-0.093,1.888,0.841,3.527,2.214,3.999l-0.003,0.003
							c0,0,1.521,0.469,2.998,0.616l0.189-1.781c0.392-0.515,0.683-1.156,0.833-1.875
							C152.385,421.746,150.207,421.771,148.269,420.982z"/>
						<path style="fill:#383A3B;" d="M157.132,421.853c-0.195,2.239-1.768,3.93-3.511,3.776c-1.746-0.151-3.001-2.088-2.803-4.327
							c0.197-2.239,1.768-3.93,3.513-3.776C156.074,417.679,157.329,419.617,157.132,421.853z"/>
						<path style="fill:#696B6D;" d="M157.132,421.853c-0.195,2.239-1.768,3.93-3.511,3.776c-1.746-0.151-3.001-2.088-2.803-4.327
							c0.197-2.239,1.768-3.93,3.513-3.776C156.074,417.679,157.329,419.617,157.132,421.853z"/>
						<path style="fill:#383A3B;" d="M157.132,421.853c-0.186,2.146-1.691,3.76-3.36,3.615c-1.672-0.145-2.872-2.001-2.683-4.144
							c0.186-2.14,1.691-3.76,3.363-3.615C156.118,417.855,157.321,419.71,157.132,421.853z"/>
						<path style="fill:#252828;" d="M155.869,421.862c-0.104,1.162-0.918,2.039-1.822,1.96c-0.904-0.08-1.557-1.086-1.455-2.245
							c0.101-1.162,0.918-2.039,1.822-1.959C155.318,419.696,155.97,420.702,155.869,421.862z"/>
						<path style="fill:#4E5252;" d="M155.526,421.831c-0.09,1.042-0.822,1.825-1.633,1.757c-0.811-0.071-1.392-0.973-1.302-2.012
							c0.09-1.039,0.822-1.825,1.631-1.754C155.033,419.891,155.617,420.793,155.526,421.831z"/>
						<path style="fill:#252828;" d="M152.671,414.35c0.022,0.085,0.573,7.986,0.573,7.986s0.186,0.548,0.995,0.597
							c0,0,0.537-0.121,0.693-0.567l1.146-8.345L152.671,414.35z"/>
					</g>
					<g>
						<path style="fill:#646768;" d="M148.784,410.568l0.666,4.393c0,0,0.383,1.62,2.614,1.499c0,0,4.122,0.288,4.656-1.25
							c0.562-1.62,1.041-4.585,1.041-4.585L148.784,410.568z"/>
						<path style="fill:#383A3B;" d="M153.473,414.561c1.28-0.022,2.346-0.332,3.596-0.545c0.398-1.57,0.693-3.39,0.693-3.39
							l-8.978-0.058l0.543,3.579C150.492,414.616,152.311,414.58,153.473,414.561z"/>
					</g>
					<path style="fill:#383A3B;" d="M151.202,417.205c0,0-2.524,0.455-2.743,3.946C148.458,421.152,148.834,418.351,151.202,417.205
						z"/>
					<path style="fill:#383A3B;" d="M149.36,413.138l0.403,1.921c0,0,0.288,1.08,1.814,1.107c0,0-0.71-0.343-0.841-1.08
						c-0.132-0.737-0.11-1.831-0.11-1.831L149.36,413.138z"/>
				</g>
			</g>
			<g>
				<g>
					<path style="fill:#A01E21;" d="M229.15,405.139c0,3.645-2.938,6.602-6.566,6.602l-82.081,0.907
						c-3.628,0-6.569-2.957-6.569-6.602l1.949-129.251c0-3.645,2.941-6.602,6.566-6.602h80.136c3.628,0,6.566,2.957,6.566,6.602
						V405.139z"/>
					<path style="fill:#ED2830;" d="M225.944,404.015c0,3.544-2.79,6.418-6.229,6.418l-77.924,0.907
						c-3.439,0-6.227-2.875-6.227-6.418l1.946-125.653c0-3.543,2.79-6.418,6.229-6.418h75.976c3.439,0,6.229,2.875,6.229,6.418
						V404.015z"/>
					<g>
						<g>
							<g>
								<g>
									<path style="fill:#A01E21;" d="M145.715,406.789c0,1.214-1.345,2.198-3.006,2.198l0,0c-1.661,0-3.006-0.984-3.006-2.198
										l1.946-127.034c0-1.214,1.346-2.195,3.006-2.195l0,0c1.661,0,3.009,0.981,3.009,2.195L145.715,406.789z"/>
									<path style="fill:#ED2830;" d="M144.728,406.789c0,1.214-0.956,2.198-2.132,2.198l0,0c-1.178,0-2.132-0.984-2.132-2.198
										l1.946-127.034c0-1.214,0.954-2.195,2.132-2.195l0,0c1.176,0,2.132,0.981,2.132,2.195L144.728,406.789z"/>
								</g>
								<path style="opacity:0.5;fill:#FFFFFF;" d="M144.134,278.658c0,0-1.039,0.312-1.113,1.647l-1.949,126.174
									c0,0,0.077,1.724,1.143,1.803c0,0-0.762-0.863-0.608-2.118l1.894-125.966C143.501,280.198,143.679,278.943,144.134,278.658z
									"/>
							</g>
						</g>
						<g>
							<g>
								<g>
									<path style="fill:#A01E21;" d="M158.075,406.789c0,1.214-1.348,2.198-3.009,2.198l0,0c-1.661,0-3.006-0.984-3.006-2.198
										l1.946-127.034c0-1.214,1.348-2.195,3.009-2.195l0,0c1.658,0,3.006,0.981,3.006,2.195L158.075,406.789z"/>
									<path style="fill:#ED2830;" d="M157.083,406.789c0,1.214-0.954,2.198-2.129,2.198l0,0c-1.178,0-2.132-0.984-2.132-2.198
										l1.946-127.034c0-1.214,0.954-2.195,2.132-2.195l0,0c1.176,0,2.132,0.981,2.132,2.195L157.083,406.789z"/>
								</g>
								<path style="opacity:0.5;fill:#FFFFFF;" d="M156.493,278.658c0,0-1.044,0.312-1.115,1.647l-1.949,126.174
									c0,0,0.074,1.724,1.14,1.803c0,0-0.759-0.863-0.605-2.118l1.894-125.966C155.858,280.198,156.036,278.943,156.493,278.658z"
									/>
							</g>
						</g>
						<g>
							<g>
								<g>
									<path style="fill:#A01E21;" d="M172.375,405.884c0,1.211-1.343,2.195-3.006,2.195l0,0c-1.661,0-3.006-0.984-3.006-2.195
										v-126.13c0-1.214,1.346-2.195,3.006-2.195l0,0c1.664,0,3.006,0.981,3.006,2.195V405.884z"/>
									<path style="fill:#ED2830;" d="M171.385,405.884c0,1.211-0.951,2.195-2.13,2.195l0,0c-1.178,0-2.132-0.984-2.132-2.195
										v-126.13c0-1.214,0.954-2.195,2.132-2.195l0,0c1.179,0,2.13,0.981,2.13,2.195V405.884z"/>
								</g>
								<path style="opacity:0.5;fill:#FFFFFF;" d="M168.851,278.658c0,0-1.042,0.312-1.118,1.647v125.267
									c0,0,0.077,1.724,1.143,1.803c0,0-0.762-0.863-0.611-2.118l-0.049-125.058C168.215,280.198,168.393,278.943,168.851,278.658
									z"/>
							</g>
						</g>
						<g>
							<g>
								<g>
									<path style="fill:#A01E21;" d="M184.732,405.884c0,1.211-1.343,2.195-3.006,2.195l0,0c-1.661,0-3.006-0.984-3.006-2.195
										v-126.13c0-1.214,1.346-2.195,3.006-2.195l0,0c1.664,0,3.006,0.981,3.006,2.195V405.884z"/>
									<path style="fill:#ED2830;" d="M183.742,405.884c0,1.211-0.954,2.195-2.132,2.195l0,0c-1.176,0-2.129-0.984-2.129-2.195
										v-126.13c0-1.214,0.954-2.195,2.129-2.195l0,0c1.178,0,2.132,0.981,2.132,2.195V405.884z"/>
								</g>
								<path style="opacity:0.5;fill:#FFFFFF;" d="M181.208,278.658c0,0-1.041,0.312-1.118,1.647v125.267
									c0,0,0.077,1.724,1.143,1.803c0,0-0.762-0.863-0.611-2.118l-0.049-125.058C180.572,280.198,180.75,278.943,181.208,278.658z
									"/>
							</g>
						</g>
						<g>
							<g>
								<g>
									<path style="fill:#A01E21;" d="M197.089,405.884c0,1.211-1.346,2.195-3.006,2.195l0,0c-1.661,0-3.007-0.984-3.007-2.195
										v-126.13c0-1.214,1.346-2.195,3.007-2.195l0,0c1.661,0,3.006,0.981,3.006,2.195V405.884z"/>
									<path style="fill:#ED2830;" d="M196.1,405.884c0,1.211-0.954,2.195-2.132,2.195l0,0c-1.176,0-2.129-0.984-2.129-2.195
										v-126.13c0-1.214,0.954-2.195,2.129-2.195l0,0c1.178,0,2.132,0.981,2.132,2.195V405.884z"/>
								</g>
								<path style="opacity:0.5;fill:#FFFFFF;" d="M193.564,278.658c0,0-1.041,0.312-1.118,1.647v125.267
									c0,0,0.076,1.724,1.143,1.803c0,0-0.762-0.863-0.609-2.118l-0.052-125.058C192.929,280.198,193.104,278.943,193.564,278.658
									z"/>
							</g>
						</g>
						<g>
							<g>
								<g>
									<path style="fill:#A01E21;" d="M209.446,405.884c0,1.211-1.346,2.195-3.007,2.195l0,0c-1.661,0-3.006-0.984-3.006-2.195
										v-126.13c0-1.214,1.346-2.195,3.006-2.195l0,0c1.661,0,3.007,0.981,3.007,2.195V405.884z"/>
									<path style="fill:#ED2830;" d="M208.457,405.884c0,1.211-0.954,2.195-2.129,2.195l0,0c-1.178,0-2.132-0.984-2.132-2.195
										v-126.13c0-1.214,0.954-2.195,2.132-2.195l0,0c1.176,0,2.129,0.981,2.129,2.195V405.884z"/>
								</g>
								<path style="opacity:0.5;fill:#FFFFFF;" d="M205.919,278.658c0,0-1.039,0.312-1.115,1.647v125.267
									c0,0,0.077,1.724,1.143,1.803c0,0-0.765-0.863-0.608-2.118l-0.052-125.058C205.286,280.198,205.464,278.943,205.919,278.658
									z"/>
							</g>
						</g>
						<g>
							<g>
								<g>
									<path style="fill:#A01E21;" d="M221.803,405.884c0,1.211-1.346,2.195-3.006,2.195l0,0c-1.661,0-3.007-0.984-3.007-2.195
										v-126.13c0-1.214,1.346-2.195,3.007-2.195l0,0c1.661,0,3.006,0.981,3.006,2.195V405.884z"/>
									<path style="fill:#ED2830;" d="M220.814,405.884c0,1.211-0.954,2.195-2.132,2.195l0,0c-1.176,0-2.129-0.984-2.129-2.195
										v-126.13c0-1.214,0.954-2.195,2.129-2.195l0,0c1.178,0,2.132,0.981,2.132,2.195V405.884z"/>
								</g>
								<path style="opacity:0.5;fill:#FFFFFF;" d="M218.279,278.658c0,0-1.041,0.312-1.118,1.647v125.267
									c0,0,0.077,1.724,1.143,1.803c0,0-0.762-0.863-0.611-2.118l-0.049-125.058C217.643,280.198,217.821,278.943,218.279,278.658
									z"/>
							</g>
						</g>
					</g>
				</g>
			</g>
			<path style="fill:#B62529;" d="M224.911,269.615c0,0,3.894,1.156,4.629,4.947c0.737,3.79,0.422,10.104,0.422,10.104
				s-0.211,1.792,0.526,0.529c0.737-1.263,0.841-9.792,2.527-10.315c1.683-0.529,13.894-4.108,13.894-4.108s1.578-0.104,2.318,1.474
				c0,0,0.839,0.948,0.735-0.211c-0.104-1.156-1.475-4.947-5.895-5.262C239.646,266.457,222.595,268.773,224.911,269.615z"/>
			<g>
				<path style="fill:#ED2830;" d="M240.91,402.141V272.349l-0.011-0.074c-0.501-2.014-2.425-3.497-5.558-4.284
					c-2.316-0.581-4.448-0.589-4.538-0.589h-72.854l-3.623,0.633h76.477c0.085,0,8.35,0.049,9.474,4.355l0.003,129.78
					c0.006,0.055,0.474,5.462-2.223,6.52c-0.342,0.134-0.641,0.332-0.904,0.567l1.727-0.293
					C241.354,407.293,240.929,402.341,240.91,402.141z"/>
			</g>
			<path style="opacity:0.3;fill:#FFFFFF;" d="M138.222,296.877v-17.58c0,0,0.107-5.051,5.053-5.788h70.579c0,0,8.685,0,9.633,2.212
				c0,0-7.265-0.633-9.789-0.477c-2.527,0.159-69.475,0.159-69.475,0.159s-3.738,0.263-4.684,4.527
				C138.592,284.191,138.222,296.877,138.222,296.877z"/>
		</g>
		<g>
			<g>
				<path style="fill:#F1D6BC;" d="M149.039,171.085c-0.515-5.928,3.212-15.322,5.799-20.411
					c3.376-6.662,18.479-31.883,24.125-30.157c7.638,2.335,22.135,7.054,1.159,27.835l-11.828,21.11l23.629,40.217l-7.161,5.248
					C184.762,214.927,149.639,178.021,149.039,171.085z"/>
				<path style="fill:#F1BB95;" d="M162.799,147.228c3.908,2.68,8.074,4.988,12.445,6.827c0.455,0.192,0.921,0.356,1.381,0.54
					l3.497-6.243c20.976-20.781,6.479-25.501-1.159-27.835c-4.407-1.348-14.566,13.708-20.425,23.557
					C159.93,145.165,161.339,146.228,162.799,147.228z"/>
				<g>
					<path style="fill:#F3D9BF;" d="M181.509,209.416c-0.033-0.022,1.935-2.664,7.153-3.982c3.19-0.252,9.893,1.644,11.132,2.22
						c3.146,1.463,3.574,1.518,4.242,3.9c0.671,2.387,0.707,5.012-1.663,6.777c-0.282,2.604-1.957,3.239-3.127,3.258
						c0.137,2.436-1.209,3.385-2.447,3.398c-0.863,2.272-2.979,2.573-5.053,1.348c-1.379-0.795-1.965-2.08,2.036-3.1
						c0.378-0.266-0.688-0.219-2.639-0.246c-1.951-0.025-5.821-4.034-7.449-5.602C182.065,215.829,181.12,211.17,181.509,209.416z"
						/>
					<g>
						<path style="fill:#C29369;" d="M201.841,210.543c0,0,0.107,0.356,0.134,0.912c0.014,0.277,0.008,0.6-0.077,0.967
							c-0.049,0.181-0.099,0.384-0.293,0.581c-0.041,0.049-0.107,0.093-0.184,0.129l-0.055,0.025c0.005,0-0.047,0.016,0.003,0.003
							l-0.016,0.006l-0.06,0.027c-0.074,0.041-0.181,0.071-0.23,0.115c-0.123,0.077-0.26,0.156-0.403,0.26
							c-0.137,0.096-0.274,0.192-0.406,0.296c-0.266,0.203-0.507,0.392-0.715,0.554c-0.422,0.342-0.707,0.567-0.707,0.567
							s0.134-0.351,0.469-0.795c0.165-0.225,0.373-0.471,0.625-0.712c0.129-0.115,0.252-0.247,0.408-0.354
							c0.137-0.112,0.31-0.227,0.493-0.337c0.093-0.06,0.167-0.071,0.252-0.115l0.066-0.025l0.016-0.005
							c0.058-0.022,0.014-0.006,0.03-0.014l0.003-0.003c0.008-0.006,0.019-0.003,0.036-0.025c0.055-0.049,0.143-0.184,0.192-0.326
							c0.101-0.282,0.17-0.589,0.225-0.85C201.767,210.896,201.841,210.543,201.841,210.543z"/>
						<path style="fill:#C29369;" d="M201.109,212.957c0,0,0.222,0.285,0.46,0.759c0.123,0.236,0.247,0.512,0.367,0.819
							c0.129,0.307,0.222,0.647,0.324,0.984c0.093,0.337,0.151,0.691,0.203,1.017c0.033,0.164,0.028,0.332,0.039,0.485
							c0.011,0.148,0.011,0.293,0.011,0.427c0.008,0.134-0.027,0.26-0.041,0.37c-0.019,0.104-0.03,0.197-0.047,0.274
							c-0.03,0.154-0.052,0.238-0.052,0.238s-0.022-0.09-0.061-0.238c-0.016-0.074-0.035-0.167-0.06-0.271
							c-0.022-0.102-0.027-0.216-0.068-0.34c-0.074-0.255-0.134-0.537-0.211-0.847c-0.101-0.31-0.164-0.641-0.263-0.97
							c-0.085-0.332-0.17-0.66-0.249-0.973c-0.082-0.315-0.145-0.608-0.2-0.866C201.153,213.319,201.109,212.957,201.109,212.957z"
							/>
						<path style="fill:#C29369;" d="M198.78,216.84c0,0-0.085,0.321-0.274,0.773c-0.189,0.449-0.482,1.025-0.811,1.576
							c-0.332,0.548-0.707,1.08-1.017,1.452c-0.31,0.378-0.556,0.603-0.556,0.603s0.085-0.326,0.271-0.773
							c0.189-0.449,0.48-1.025,0.811-1.576c0.334-0.551,0.707-1.077,1.019-1.45C198.528,217.068,198.78,216.84,198.78,216.84z"/>
						<path style="fill:#C29369;" d="M197.93,218.38c0,0,0.192,0.145,0.395,0.417c0.214,0.274,0.439,0.663,0.6,1.085
							c0.074,0.214,0.145,0.427,0.187,0.641c0.038,0.208,0.063,0.409,0.071,0.581c-0.011,0.351-0.068,0.576-0.068,0.576
							s-0.131-0.208-0.255-0.504c-0.145-0.299-0.313-0.691-0.466-1.091c-0.156-0.405-0.282-0.819-0.364-1.143
							C197.952,218.619,197.93,218.38,197.93,218.38z"/>
						<path style="fill:#C29369;" d="M195.625,221.559c0,0,0.206,0.159,0.425,0.452c0.227,0.288,0.471,0.71,0.644,1.173
							c0.074,0.23,0.154,0.469,0.184,0.699c0.041,0.233,0.052,0.455,0.03,0.649c-0.016,0.186-0.063,0.348-0.11,0.449
							c-0.049,0.101-0.082,0.154-0.082,0.154s-0.014-0.063-0.033-0.17c-0.016-0.101-0.058-0.244-0.104-0.408
							c-0.052-0.162-0.112-0.351-0.189-0.551c-0.074-0.195-0.151-0.411-0.233-0.625c-0.154-0.433-0.307-0.877-0.4-1.222
							C195.661,221.814,195.625,221.559,195.625,221.559z"/>
					</g>
				</g>
			</g>
			<g>
				<g>
					<path style="fill:#7ECDC7;" d="M170.117,149.193c-4.451-2.639-8.737-5.498-12.363-9.06c2.297-4.379,6.98-11.228,12.642-19.619
						c6.624-9.827,19.71-21.527,25.925-10.606c0,0,3.127,9.452-0.874,17.942c-2.085,4.437-10.658,18.671-15.259,25.646
						C176.727,152.517,173.386,151.136,170.117,149.193z"/>
				</g>
			</g>
			<g style="opacity:0.42;">
				<g>
					<path style="fill:#3DB3B6;" d="M196.322,109.908c-1.244-2.19-2.768-3.456-4.459-4.026c0.384,0.34,0.745,0.704,1.064,1.115
						c1.074,1.395,1.625,3.078,1.833,4.81c0.526,4.327-0.847,8.825-2.354,12.823c-1.927,5.108-4.462,9.978-7.175,14.706
						c-2.565,4.473-5.33,8.83-8.17,13.135c1.033,0.375,2.075,0.726,3.127,1.025c4.601-6.975,13.174-21.209,15.259-25.646
						C199.449,119.36,196.322,109.908,196.322,109.908z"/>
				</g>
			</g>
		</g>
		<g>
			<g>
				<g>
					<g>
						<g>
							<path style="fill:#C5D3CF;" d="M288.504,141.72c-0.491,1.34-1.97,2.028-3.31,1.54l-8.339-3.042
								c-1.338-0.488-2.031-1.968-1.54-3.31l19.699-54.016c0.488-1.34,1.97-2.031,3.308-1.543l8.34,3.042
								c1.34,0.488,2.028,1.97,1.54,3.308L288.504,141.72z"/>
							<path style="fill:#005EA6;" d="M299.267,81.694l-0.946-0.345c-1.337-0.488-2.82,0.203-3.308,1.543l-19.699,54.016
								c-0.491,1.343,0.203,2.823,1.54,3.31l0.945,0.345L299.267,81.694z"/>
							<path style="fill:#FFFFFF;" d="M303.139,93.007l0.422-0.008c0,0-0.003-0.003,0-0.006l0,0c0,0-0.099-0.332-0.14-0.354
								c-0.036-0.019-1.178-0.43-1.71-0.625c-0.003-0.011-0.003-0.022-0.006-0.036c-0.03-0.238-0.068-0.493-0.107-0.762
								c-0.005-0.025-0.008-0.049-0.011-0.071c-0.019-0.132-0.041-0.266-0.06-0.403c-0.005-0.019-0.008-0.041-0.011-0.06
								c-0.019-0.132-0.041-0.261-0.063-0.395c0-0.011-0.003-0.019-0.003-0.03l0,0c-0.082-0.513-0.17-1.036-0.255-1.537l0.576,0.008
								v0.003c0.003,0.006,0.005,0.011,0.005,0.016c0.003,0.003,0.003,0.006,0.003,0.011c0.003-0.003,0.003-0.003,0.003-0.003
								c0.008,0.022,0.017,0.044,0.025,0.058c0,0,0.008,0,0.014,0.003l-0.003-0.003c0.014,0.003,0.027,0,0.038-0.008v0.003
								c0.003-0.003,0.006-0.003,0.008-0.008c0-0.014,0-0.03-0.003-0.044h0.003c0-0.005-0.003-0.011-0.003-0.016
								c0-0.003,0-0.008,0-0.011l0.553,0.008l0,0c0.003,0.003,0.003,0.011,0.005,0.014c0,0.005,0.003,0.008,0.003,0.011l0,0
								c0.011,0.019,0.019,0.041,0.025,0.055c0.006,0.003,0.008,0.003,0.008,0.003l0.003-0.003c0.016,0.003,0.03,0,0.038-0.008
								v0.006c0.003-0.003,0.008-0.006,0.008-0.011c0.003-0.014,0-0.028,0-0.044c0.003,0,0.003,0,0.003,0
								c-0.003-0.003-0.003-0.008-0.003-0.014c-0.003-0.003,0-0.006,0-0.008l0.433,0.005h0.12c0,0,0.003,0.008,0.003,0.011
								c0.003,0.003,0.003,0.008,0.006,0.014c0-0.003,0-0.003,0-0.003c0.008,0.019,0.016,0.041,0.025,0.055l0.014,0.003h-0.003
								c0.014,0.003,0.027,0,0.038-0.011l-0.003,0.003c0,0,0.008-0.003,0.011-0.006c0-0.014,0-0.03,0-0.047l0,0
								c0-0.006,0-0.011-0.003-0.017l0.556,0.006c0,0,0,0.003,0,0.005c0,0,0.003,0.008,0.005,0.011c0,0.006,0,0.008,0.003,0.011
								h0.003c0.005,0.022,0.017,0.041,0.022,0.055l0.014,0.003l0,0c0.014,0.003,0.025,0,0.036-0.008v0.003
								c0.005-0.003,0.008-0.006,0.011-0.011c0-0.011-0.003-0.028-0.003-0.041c0-0.003,0-0.003,0-0.003c0-0.005,0-0.016,0-0.022l0,0
								l0.567,0.005l0,0l0,0c0,0,0.019-0.107-0.022-0.156c0,0-0.008-0.005-0.014-0.008l-0.011-0.005
								c-0.006-0.003-0.011-0.006-0.022-0.011c0,0-0.005-0.003-0.011-0.005c-0.011-0.006-0.025-0.014-0.038-0.019
								c-0.005-0.003-0.008-0.003-0.011-0.005c-0.041-0.019-0.09-0.041-0.148-0.068c-0.006-0.003-0.011-0.003-0.017-0.006
								c-0.027-0.014-0.055-0.025-0.088-0.038c-0.003-0.003-0.003-0.003-0.003-0.003c-0.014-0.008-0.022-0.011-0.033-0.016
								l-0.003-0.003l0.003,0.003c-0.417-0.184-1.096-0.482-1.732-0.759c-0.011-0.06-0.028-0.131-0.052-0.205h0.003h-0.003
								c-0.016-0.058-0.038-0.115-0.063-0.167l-0.008-0.003c0,0-0.003,0-0.005,0l0,0c-0.003-0.003-0.003-0.003-0.005,0
								c-0.003-0.003-0.008-0.003-0.011,0c-0.008-0.003-0.014-0.003-0.014-0.003h-0.005l0,0l0,0
								c-0.008-0.003-0.019-0.003-0.019-0.003c-0.069,0-0.156,0.006-0.247,0.036l0,0c-0.014,0.006-0.027,0.011-0.044,0.017
								c-0.005,0.003-0.008,0.003-0.014,0.005l0,0c0,0-0.003-0.003-0.003,0c-0.003,0.003-0.008,0.003-0.011,0.006
								c-0.025,0.011-0.052,0.025-0.077,0.041c0,0,0,0.014,0.003,0.027c-0.159-0.068-0.307-0.132-0.438-0.189
								c-0.016-0.008-0.033-0.014-0.049-0.022l0,0c-0.09-0.038-0.167-0.074-0.238-0.104c-0.019-0.11-0.038-0.214-0.057-0.313l0,0
								c-0.041-0.228-0.077-0.422-0.107-0.578c-0.003-0.016-0.006-0.03-0.008-0.044c-0.005-0.025-0.011-0.049-0.014-0.069
								c-0.003-0.016-0.005-0.033-0.008-0.046c-0.005-0.022-0.011-0.038-0.011-0.055c-0.003-0.014-0.006-0.025-0.008-0.036
								c-0.005-0.027-0.008-0.049-0.014-0.068c-0.164-0.77-0.526-1.343-0.806-1.283c-0.282,0.06-0.378,0.732-0.211,1.502
								c0.003,0.017,0.008,0.041,0.014,0.066c0.003,0.014,0.005,0.027,0.011,0.044c0.003,0.014,0.005,0.025,0.008,0.041
								c0.005,0.019,0.008,0.038,0.014,0.06c0.003,0.011,0.005,0.022,0.008,0.036c0.016,0.074,0.038,0.153,0.058,0.247
								c0.008,0.038,0.019,0.074,0.03,0.112c0,0.008,0,0.016,0.003,0.022c0.022,0.082,0.041,0.167,0.063,0.26l0,0
								c0.025,0.099,0.052,0.2,0.079,0.313c-0.049,0.055-0.107,0.115-0.17,0.183l0,0c-0.104,0.115-0.225,0.25-0.356,0.395
								c-0.005-0.016-0.008-0.025-0.008-0.025c-0.033-0.005-0.063-0.005-0.09-0.008h-0.011h-0.003l0,0c0,0-0.011,0-0.016,0.003
								c-0.014-0.003-0.03,0-0.047,0l0,0c-0.091,0.011-0.164,0.039-0.219,0.063c-0.014,0.006-0.025,0.011-0.033,0.017l0,0
								c-0.003,0-0.003,0-0.003,0l0,0c-0.005,0.003-0.008,0.005-0.014,0.008c-0.006,0.003-0.008,0.006-0.014,0.008l0,0h-0.003
								c-0.003,0.003-0.003,0.003-0.005,0.005c-0.003,0.003-0.005,0.003-0.005,0.003c-0.003,0.06,0.003,0.121,0.008,0.178l0,0l0,0
								c0.011,0.079,0.025,0.151,0.038,0.211c-0.236,0.26-0.482,0.529-0.704,0.775c-0.011,0.011-0.022,0.025-0.033,0.039
								c-0.03,0.03-0.06,0.063-0.09,0.098c-0.025,0.025-0.047,0.052-0.071,0.08c-0.014,0.011-0.022,0.025-0.033,0.036
								c-0.025,0.027-0.047,0.052-0.071,0.079c-0.008,0.008-0.017,0.017-0.025,0.027c-0.03,0.033-0.057,0.066-0.088,0.096
								c0,0.003-0.003,0.003-0.003,0.005c-0.052,0.06-0.104,0.115-0.151,0.167c0-0.003,0-0.005,0-0.005s0,0.003,0,0.005
								c-0.008,0.008-0.014,0.016-0.022,0.025c0,0.003-0.003,0.003-0.005,0.006c-0.022,0.027-0.046,0.052-0.066,0.074
								c-0.003,0.003-0.003,0.006-0.005,0.008c-0.044,0.049-0.082,0.09-0.11,0.126c-0.003,0-0.003,0.003-0.003,0.003
								c-0.014,0.016-0.025,0.027-0.033,0.038c-0.003,0.003-0.005,0.006-0.008,0.008c-0.006,0.008-0.011,0.016-0.016,0.022
								c-0.003,0.003-0.003,0.005-0.003,0.005c-0.008,0.006-0.011,0.011-0.011,0.014c-0.016,0.047,0.014,0.109,0.033,0.14
								c0.005,0.008,0.011,0.014,0.011,0.014l0.513-0.238h0.003c0.003,0.006,0.005,0.016,0.005,0.022c0,0,0.003,0,0.003-0.003
								c0.005,0.016,0.011,0.033,0.016,0.044c0,0,0.008,0.003,0.011,0.003v-0.003c0.014,0.003,0.027,0,0.038-0.005l0,0
								c0.003-0.003,0.005-0.003,0.011-0.008c0-0.017,0-0.038-0.003-0.06l0,0v-0.006c0-0.008,0-0.016-0.003-0.022l0.504-0.233
								c0,0.003,0.003,0.011,0.005,0.017v-0.003c0.008,0.016,0.014,0.033,0.019,0.044l0.011,0.003v-0.003
								c0.011,0.003,0.025,0,0.036-0.008l0.003,0.003c0.003-0.003,0.005-0.003,0.008-0.008c0-0.014,0-0.036-0.003-0.06
								c0.003,0,0.003,0.003,0.003,0.003c0-0.003,0-0.008,0-0.008c0-0.008-0.003-0.011-0.003-0.016l0.343-0.159l0.162-0.074
								c0.003,0.005,0.005,0.014,0.005,0.019c0.003,0.003,0.003,0,0.003,0c0.005,0.016,0.011,0.03,0.016,0.041
								c0.006,0.003,0.008,0.006,0.008,0.006l0.003-0.003c0.014,0.003,0.027,0,0.038-0.008v0.003
								c0.003-0.003,0.005-0.003,0.008-0.008c0.003-0.017,0.003-0.038,0-0.06l0,0c0.003-0.003,0-0.005,0-0.008
								c0-0.006,0-0.014,0-0.019l0.501-0.233c0,0.003,0,0.003,0,0.005c0.003,0.006,0.008,0.014,0.008,0.019l0,0
								c0.008,0.014,0.014,0.03,0.019,0.041c0.003,0.003,0.008,0.005,0.011,0.005l-0.003-0.003c0.016,0.003,0.027,0,0.041-0.008
								l-0.003,0.003c0.006-0.003,0.008-0.006,0.011-0.011c0.003-0.013,0-0.036,0-0.057l0,0c0-0.003,0-0.005,0-0.008
								c0-0.008-0.003-0.017-0.003-0.025l0.515-0.238c0.131,0.504,0.268,1.033,0.408,1.546l0,0c0.005,0.016,0.008,0.033,0.014,0.052
								c0.03,0.118,0.063,0.23,0.093,0.345c0.005,0.019,0.011,0.041,0.016,0.063c0.036,0.121,0.069,0.241,0.101,0.359
								c0.011,0.036,0.022,0.074,0.033,0.112c0.033,0.118,0.063,0.233,0.099,0.348c0.003,0.011,0.008,0.027,0.011,0.038
								c0.033,0.112,0.063,0.219,0.096,0.323c0.003,0.011,0.005,0.022,0.008,0.033c-0.036,0.036-0.077,0.074-0.12,0.118
								c-0.008,0.005-0.014,0.011-0.022,0.019l0,0c-0.247,0.241-0.578,0.562-0.822,0.8c-0.011,0.008-0.022,0.019-0.03,0.025
								c-0.022,0.025-0.044,0.044-0.066,0.066c-0.008,0.008-0.017,0.016-0.025,0.025c-0.047,0.044-0.085,0.082-0.118,0.115
								c-0.003,0.003-0.008,0.006-0.011,0.011c-0.016,0.014-0.03,0.03-0.041,0.041h-0.003c-0.011,0.014-0.022,0.022-0.027,0.03
								c-0.003,0.003-0.003,0.003-0.003,0.003c-0.011,0.008-0.014,0.014-0.014,0.016c-0.022,0.025-0.008,0.189,0.005,0.293l0,0
								c0.006,0.049,0.011,0.085,0.011,0.085l0.387-0.164l0.003,0.003l1.195-0.513l0.014-0.003c0.003,0.014,0.008,0.025,0.014,0.038
								c0.005,0.019,0.011,0.038,0.019,0.055c0.014,0.044,0.03,0.082,0.044,0.118c0.036,0,0.074-0.003,0.109-0.011
								c0.036-0.008,0.069-0.019,0.102-0.036c0-0.022-0.003-0.049-0.003-0.074c0-0.003,0-0.003,0-0.003
								c-0.003-0.014-0.003-0.027-0.003-0.041c0-0.003,0-0.006,0-0.008c-0.003-0.011-0.003-0.025-0.003-0.036
								c0-0.003,0-0.005,0-0.008l-0.003-0.003c0-0.016-0.003-0.033-0.003-0.052L303.139,93.007L303.139,93.007z"/>
							<g>
								<polygon style="fill:#FFFFFF;" points="293.824,91.615 293.213,91.393 296.479,82.437 297.093,82.659 								"/>
								<g>
									
										<rect x="294.555" y="86.996" transform="matrix(0.3439 -0.939 0.939 0.3439 112.2649 335.3171)" style="fill:#FFFFFF;" width="3.06" height="0.652"/>
									
										<rect x="293.424" y="90.098" transform="matrix(0.3413 -0.94 0.94 0.3413 109.2935 336.8053)" style="fill:#FFFFFF;" width="3.06" height="0.65"/>
									
										<rect x="295.657" y="83.976" transform="matrix(0.3451 -0.9386 0.9386 0.3451 115.5042 334.1376)" style="fill:#FFFFFF;" width="3.061" height="0.651"/>
								</g>
							</g>
							<g>
								<g>
									<polygon style="fill:#FFFFFF;" points="276.712,138.546 276.405,138.437 279.672,129.478 279.979,129.59 									"/>
									<g>
										<polygon style="fill:#FFFFFF;" points="278.293,135.633 277.989,135.521 279.036,132.649 279.343,132.758 										"/>
										<polygon style="fill:#FFFFFF;" points="277.164,138.735 276.86,138.623 277.907,135.748 278.211,135.861 										"/>
										<polygon style="fill:#FFFFFF;" points="279.395,132.613 279.091,132.501 280.138,129.626 280.444,129.738 										"/>
									</g>
								</g>
								<g>
									<polygon style="fill:#FFFFFF;" points="280.091,129.283 279.784,129.174 283.051,120.215 283.355,120.327 									"/>
									<g>
										
											<rect x="280.514" y="124.715" transform="matrix(0.3439 -0.939 0.939 0.3439 67.787 346.7712)" style="fill:#FFFFFF;" width="3.059" height="0.325"/>
										
											<rect x="279.384" y="127.815" transform="matrix(0.3467 -0.938 0.938 0.3467 63.4824 347.0989)" style="fill:#FFFFFF;" width="3.057" height="0.325"/>
										
											<rect x="281.615" y="121.694" transform="matrix(0.3435 -0.9391 0.9391 0.3435 71.4343 345.9069)" style="fill:#FFFFFF;" width="3.06" height="0.326"/>
									</g>
								</g>
							</g>
							<g>
								<path style="fill:#DDDFE0;" d="M305.833,84.742l-1.4-0.513c1.189,0.433,1.768,1.847,1.294,3.154l-19.239,52.755
									c-0.477,1.307-1.828,2.014-3.02,1.578l1.403,0.512c1.192,0.436,2.543-0.274,3.02-1.581l19.239-52.752
									C307.606,86.586,307.025,85.175,305.833,84.742z"/>
							</g>
						</g>
						<g>
							<g>
								
									<rect x="274.471" y="131.15" transform="matrix(0.3421 -0.9397 0.9397 0.3421 63.1464 353.1264)" style="fill:#ADAEB1;" width="18.588" height="0.633"/>
								<g>
									
										<rect x="281.706" y="131.397" transform="matrix(0.3444 -0.9388 0.9388 0.3444 62.9807 353.6215)" style="fill:#ADAEB1;" width="5.965" height="0.638"/>
									<polygon style="fill:#ADAEB1;" points="281.763,140.673 281.165,140.454 283.207,134.849 283.804,135.068 									"/>
									<polygon style="fill:#ADAEB1;" points="286.115,128.738 285.517,128.519 287.559,122.914 288.156,123.133 									"/>
								</g>
							</g>
							<g>
								
									<rect x="281.055" y="113.088" transform="matrix(0.342 -0.9397 0.9397 0.342 84.4754 347.4547)" style="fill:#ADAEB1;" width="18.59" height="0.633"/>
								<g>
									<polygon style="fill:#ADAEB1;" points="290.552,116.564 289.954,116.348 291.999,110.744 292.596,110.963 									"/>
									<polygon style="fill:#ADAEB1;" points="288.348,122.61 287.751,122.391 289.793,116.786 290.39,117.006 									"/>
									<polygon style="fill:#ADAEB1;" points="292.7,110.675 292.103,110.456 294.145,104.854 294.745,105.071 									"/>
								</g>
							</g>
						</g>
					</g>
					<g>
						<g>
							<path style="fill:#E4F2EC;" d="M290.831,139.615c-0.26,1.406-1.606,2.329-3.009,2.072l-8.728-1.614
								c-1.4-0.26-2.329-1.606-2.069-3.009l10.452-56.54c0.258-1.401,1.603-2.327,3.006-2.069l8.729,1.614
								c1.403,0.26,2.329,1.606,2.069,3.007L290.831,139.615z"/>
							<path style="fill:#005EA6;" d="M291.473,78.638l-0.989-0.184c-1.403-0.257-2.749,0.669-3.006,2.069l-10.452,56.54
								c-0.26,1.403,0.669,2.749,2.069,3.009l0.989,0.184L291.473,78.638z"/>
							<path style="fill:#FFFFFF;" d="M297.17,89.151l0.414-0.079c0,0,0,0,0-0.006l0,0c0,0-0.151-0.31-0.197-0.323
								c-0.036-0.014-1.23-0.23-1.787-0.331c-0.005-0.011-0.008-0.025-0.011-0.036c-0.074-0.23-0.151-0.477-0.236-0.732
								c-0.008-0.025-0.014-0.049-0.022-0.071c-0.041-0.126-0.082-0.255-0.126-0.386c-0.008-0.019-0.014-0.038-0.022-0.058
								c-0.038-0.126-0.082-0.252-0.126-0.378c-0.003-0.011-0.005-0.019-0.008-0.03l0,0c-0.164-0.491-0.34-0.995-0.504-1.475
								l0.567-0.088c0,0,0,0.003,0,0.005c0.005,0.006,0.005,0.008,0.008,0.014c0.003,0.003,0.003,0.006,0.006,0.011
								c0-0.003,0-0.003,0-0.003c0.014,0.019,0.025,0.038,0.036,0.052c0,0,0.005,0,0.011,0l0,0c0.014-0.003,0.027-0.005,0.033-0.016
								l0.003,0.003c0.003-0.003,0.005-0.005,0.008-0.008c-0.003-0.014-0.005-0.03-0.011-0.047h0.003
								c0-0.003-0.003-0.008-0.005-0.014c0-0.003,0-0.008-0.003-0.011l0.548-0.085l0,0c0.003,0.006,0.005,0.011,0.008,0.014
								c0,0.003,0.003,0.008,0.005,0.011l0,0c0.011,0.016,0.022,0.035,0.033,0.049h0.011l0,0c0.014,0,0.027-0.006,0.036-0.016
								l0.003,0.006c0-0.006,0.003-0.008,0.005-0.011c0-0.014-0.005-0.03-0.008-0.044l0,0c0-0.006-0.003-0.011-0.003-0.014
								c-0.003-0.003,0-0.005-0.003-0.008l0.43-0.068l0.118-0.016c0,0,0.003,0.006,0.005,0.008c0.003,0.003,0.003,0.008,0.005,0.011
								h0.003c0.011,0.019,0.022,0.038,0.033,0.049c0.003,0,0.008,0.003,0.008,0.003v-0.003c0.017,0,0.027-0.005,0.038-0.014l0,0
								c0,0,0.006-0.005,0.006-0.008c0-0.011-0.006-0.03-0.006-0.047l0,0c0-0.003-0.003-0.008-0.005-0.017l0.548-0.085
								c0,0.003,0,0.003,0.003,0.003c0.003,0.006,0.003,0.011,0.005,0.014c0.003,0.003,0.003,0.008,0.005,0.011h0.003
								c0.011,0.017,0.022,0.038,0.033,0.049c0,0,0.008,0,0.011,0.003v-0.003c0.014,0,0.025-0.005,0.036-0.014l0,0
								c0.003-0.003,0.005-0.005,0.008-0.008c-0.003-0.014-0.008-0.03-0.011-0.044h0.003c-0.003-0.008-0.005-0.016-0.008-0.025l0,0
								l0.565-0.085l0,0l0,0c0,0,0.003-0.11-0.052-0.154c0,0-0.005-0.003-0.014-0.006c0,0-0.005,0-0.008-0.003
								c-0.005-0.003-0.014-0.006-0.025-0.008c0,0-0.008,0-0.011-0.003c-0.014-0.003-0.027-0.008-0.044-0.011
								c-0.003-0.003-0.008-0.003-0.011-0.006c-0.041-0.011-0.093-0.025-0.156-0.041c-0.005-0.003-0.014-0.003-0.014-0.003
								c-0.033-0.008-0.063-0.016-0.096-0.025c-0.003-0.003-0.003-0.003-0.003-0.003c-0.014-0.003-0.025-0.005-0.036-0.008
								c0-0.003-0.003-0.005-0.003-0.005s0.003,0.003,0,0.005c-0.439-0.115-1.156-0.296-1.831-0.463
								c-0.022-0.058-0.049-0.126-0.085-0.192v-0.003l0,0c-0.027-0.052-0.057-0.107-0.093-0.153c0,0-0.003-0.003-0.005,0h-0.008l0,0
								h-0.003h-0.014c-0.008,0-0.011,0.003-0.019,0l0,0c0,0,0,0,0,0.003l0,0c-0.008,0-0.016,0.003-0.016,0.003
								c-0.069,0.011-0.154,0.03-0.238,0.074h-0.003c-0.011,0.005-0.025,0.014-0.038,0.022c-0.006,0.006-0.008,0.006-0.011,0.008
								l0,0c0,0-0.003,0-0.003,0.003c-0.005,0-0.008,0.003-0.011,0.006c-0.025,0.017-0.046,0.033-0.068,0.055
								c0,0,0.003,0.011,0.005,0.025c-0.167-0.041-0.323-0.079-0.463-0.112c-0.016-0.005-0.036-0.008-0.052-0.016v0.003
								c-0.096-0.024-0.178-0.044-0.252-0.063c-0.038-0.104-0.074-0.203-0.11-0.299l0,0c-0.077-0.219-0.145-0.403-0.2-0.551
								c-0.005-0.017-0.011-0.03-0.017-0.044c-0.008-0.025-0.016-0.044-0.025-0.066c-0.005-0.017-0.011-0.03-0.016-0.047
								c-0.008-0.016-0.014-0.033-0.019-0.049c-0.006-0.011-0.008-0.025-0.014-0.036c-0.008-0.022-0.016-0.044-0.025-0.063
								c-0.291-0.732-0.743-1.236-1.009-1.132c-0.268,0.107-0.249,0.787,0.041,1.516c0.005,0.019,0.016,0.041,0.025,0.063
								c0.005,0.014,0.011,0.027,0.016,0.044c0.005,0.011,0.011,0.022,0.016,0.038c0.008,0.017,0.016,0.036,0.025,0.055
								c0.003,0.014,0.008,0.024,0.014,0.036c0.027,0.068,0.063,0.145,0.099,0.233c0.014,0.036,0.03,0.071,0.047,0.107
								c0.003,0.006,0.005,0.014,0.008,0.019c0.033,0.077,0.066,0.156,0.104,0.247l0,0c0.041,0.093,0.085,0.192,0.129,0.296
								c-0.038,0.063-0.082,0.132-0.134,0.208l0,0c-0.085,0.131-0.181,0.285-0.288,0.447c-0.008-0.014-0.014-0.022-0.014-0.022
								c-0.03,0-0.06,0.006-0.088,0.008l-0.011,0.003c-0.003,0-0.003,0-0.003,0l0,0c0,0-0.011,0.003-0.017,0.003
								c-0.014,0.003-0.03,0.006-0.044,0.011l0,0c-0.088,0.025-0.159,0.063-0.205,0.096c-0.014,0.008-0.025,0.017-0.03,0.022l0,0
								c-0.003,0.003-0.003,0.003-0.003,0.003l0,0c-0.005,0.003-0.008,0.005-0.014,0.008c-0.005,0.006-0.008,0.008-0.011,0.011
								l-0.003,0.003c0-0.003,0,0,0,0l-0.005,0.003c-0.003,0.003-0.005,0.006-0.005,0.006c0.008,0.06,0.022,0.118,0.038,0.175l0,0
								l0,0c0.022,0.074,0.049,0.145,0.074,0.2c-0.192,0.299-0.386,0.603-0.567,0.882c-0.008,0.014-0.016,0.027-0.025,0.041
								c-0.025,0.038-0.049,0.074-0.074,0.112c-0.019,0.033-0.038,0.06-0.057,0.093c-0.011,0.014-0.016,0.027-0.025,0.038
								c-0.022,0.033-0.038,0.06-0.058,0.09c-0.008,0.011-0.014,0.019-0.022,0.033c-0.022,0.038-0.047,0.071-0.069,0.11
								l-0.003,0.003c-0.044,0.068-0.082,0.131-0.121,0.192c0-0.003-0.003-0.005-0.003-0.005s0.003,0.003,0.003,0.005
								c-0.005,0.008-0.011,0.019-0.016,0.027c-0.003,0.003-0.003,0.003-0.005,0.008c-0.019,0.027-0.036,0.058-0.055,0.085
								c0,0,0,0.003-0.003,0.005c-0.033,0.058-0.063,0.104-0.088,0.143c0,0.003-0.003,0.005-0.003,0.005
								c-0.008,0.016-0.019,0.03-0.022,0.041c-0.005,0.006-0.005,0.008-0.008,0.011c-0.006,0.008-0.008,0.019-0.014,0.022
								c0,0.003-0.003,0.008-0.003,0.008c-0.005,0.006-0.008,0.014-0.008,0.014c-0.005,0.052,0.033,0.11,0.055,0.134
								c0.008,0.006,0.014,0.011,0.014,0.011l0.469-0.323l0.003,0.003c0,0.005,0.005,0.014,0.008,0.019l0,0
								c0.008,0.014,0.019,0.027,0.025,0.038c0,0,0.008,0.003,0.014,0h-0.003c0.014,0,0.025-0.006,0.036-0.014l0,0
								c0.003-0.003,0.006-0.005,0.011-0.008c-0.003-0.016-0.008-0.038-0.011-0.058l0,0c0-0.006-0.003-0.008-0.003-0.008
								c0-0.005-0.003-0.014-0.005-0.022l0.457-0.313c0.003,0.003,0.005,0.011,0.008,0.014h0.003
								c0.008,0.014,0.016,0.027,0.022,0.036c0.005,0.003,0.008,0.006,0.011,0.003l0,0c0.014,0,0.025-0.006,0.036-0.014l0,0
								c0.003-0.003,0.005-0.003,0.008-0.008c0-0.017-0.005-0.038-0.011-0.06h0.003c0,0-0.003-0.003-0.003-0.006
								c0-0.008-0.003-0.011-0.003-0.016l0.307-0.211l0.151-0.102c0.003,0.006,0.008,0.014,0.011,0.019l0,0
								c0.008,0.011,0.014,0.028,0.022,0.036c0.005,0.003,0.011,0.003,0.011,0.003v-0.003c0.014,0.003,0.027-0.003,0.036-0.014
								l0.003,0.003c0.003-0.003,0.005-0.006,0.005-0.008c0-0.016-0.003-0.038-0.008-0.06l0,0c0-0.003,0-0.003-0.003-0.008
								c0-0.005-0.003-0.011-0.003-0.019l0.455-0.312c0,0,0,0.003,0.003,0.006c0.003,0.006,0.008,0.014,0.011,0.019l0,0
								c0.008,0.011,0.016,0.027,0.025,0.036c0.003,0.003,0.008,0.003,0.008,0.003v-0.003c0.016,0,0.027-0.003,0.038-0.014v0.003
								c0.003-0.003,0.005-0.005,0.005-0.011c0.003-0.016-0.003-0.036-0.008-0.058c0,0,0,0,0.003,0l-0.003-0.008
								c-0.003-0.008-0.005-0.016-0.005-0.024l0.466-0.321c0.214,0.477,0.439,0.973,0.66,1.455l0,0
								c0.008,0.016,0.016,0.033,0.022,0.049c0.049,0.11,0.102,0.219,0.148,0.326c0.011,0.019,0.019,0.038,0.027,0.058
								c0.055,0.115,0.107,0.227,0.159,0.34c0.019,0.036,0.036,0.071,0.052,0.104c0.052,0.112,0.104,0.222,0.154,0.326
								c0.008,0.014,0.014,0.025,0.019,0.038c0.049,0.104,0.099,0.205,0.148,0.304c0.005,0.008,0.008,0.019,0.014,0.03
								c-0.03,0.041-0.063,0.085-0.099,0.134c-0.008,0.008-0.011,0.014-0.017,0.022l0,0c-0.206,0.28-0.48,0.649-0.682,0.926
								c-0.008,0.008-0.016,0.019-0.022,0.03c-0.022,0.027-0.036,0.052-0.055,0.074c-0.005,0.011-0.014,0.019-0.022,0.03
								c-0.036,0.049-0.068,0.096-0.096,0.134c-0.003,0.003-0.005,0.005-0.008,0.008c-0.014,0.019-0.025,0.036-0.036,0.049
								l-0.003,0.003c-0.008,0.014-0.016,0.024-0.022,0.033c0,0.003-0.003,0.003-0.003,0.005c-0.008,0.005-0.011,0.014-0.011,0.016
								c-0.016,0.028,0.027,0.186,0.055,0.288l0,0c0.014,0.049,0.025,0.085,0.025,0.085l0.356-0.23v0.003l1.096-0.701l0.011-0.008
								c0.005,0.014,0.011,0.025,0.019,0.038c0.011,0.017,0.019,0.033,0.03,0.052c0.022,0.038,0.044,0.074,0.063,0.107
								c0.036-0.005,0.069-0.014,0.104-0.03c0.035-0.011,0.066-0.03,0.096-0.049c-0.003-0.025-0.011-0.049-0.016-0.074
								c0-0.003,0-0.003,0-0.003c-0.003-0.014-0.005-0.027-0.008-0.041c-0.003-0.003-0.003-0.003-0.003-0.008
								c-0.003-0.011-0.005-0.022-0.008-0.036c0,0-0.003-0.003-0.003-0.005c0,0,0-0.003,0-0.006
								c-0.003-0.014-0.008-0.03-0.011-0.049L297.17,89.151L297.17,89.151z"/>
							<g>
								<polygon style="fill:#FFFFFF;" points="287.754,89.326 287.112,89.209 288.847,79.833 289.488,79.951 								"/>
								<g>
									<polygon style="fill:#FFFFFF;" points="289.313,86.279 288.672,86.161 289.228,83.155 289.869,83.272 									"/>
									<polygon style="fill:#FFFFFF;" points="288.713,89.527 288.072,89.406 288.628,86.4 289.269,86.517 									"/>
									
										<rect x="288.326" y="81.23" transform="matrix(0.1858 -0.9826 0.9826 0.1858 155.8723 351.214)" style="fill:#FFFFFF;" width="3.059" height="0.649"/>
								</g>
							</g>
							<g>
								<g>
									<polygon style="fill:#FFFFFF;" points="278.674,138.448 278.354,138.387 280.088,129.012 280.409,129.072 									"/>
									<g>
										<polygon style="fill:#FFFFFF;" points="279.751,135.312 279.431,135.252 279.987,132.246 280.307,132.303 										"/>
										<polygon style="fill:#FFFFFF;" points="279.151,138.557 278.831,138.5 279.387,135.491 279.707,135.548 										"/>
										<polygon style="fill:#FFFFFF;" points="280.335,132.15 280.017,132.092 280.57,129.083 280.891,129.141 										"/>
									</g>
								</g>
								<g>
									<polygon style="fill:#FFFFFF;" points="280.467,128.752 280.146,128.691 281.881,119.316 282.201,119.376 									"/>
									<g>
										<polygon style="fill:#FFFFFF;" points="281.544,125.616 281.223,125.556 281.779,122.547 282.1,122.607 										"/>
										<polygon style="fill:#FFFFFF;" points="280.944,128.861 280.623,128.801 281.179,125.795 281.5,125.852 										"/>
										<polygon style="fill:#FFFFFF;" points="282.127,122.454 281.809,122.394 282.363,119.387 282.684,119.445 										"/>
									</g>
								</g>
							</g>
							<g>
								<path style="fill:#DDDFE0;" d="M298.455,80.551l-1.469-0.271c1.247,0.23,2.053,1.527,1.8,2.897l-10.208,55.216
									c-0.252,1.367-1.469,2.291-2.716,2.061l1.469,0.271c1.25,0.23,2.464-0.693,2.716-2.061l10.208-55.216
									C300.508,82.078,299.702,80.782,298.455,80.551z"/>
							</g>
						</g>
						<g>
							<g>
								
									<rect x="275.16" y="129.978" transform="matrix(0.1818 -0.9833 0.9833 0.1818 104.6227 386.3247)" style="fill:#ADAEB1;" width="18.589" height="0.633"/>
								<g>
									
										<rect x="282.423" y="130.067" transform="matrix(0.1846 -0.9828 0.9828 0.1846 104.5748 386.817)" style="fill:#ADAEB1;" width="5.965" height="0.637"/>
									
										<rect x="281.255" y="136.394" transform="matrix(0.1811 -0.9835 0.9835 0.1811 98.3056 391.4883)" style="fill:#ADAEB1;" width="5.964" height="0.637"/>
									
										<rect x="283.562" y="123.904" transform="matrix(0.1851 -0.9827 0.9827 0.1851 111.4311 382.8229)" style="fill:#ADAEB1;" width="5.966" height="0.636"/>
								</g>
							</g>
							<g>
								
									<rect x="278.655" y="111.073" transform="matrix(0.1817 -0.9833 0.9833 0.1817 126.0799 374.2964)" style="fill:#ADAEB1;" width="18.586" height="0.633"/>
								<g>
									<polygon style="fill:#ADAEB1;" points="288.672,114.474 288.047,114.356 289.129,108.491 289.757,108.606 									"/>
									
										<rect x="284.749" y="117.49" transform="matrix(0.181 -0.9835 0.9835 0.181 119.7914 379.4656)" style="fill:#ADAEB1;" width="5.964" height="0.637"/>
									
										<rect x="287.059" y="105" transform="matrix(0.1812 -0.9835 0.9835 0.1812 133.9193 371.4778)" style="fill:#ADAEB1;" width="5.964" height="0.635"/>
								</g>
							</g>
						</g>
					</g>
				</g>
				<path style="fill:#BEC0C1;" d="M275.536,136.299l15.243,3.508c0.016-0.063,0.038-0.123,0.052-0.192l1.603-8.674l13.064-35.827
					l-19.872-4.577l-6.786,36.698L275.536,136.299z"/>
				<g>
					<g>
						<path style="fill:#931E31;" d="M299.85,141.111c0.54-0.049,1.261-0.205,1.477-1.148l9.422-40.924
							c0.162-0.819-0.137-1.529-0.721-1.836c-0.233-0.121-0.386-0.184-0.652-0.266l-30.36-6.991l-10.154,44.1l30.42,7.005
							C299.48,141.095,299.746,141.12,299.85,141.111z"/>
						<g>
							<path style="fill:#931E31;" d="M272.464,131.692l8.83-38.354c0.685-2.349,6.407-1.37,6.407-1.37l-0.011-0.027l-8.674-1.995
								l-10.154,44.1l8.219,1.891c-0.238-0.093-0.504-0.178-0.809-0.252C271.864,134.603,272.464,131.692,272.464,131.692z"/>
						</g>
					</g>
					<g>
						<path style="fill:#FFFFFF;" d="M282.344,107.121l-0.307,1.338l-0.23-0.052l0.743-3.228l0.904,0.208
							c0.65,0.151,0.929,0.518,0.778,1.173c-0.154,0.66-0.564,0.866-1.214,0.715L282.344,107.121z M282.733,105.438l-0.34,1.474
							l0.674,0.156c0.504,0.118,0.806-0.008,0.935-0.562c0.129-0.559-0.09-0.797-0.595-0.915L282.733,105.438z"/>
						<path style="fill:#FFFFFF;" d="M286.09,108.395l-1.42-0.326l-0.565,0.866l-0.241-0.055l1.924-2.957l0.23,0.052l0.439,3.5
							l-0.241-0.055L286.09,108.395z M284.791,107.877l1.269,0.293l-0.233-1.88L284.791,107.877z"/>
						<path style="fill:#FFFFFF;" d="M287.934,109.864c-0.406-0.093-0.745-0.307-0.978-0.551l0.143-0.181
							c0.23,0.244,0.482,0.433,0.88,0.524c0.485,0.112,0.877,0.022,0.995-0.485c0.247-1.069-1.715-0.726-1.409-2.058
							c0.123-0.54,0.614-0.688,1.154-0.565c0.4,0.093,0.702,0.28,0.924,0.48l-0.129,0.181c-0.192-0.175-0.466-0.364-0.844-0.452
							c-0.414-0.096-0.784,0.019-0.874,0.411c-0.252,1.085,1.713,0.743,1.409,2.058C289.05,109.894,288.521,109.998,287.934,109.864
							z"/>
						<path style="fill:#FFFFFF;" d="M290.604,110.478c-0.405-0.093-0.745-0.307-0.981-0.548l0.145-0.184
							c0.23,0.244,0.482,0.433,0.88,0.523c0.482,0.112,0.877,0.025,0.992-0.482c0.247-1.072-1.715-0.726-1.409-2.061
							c0.126-0.537,0.617-0.688,1.157-0.562c0.4,0.09,0.701,0.277,0.923,0.48l-0.129,0.178c-0.194-0.175-0.466-0.364-0.844-0.452
							c-0.417-0.096-0.787,0.019-0.877,0.411c-0.249,1.088,1.713,0.743,1.411,2.058
							C291.719,110.508,291.188,110.615,290.604,110.478z"/>
						<path style="fill:#FFFFFF;" d="M292.955,109.563l-0.31,1.34l-0.23-0.055l0.743-3.228l0.904,0.208
							c0.65,0.151,0.929,0.521,0.778,1.176c-0.151,0.658-0.565,0.863-1.214,0.715L292.955,109.563z M293.341,107.88l-0.34,1.477
							l0.674,0.154c0.507,0.118,0.806-0.008,0.935-0.562c0.129-0.556-0.088-0.798-0.595-0.913L293.341,107.88z"/>
						<path style="fill:#FFFFFF;" d="M295.263,109.803c0.29-1.263,0.893-1.543,1.663-1.365c0.77,0.178,1.189,0.691,0.899,1.954
							c-0.29,1.263-0.894,1.543-1.663,1.365C295.391,111.582,294.972,111.067,295.263,109.803z M297.595,110.341
							c0.263-1.143-0.085-1.549-0.715-1.694c-0.633-0.148-1.124,0.066-1.387,1.209c-0.263,1.145,0.085,1.551,0.718,1.696
							C296.841,111.697,297.332,111.484,297.595,110.341z"/>
						<path style="fill:#FFFFFF;" d="M299.639,110.966l0.521,1.666l-0.269-0.063l-0.518-1.653l-0.641-0.148l-0.334,1.458
							l-0.23-0.055l0.743-3.228l0.948,0.219c0.622,0.145,0.88,0.529,0.748,1.104C300.489,110.782,300.155,111.026,299.639,110.966z
							 M299.094,109.206l-0.312,1.354l0.718,0.167c0.485,0.11,0.768-0.038,0.874-0.512c0.11-0.471-0.077-0.734-0.562-0.844
							L299.094,109.206z"/>
						<path style="fill:#FFFFFF;" d="M302.281,109.938l-0.696,3.023l-0.227-0.055l0.693-3.02l-0.921-0.211l0.047-0.208l2.077,0.477
							l-0.049,0.208L302.281,109.938z"/>
					</g>
				</g>
			</g>
			<path style="fill:#294568;" d="M304.457,95.95l4.36,1.003c0,0,1.913,0.375,1.776,1.924l-2.165,9.005l1.839-8.545
				c0,0-0.027-1.718-1.419-2.203C307.718,96.742,304.457,95.95,304.457,95.95z"/>
		</g>
		<path style="fill:#F1D6BC;" d="M267.32,110.138c-0.559,2.072-0.636,4.281-0.17,6.339c0.691,3.042,3.554,7.662,7.303,6.284
			c1.746-0.641,3.089-2.242,3.346-4.081c0.502-3.604-1.784-8.128,0.847-11.113c1.173-1.326,2.584-2.398,3.968-3.489
			c0.148-0.118,0.301-0.241,0.378-0.411c0.066-0.148,0.066-0.318,0.041-0.477c-0.425-2.859-4.988,0.466-6.048,1.151
			c-2.85,1.844-6.775,2.538-9.102,5.023C267.666,109.601,267.482,109.861,267.32,110.138z"/>
	</g>
</g>
</svg>
