<?xml version="1.0" encoding="utf-8"?>
<!-- Generator: Adobe Illustrator 27.5.0, SVG Export Plug-In . SVG Version: 6.00 Build 0)  -->
<svg version="1.1" id="Layer_1" xmlns="http://www.w3.org/2000/svg" xmlns:xlink="http://www.w3.org/1999/xlink" x="0px" y="0px"
	 viewBox="0 0 3435 2000" style="enable-background:new 0 0 3435 2000;" xml:space="preserve">
<rect y="0" style="fill:#9df6e5;" width="3435" height="2000"/>
<g>
	<path style="opacity:0.5;fill:#b2f3de;" d="M403.027,1754.446h2832.114c234.746-136.239,113.941-546.199-82.132-629.305
		c-211.058-89.458,124.086-398.84-201.038-499.259c-212.279-65.565-499.979,7.681-640.512-133.474
		c-165.112-165.843-439.397-367.703-950.236-210.842c-393.989,120.981-179.996,354.216-824.716,424.438
		c-331.521,36.109-267.459,345.048-236.547,408.889c26.924,55.604,205.044,143.8-42.504,265.256
		C-105.539,1558.245,394.47,1751.168,403.027,1754.446z"/>
	<path style="fill:#B8D6F9;" d="M1182.301,1296.496c0,0,290.161-367.574,462.731-366.393
		c172.57,1.181,360.557,242.109,606.14,447.875c275.211,230.59-84.146,240.267-104.887,242.166
		c-20.74,1.898-736.298-23.375-748.231-35.823c-11.934-12.448-202.992-171.876-202.992-171.876L1182.301,1296.496z"/>
	<g>
		
			<rect x="2671.135" y="1171.636" transform="matrix(-1 -1.224647e-16 1.224647e-16 -1 5354.5313 2479.1924)" style="fill:#355389;" width="12.262" height="135.921"/>
		<polygon style="fill:#3C8F7C;" points="2677.266,907.956 2717.291,1231.431 2637.239,1231.431 		"/>
		<polygon style="fill:#50BFA5;" points="2702.773,1114.108 2645.7,1163.051 2647.895,1145.316 2701.001,1099.776 		"/>
		<polygon style="fill:#50BFA5;" points="2694,1043.205 2659.051,1055.154 2660.694,1041.875 2692.49,1031.004 		"/>
	</g>
	<polygon style="fill:#3C8F7C;" points="1001.215,1068.238 1036.949,1357.027 965.481,1357.027 	"/>
	<polygon style="fill:#3C8F7C;" points="1064.164,1110.651 1091.379,1330.595 1036.949,1330.595 	"/>
	<polygon style="fill:#3C8F7C;" points="1118.595,1176.148 1145.81,1396.093 1091.379,1396.093 	"/>
	<polygon style="fill:#3C8F7C;" points="934.358,1132.729 970.092,1421.518 898.624,1421.518 	"/>
	<path style="fill:#86B1F2;" d="M1069.47,1222.547c309.972,51.576,775.079,515.083,1129.333,515.083s430.533-110.862,563.379-87.419
		c132.845,23.443,311.185,87.419,311.185,87.419l-2632.485,7.78C440.881,1745.41,759.498,1170.972,1069.47,1222.547z"/>
	<polygon style="fill:#3C8F7C;" points="2191.505,1087.458 2227.239,1376.247 2155.771,1376.247 	"/>
	<polygon style="fill:#3C8F7C;" points="2062.17,1289.885 2089.385,1509.828 2034.954,1509.828 	"/>
	<polygon style="fill:#3C8F7C;" points="2124.648,1151.948 2160.383,1440.737 2088.914,1440.737 	"/>
	<path style="fill:#4E9B87;" d="M3124.295,1421.089l0.489-25.422c0-18.854-14.389-34.137-32.137-34.137l0,0
		c-44.727,0-80.983,38.516-80.983,86.027v34.735c0,15.218-8.081,28.431-19.934,35.061c-10.763,6.021-17.345,18.054-17.345,30.977
		v18.313c0,19.826,8.76,38.334,23.315,50.743c8.513,7.258,13.963,18.403,13.963,30.9v25.93c0,28.666,21.876,51.904,48.861,51.904
		h15.396c26.985,0,48.862-23.238,48.862-51.904v-0.001c-4.43-36.209,6.306-57.105,18.69-69.051
		c18.21-17.563,28.871-42.265,28.871-68.394v-3.664c0-27.578-11.977-53.396-31.997-70.953
		C3131.51,1454.404,3124.295,1441.749,3124.295,1421.089z"/>
	<path style="fill:#86B1F2;" d="M2474.457,1222.547c-309.973,51.576-775.079,515.083-1129.333,515.083
		c-354.253,0-430.533-110.862-563.378-87.419S470.56,1737.63,470.56,1737.63l2632.485,7.78
		C3103.046,1745.41,2784.429,1170.972,2474.457,1222.547z"/>
	<path style="fill:#96D9C9;" d="M440.881,1745.41c0,0,339.85-295.21,778.055-313.345
		c147.148-6.089,749.681,116.001,1257.067,211.922c21.33,4.032,553.097,102.262,625.498,105.176L440.881,1745.41z"/>
	<path style="opacity:0.5;fill:#FFFFFF;" d="M1619.144,587.503c-5.161-22.464-25.263-39.223-49.293-39.223
		c-4.412,0-8.69,0.567-12.77,1.628c-11.86-25.362-37.598-42.936-67.445-42.936c-7.717,0-15.158,1.175-22.157,3.354
		c-16.067-26.606-45.259-44.397-78.608-44.397c-39.677,0-73.471,25.182-86.275,60.434c-9.064-5.053-19.499-7.943-30.613-7.943
		c-34.778,0-62.971,28.193-62.971,62.971c0,2.062,0.106,4.099,0.3,6.11H1619.144z"/>
	<path style="opacity:0.5;fill:#FFFFFF;" d="M2177.849,980.356c2.485-10.817,12.165-18.888,23.737-18.888
		c2.125,0,4.185,0.273,6.149,0.784c5.711-12.213,18.105-20.676,32.479-20.676c3.716,0,7.3,0.565,10.67,1.615
		c7.737-12.813,21.795-21.38,37.854-21.38c19.107,0,35.381,12.127,41.547,29.103c4.364-2.433,9.39-3.825,14.741-3.825
		c16.748,0,30.324,13.577,30.324,30.324c0,0.993-0.051,1.974-0.145,2.942H2177.849z"/>
	<path style="opacity:0.5;fill:#FFFFFF;" d="M1831.344,839.646c-3.054-13.294-14.95-23.212-29.171-23.212
		c-2.61,0-5.143,0.336-7.557,0.964c-7.019-15.009-22.251-25.409-39.914-25.409c-4.566,0-8.971,0.695-13.112,1.985
		c-9.509-15.746-26.785-26.274-46.521-26.274c-23.48,0-43.479,14.903-51.057,35.765c-5.364-2.991-11.539-4.701-18.116-4.701
		c-20.582,0-37.266,16.685-37.266,37.266c0,1.22,0.063,2.425,0.178,3.616H1831.344z"/>
	<path style="opacity:0.5;fill:#FFFFFF;" d="M2303.815,683.5c-4.125-17.953-20.19-31.347-39.396-31.347
		c-3.525,0-6.945,0.454-10.205,1.301c-9.479-20.27-30.05-34.315-53.904-34.315c-6.167,0-12.114,0.939-17.708,2.681
		c-12.841-21.264-36.172-35.483-62.825-35.483c-31.71,0-58.718,20.126-68.952,48.3c-7.243-4.039-15.583-6.348-24.466-6.348
		c-27.795,0-50.327,22.532-50.327,50.327c0,1.648,0.085,3.276,0.239,4.883H2303.815z"/>
	<path style="opacity:0.5;fill:#FFFFFF;" d="M982.466,902.771c2.056-8.95,10.065-15.626,19.638-15.626
		c1.757,0,3.462,0.226,5.087,0.649c4.725-10.104,14.979-17.106,26.87-17.106c3.074,0,6.039,0.468,8.828,1.336
		c6.401-10.6,18.031-17.688,31.317-17.688c15.807,0,29.271,10.032,34.372,24.077c3.611-2.013,7.768-3.165,12.196-3.165
		c13.856,0,25.088,11.232,25.088,25.087c0,0.822-0.042,1.633-0.119,2.435H982.466z"/>
	<g>
		<g>
			
				<rect x="1037.781" y="972.876" transform="matrix(-1.836970e-16 1 -1 -1.836970e-16 2023.9454 -57.6557)" style="fill:#F7CC7F;" width="6.04" height="20.538"/>
			<path style="fill:#F47458;" d="M1073.84,1123.035V979.53c0-9.482-7.686-17.169-17.168-17.169h-29.882
				c-9.482,0-17.167,7.686-17.167,17.169v143.505c0,9.482,7.686,17.168,17.167,17.168h29.882
				C1066.154,1140.204,1073.84,1132.517,1073.84,1123.035z"/>
			<path style="fill:#B75742;" d="M1041.731,1140.204h17.23c8.218,0,14.879-3.628,14.879-8.103V970.464
				c0-4.474-4.673-8.103-12.891-8.103h-19.219V1140.204z"/>
			
				<rect x="1020.083" y="1045.074" transform="matrix(-1.836970e-16 1 -1 -1.836970e-16 2089.6694 8.0691)" style="fill:#1A1A1A;" width="41.434" height="7.59"/>
			<path style="fill:#355389;" d="M1135.009,1122.786v-104.421c0-9.62-7.798-17.417-17.417-17.417h-29.384
				c-9.619,0-17.418,7.797-17.418,17.417v104.421c0,9.62,7.799,17.418,17.418,17.418h29.384
				C1127.211,1140.204,1135.009,1132.405,1135.009,1122.786z"/>
			<path style="fill:#5184CE;" d="M1102.9,1140.204h17.23c8.218,0,14.879-2.841,14.879-6.344v-126.568
				c0-3.504-6.661-6.344-14.879-6.344h-17.23V1140.204z"/>
			
				<rect x="1099.604" y="1006.952" transform="matrix(-1.836970e-16 1 -1 -1.836970e-16 2119.1899 -84.7484)" style="fill:#F7CC7F;" width="4.73" height="20.538"/>
			
				<rect x="1085.748" y="1064.891" transform="matrix(-1.836970e-16 1 -1 -1.836970e-16 2170.6553 -33.2838)" style="fill:#1A1A1A;" width="32.443" height="7.59"/>
			<rect x="795.956" y="1142.492" style="fill:#13375B;" width="3.077" height="31.237"/>
			<rect x="1167.981" y="1142.492" style="fill:#13375B;" width="3.077" height="31.237"/>
			<path style="fill:#B75742;" d="M1036.808,1075.957H824.709c-10.404,0-18.838,8.434-18.838,18.839v26.541
				c0,10.404,8.434,18.839,18.838,18.839h212.099c10.404,0,18.838-8.434,18.838-18.839v-26.541
				C1055.646,1084.391,1047.212,1075.957,1036.808,1075.957z"/>
			<path style="fill:#91342A;" d="M1055.646,1108.066v-17.229c0-8.218-5.094-14.88-11.379-14.88H817.25
				c-6.284,0-11.379,6.662-11.379,14.88v17.229H1055.646z"/>
			<rect x="837.597" y="1098.728" style="fill:#F7CC7F;" width="8.483" height="20.538"/>
			<rect x="1015.438" y="1098.728" style="fill:#F7CC7F;" width="8.483" height="20.538"/>
			<rect x="898.273" y="1105.201" style="fill:#1A1A1A;" width="58.192" height="7.59"/>
			<path style="fill:#4E9B87;" d="M999.46,1011.739H862.058c-11.167,0-20.219,9.053-20.219,20.219v23.779
				c0,11.167,9.053,20.219,20.219,20.219H999.46c11.167,0,20.22-9.053,20.22-20.219v-23.779
				C1019.679,1020.791,1010.627,1011.739,999.46,1011.739z"/>
			<path style="fill:#3C8F7C;" d="M1019.679,1043.847v-17.229c0-8.217-3.627-14.88-8.102-14.88H849.94
				c-4.474,0-8.102,6.662-8.102,14.88v17.229H1019.679z"/>
			<rect x="859.601" y="1034.51" style="fill:#F7CC7F;" width="6.04" height="20.538"/>
			<g>
				<path style="fill:#FAE0B2;" d="M1157.468,1140.116l-147.131-0.087l-2.369-65.546h149.499c18.124,0,32.817,14.692,32.817,32.816
					l0,0C1190.285,1125.423,1175.592,1140.116,1157.468,1140.116z"/>
				<path style="fill:#F7CC7F;" d="M1041.731,1107.299c0,18.124-13.535,32.817-30.232,32.817s-30.233-14.694-30.233-32.817
					c0-18.124,13.536-32.816,30.233-32.816S1041.731,1089.175,1041.731,1107.299z"/>
				<g>
					<path style="fill:#F47458;" d="M1072.906,1143.186l-0.028-0.022c-1.357-1.049-1.621-2.977-0.63-4.378
						c9.958-14.073,12.73-29.05,8.237-44.563c-2.499-8.626-6.707-15.209-9.079-18.463c-0.96-1.319-0.753-3.151,0.466-4.235
						l0.035-0.032c1.403-1.247,3.572-1.015,4.68,0.501c2.671,3.654,7.19,10.76,9.966,20.192c3.598,12.221,4.79,30.653-9.088,50.298
						C1076.413,1143.969,1074.345,1144.3,1072.906,1143.186z"/>
				</g>
				<g>
					<path style="fill:#F47458;" d="M1126.684,1143.186l-0.029-0.022c-1.357-1.049-1.621-2.977-0.629-4.378
						c9.958-14.073,12.729-29.05,8.236-44.563c-2.498-8.626-6.707-15.209-9.078-18.463c-0.96-1.319-0.753-3.151,0.466-4.235
						l0.034-0.032c1.403-1.247,3.572-1.015,4.68,0.501c2.671,3.654,7.189,10.76,9.966,20.192
						c3.597,12.221,4.789,30.653-9.088,50.298C1130.192,1143.969,1128.123,1144.3,1126.684,1143.186z"/>
				</g>
				<g>
					<path style="fill:#F47458;" d="M1036.508,1101.435c-1.609-10.342-7.196-15.553-11.599-18.103
						c-6.547-3.792-14.968-4.326-22.525-1.426c-7.18,2.755-12.92,9.039-14.978,16.402c-1.831,6.547-0.474,13.204,3.819,18.746
						c7.21,9.308,18.27,7.84,23.668,5.506c4.896-2.117,8.57-7.13,9.361-12.772c0.641-4.565-1.424-8.973-5.388-11.505
						c-3.986-2.547-8.883-2.566-12.78-0.049c-2.836,1.832-5.658,5.449-2.992,12.293l2.167-0.844
						c-1.706-4.38-1.025-7.487,2.086-9.494c3.124-2.018,7.058-1.997,10.267,0.054c3.188,2.035,4.849,5.57,4.337,9.222
						c-0.681,4.856-3.814,9.158-7.981,10.961c-4.784,2.068-14.569,3.385-20.906-4.794c-4.911-6.34-4.569-12.579-3.418-16.697
						c1.835-6.567,7.162-12.398,13.571-14.857c6.907-2.651,14.581-2.176,20.526,1.267c5.685,3.292,9.304,8.98,10.466,16.448
						c1.514,9.731-0.308,17.488-5.418,23.059c-9.596,10.461-29.925,10.309-33.419,10.201c1.267,0.87,2.596,1.638,3.981,2.299
						c0.061,0,0.123,0,0.18,0c6.186,0,21.893-1.037,30.967-10.921C1036.116,1120.313,1038.137,1111.903,1036.508,1101.435z"/>
				</g>
			</g>
			<rect x="991.051" y="1034.51" style="fill:#F7CC7F;" width="6.04" height="20.538"/>
			<rect x="907.629" y="1040.983" style="fill:#1A1A1A;" width="41.432" height="7.59"/>
			<g>
				
					<rect x="785.506" y="1074.715" transform="matrix(0.4666 -0.8845 0.8845 0.4666 -492.5648 1334.9772)" width="149.925" height="2.26"/>
			</g>
			<g>
				
					<rect x="1006.6" y="999.669" transform="matrix(0.8845 -0.4666 0.4666 0.8845 -385.8893 594.5598)" width="2.26" height="153.778"/>
			</g>
			<g>
				
					<rect x="1147.473" y="993.794" transform="matrix(0.9261 -0.3774 0.3774 0.9261 -319.1817 512.6526)" width="2.26" height="154.049"/>
			</g>
			<g>
				
					<rect x="1080.766" y="955.997" transform="matrix(0.943 -0.3327 0.3327 0.943 -288.32 419.9049)" width="2.261" height="191.609"/>
			</g>
			<rect x="782.262" y="1140.027" style="fill:#13375B;" width="403.121" height="4.241"/>
		</g>
		<path style="fill:#183658;" d="M498.944,1591.26c0,0,307.604,51.047,311.293,48.834c3.688-2.213,43.522-174.088,43.522-174.088
			s-254.368-45.735-258.487-45.735c-4.12,0-59.445,44.26-60.183,47.209C534.352,1470.432,498.944,1591.26,498.944,1591.26z"/>
		<path style="fill:#183658;" d="M1437.249,1634.93c7.376,0.737,379.895-7.244,379.895-7.244l-28.031-85.701
			c0,0-51.636-78.086-78.929-76.664c-27.294,1.422-189.614-24.897-217.628-5.468c-28.014,19.43-53.095,3.939-66.372,50.412
			c-13.278,46.472-23.635,51.676-13.293,79.687C1423.233,1617.963,1437.249,1634.93,1437.249,1634.93z"/>
		<g>
			<ellipse style="fill:#1A1A1A;" cx="654.269" cy="1621.856" rx="126.791" ry="126.833"/>
			<ellipse style="fill:#9E9DA2;" cx="654.269" cy="1621.856" rx="88.217" ry="88.247"/>
			<ellipse style="fill:#D8D9DD;" cx="654.269" cy="1621.856" rx="58.997" ry="59.017"/>
		</g>
		<g>
			<ellipse style="fill:#1A1A1A;" cx="1630.471" cy="1621.856" rx="126.792" ry="126.833"/>
			<ellipse style="fill:#9E9DA2;" cx="1630.471" cy="1621.856" rx="88.218" ry="88.247"/>
			<path style="fill:#D8D9DD;" d="M1571.474,1621.856c0,32.594,26.414,59.017,58.997,59.017c32.585,0,58.999-26.423,58.999-59.017
				c0-32.594-26.414-59.017-58.999-59.017C1597.887,1562.839,1571.474,1589.262,1571.474,1621.856z"/>
		</g>
		<path style="fill:#F7CC7F;" d="M1921.564,1501.149c-10.72-70.685-45.37-85.532-147.875-106.032
			c-113.108-22.622-256.707-96.388-256.707-96.388s-244.902-119.993-304.899-133.762c-59.996-13.769-207.528-9.835-331.455-8.852
			c-123.927,0.984-196.709,35.408-259.657,84.585c-62.947,49.177-172.12,86.552-172.12,86.552l-19.833,3.542
			c-20.395,3.642-35.246,21.38-35.246,42.096v175.404c0,19.861,13.377,37.231,32.58,42.303l71.676,18.932l0,0
			c5.838,1.007,11.266-3.143,11.909-9.033c7.85-71.758,69.882-126.293,143.854-126.204c78.656,0.094,143.161,64.725,143.112,143.382
			c-0.005,8.938-0.834,17.682-2.408,26.166c-1.626,8.758,5.102,16.834,14.011,16.834h659.654c12.818,0,22.776-11.263,21.077-23.968
			c-0.818-6.114-1.25-12.349-1.269-18.684c-0.235-77.691,62.592-142.098,140.266-143.699c80.52-1.658,146.314,63.117,146.314,143.26
			c0,5.305-0.291,10.543-0.854,15.699c-1.596,14.601,9.703,27.392,24.391,27.392h94.856c17.246,0,31.229-13.98,31.229-31.228
			v-91.877C1924.172,1525.382,1923.391,1513.198,1921.564,1501.149z"/>
		<path style="fill:#CF283C;" d="M397.952,1393.642h78.126c6.692,0,11.225,6.814,8.638,12.986l-8.776,20.941
			c-8.367,19.963-27.897,32.953-49.542,32.953h-28.446c-5.567,0-10.081-4.514-10.081-10.082v-46.718
			C387.871,1398.154,392.385,1393.642,397.952,1393.642z"/>
		<path style="fill:#EAFCFC;" d="M1797.294,1426.098c43.025,6.588,92.573,47.331,92.573,47.331
			c11.845,12.727,2.061,33.391-15.291,32.294l-83.888-5.301c-17.425-1.101-32.284-13.018-37.141-29.789l0,0
			C1745.387,1442.463,1752.329,1419.214,1797.294,1426.098z"/>
		<path style="fill:#EAB054;" d="M394.227,1554.824c-5.377-0.131-9.19,5.274-7.206,10.274c5.611,14.14,17.645,25.255,33.031,29.318
			l80.314,21.216c6.541,1.127,12.623-3.523,13.344-10.122c1.488-13.599,4.733-26.635,9.473-38.922
			c1.606-4.164-1.423-8.651-5.883-8.759L394.227,1554.824z"/>
		<path style="fill:#EAB054;" d="M1775.22,1587.88c-6.102-0.149-10.811,5.202-10.029,11.255c0.868,6.726,1.317,13.583,1.317,20.546
			c0,5.887-0.321,11.699-0.946,17.421c-1.772,16.201,10.766,30.394,27.064,30.394h105.254c19.137,0,34.65-15.514,34.65-34.65v-27.24
			c0-7.723-6.161-14.037-13.882-14.226L1775.22,1587.88z"/>
		<path style="opacity:0.5;fill:#FEB546;" d="M1517.162,1339.342c-1.397-0.768-140.834-77.266-233.303-120.096
			c-91.547-42.401-193.745-37.906-198.15-37.684c-11.743-0.27-256.245-5.573-331.415,17.855
			c-75.722,23.602-174.343,131.115-178.503,135.68l-1.15,1.259l26.521,124.443l2.841-0.159
			c77.124-4.357,136.167,16.173,170.722,59.355c26.121,32.644,29.347,67.12,29.377,67.464l0.254,2.961l278.077,7.147v0.02
			l3.211,0.062l3.428,0.089v-0.021l387.467,7.557l0.051-3.332c1.936-125.915,41.744-257.407,42.146-258.721l0.792-2.582
			L1517.162,1339.342z M810.36,1583.934c-1.337-9.337-7.202-38.885-30.229-67.805c-24.817-31.168-75.048-67.096-173.66-62.266
			l-24.623-115.54c11.415-12.269,104.708-110.838,174.421-132.568c69.748-21.738,296.29-18.19,326.164-17.619v402.791
			L810.36,1583.934z M1470.011,1598.509l-380.939-7.431v-402.999c17.924-0.517,109.421-1.054,191.995,37.191
			c85.662,39.676,211.823,108.367,230.551,118.605C1506.065,1362.861,1472.397,1482.471,1470.011,1598.509z"/>
		<path style="opacity:0.5;fill:#FEB546;" d="M387.021,1565.097c5.611,14.14,17.645,25.254,33.031,29.318l80.314,21.216
			c6.541,1.127,12.623-3.523,13.344-10.122c0.574-5.25,1.417-10.414,2.5-15.484L387.021,1565.097z"/>
		<path style="opacity:0.5;fill:#FEB546;" d="M1766.324,1627.136c-0.155,3.348-0.402,6.674-0.761,9.966
			c-1.772,16.2,10.766,30.394,27.064,30.394h105.254c19.137,0,34.65-15.514,34.65-34.65v-5.71H1766.324z"/>
		<path style="fill:#EAB054;" d="M1494.187,1627.136c-0.022-7.183,0.492-14.252,1.498-21.172
			c1.208-8.313-4.988-15.846-13.384-16.051l-686.107-16.745c-7.485-0.182-12.881,6.959-10.84,14.162
			c3.56,12.566,5.465,25.801,5.457,39.452c-0.006,9.047-0.839,17.901-2.425,26.491c-1.656,8.972,5.112,17.276,14.234,17.276h671.405
			c13.171,0,23.129-11.651,21.41-24.708C1494.631,1639.717,1494.206,1633.475,1494.187,1627.136z"/>
		<path style="opacity:0.5;fill:#FEB546;" d="M1494.187,1627.136c-0.001-0.119,0.005-0.235,0.005-0.354H790.811
			c-0.006,9.047-0.839,17.901-2.425,26.491c-1.656,8.972,5.112,17.276,14.234,17.276h671.405c13.171,0,23.129-11.651,21.41-24.708
			C1494.631,1639.717,1494.206,1633.475,1494.187,1627.136z"/>
		<path style="fill:#EAFCFC;" d="M656.944,1351.106l379.176,3.583c0,0,23.207-0.624,26.366-22.463
			c3.159-21.838,2.892-115.373,2.892-115.373s-2.752-18.779-20.739-19.02c-10.93-0.147-102.54-6.694-191.641,4.16
			c-72.683,8.853-139.923,42.051-190.898,93.044l-26.916,26.924C635.183,1321.96,617.031,1350.729,656.944,1351.106z"/>
		<path style="fill:#EAFCFC;" d="M1107.584,1228.718v98.067c0,12.742,9.774,23.207,22.137,23.705l297.945,11.981
			c6.841,0.275,13.54-2.816,17.46-8.594c5.348-7.882,5.966-20.85-20.731-38.234c-46.43-30.234-164.551-95.623-208.249-101.951
			c-27.815-4.027-64.205-5.777-86.985-6.516C1117.351,1206.793,1107.584,1216.549,1107.584,1228.718z"/>
		<path style="fill:#B75742;" d="M713.123,1305.358c0,0,247.068-28.137,252.364-23.261c5.297,4.876,39.63,85.224,45.864,107.193
			l-291.004-2.75l-20.492-30.903L713.123,1305.358z"/>
		<path style="fill:#263D60;" d="M1236.958,1327.444c0,0,22.737,26.905,29.191,55.948l-7.16,11.625l-14.354-15.21L1236.958,1327.444
			z"/>
		<path style="fill:#1A1A1A;" d="M1261.236,1256.864c-4.354-28.404-30.035-48.828-56.892-35.045
			c-6.041,3.099-14.218,9.39-18.391,14.748c-11.278,14.486-14.163,32.377-25.813,46.442c4.279,3.248,9.455,6.654,15.618,9.927
			l7.255-9.68l-2.498,12.08c18.031,8.634,43.495,15.757,78.323,15.555C1263.215,1291.158,1263.558,1272.014,1261.236,1256.864z"/>
		<path style="fill:#355389;" d="M1200.984,1319.354c0,0-25.835-1.644-36.057,9.482c-10.221,11.126,22.674,99.134,24.532,113.293
			c1.859,14.16-15.248,42.393-15.248,42.393s71.104,33.271,88.449,21.808c0,0-2.781-113.478-4.639-123.593
			c-1.858-10.115-17.346-51.246-21.063-55.292C1233.241,1323.398,1200.984,1319.354,1200.984,1319.354z"/>
		<path style="fill:#F7A491;" d="M1209.584,1284.878c0,0-0.133,0.76-0.373,2.052c-1.152,6.202-5.588,26.781-8.585,32.438
			c-3.621,6.835,12.398,28.641,27.816,25.979c4.59-0.793-3.88-20.034-3.471-22.072c0.778-3.902,1.835-9.224,2.916-14.682
			c0.609-3.079,1.228-6.201,1.808-9.135c1.649-8.338,2.994-15.157,2.994-15.157L1209.584,1284.878z"/>
		<path style="fill:#B75742;" d="M714.954,1310.103c-0.25-1.698-0.896-3.288-1.831-4.745l-36.725,36.736
			c0,0-27.618,43.769,33.107,44.342l16.705,0.157L714.954,1310.103z"/>
		<path style="opacity:0.3;fill:#F47458;" d="M1209.211,1286.93c0.24-1.292,0.373-2.052,0.373-2.052l23.105-0.576
			c0,0-1.345,6.82-2.994,15.157c-0.577,2.918-1.192,6.02-1.798,9.083c-3.566-0.525-7.293-2.257-11.031-5.523
			c-4.074-3.562-6.744-7.841-8.356-12.412C1208.795,1289.149,1209.032,1287.892,1209.211,1286.93z"/>
		<path style="fill:#F7A491;" d="M1225.135,1232.432c0,0-10.889-1.257-17.716,7.56c-6.825,8.817-14.183,36.082,2.774,50.907
			s33.712-1.956,36.195-19.746C1248.873,1253.359,1249.838,1231.79,1225.135,1232.432z"/>
		<path style="fill:#F7A491;" d="M1251.405,1270.889c-2.024,3.928-5.422,6.105-7.589,4.86c-2.167-1.246-2.282-5.441-0.259-9.37
			c2.024-3.93,5.421-6.106,7.589-4.86C1253.313,1262.764,1253.429,1266.959,1251.405,1270.889z"/>
		<path style="fill:#1A1A1A;" d="M1226.353,1229.517c0,0-14.548,25.928-24.957,27.126c-10.408,1.198-11.775,14.975-11.775,14.975
			s3.721-31.747,14.025-37.869C1213.951,1227.627,1226.353,1229.517,1226.353,1229.517z"/>
		<path style="fill:#F7A491;" d="M1204.125,1263.159c0.847,4.604-0.855,8.827-3.802,9.431c-2.947,0.605-6.021-2.639-6.868-7.242
			c-0.846-4.605,0.856-8.827,3.802-9.432C1200.205,1255.311,1203.28,1258.554,1204.125,1263.159z"/>
		<path style="fill:#F48C7F;" d="M1167.524,1445.254c-0.056-0.243,9.732-41.835,13.688-51.032
			c3.955-9.197,19.331-51.911,19.331-51.911l-19.902-4.35c0,0-12.834,33.426-18.686,48.539c-5.852,15.111-3.35,42.974-3.612,50.837
			c-0.004,0.114-0.859,6.65-0.864,6.761h0.001c-0.2,0.869-0.384,1.596-0.471,1.736c-0.237,0.385-0.919,3.022-0.95,3.249
			c-0.031,0.227-0.615,1.12-0.852,1.504c-0.238,0.385-0.778,5.727-0.895,6.59c-0.118,0.864,0.265,2.813,0.265,2.813l-0.209,3.582
			c-0.153,2.63,2.57,1.934,2.57,1.934c-0.064,1.241,0.368,1.89,1.064,2.123c0.697,0.234,1.522,0.033,1.654,0.086
			c0.131,0.053,0.183,0.441,0.183,0.441c-0.073,0.789,0.817,1.395,1.391,1.508c0.575,0.114,1.597-0.268,1.887-0.61
			c0.289-0.342,0.49-0.292,0.49-0.292c0.58,0.496,2.803,0.473,3.317-0.243c0.513-0.717,0.98-4.495,1.211-4.833
			c0.231-0.34,0.727-0.92,0.801-1.465c0.074-0.546,1.895-4.416,2-5.189c0.105-0.773-1.021-3.379-1.272-4.941
			c-0.25-1.561-1.771-3.989-2.138-4.687c-0.144-0.274-0.104-1.165-0.003-2.151L1167.524,1445.254z"/>
		<path style="fill:#FFFFFF;" d="M1233.253,1279.767l-16.715-0.865c0,0,0.056,6.373,7.397,6.966
			C1232.885,1286.59,1233.253,1279.767,1233.253,1279.767z"/>
		<g>
			<path style="fill:#F7A491;" d="M1141.725,1292.536l-6.05,40.012c0,0,22.094,47.64,35.284,43.508
				c11.067-3.467,4.259-45.62,4.259-45.62s-6.033-22.638-4.224-33.967C1172.802,1285.142,1141.725,1292.536,1141.725,1292.536z"/>
			<path style="fill:#F47458;" d="M1170.993,1296.47c1.809-11.328-29.269-3.934-29.269-3.934l-0.501,3.318
				c0.909,2.22,2.02,4.12,3.37,5.577c6.942,7.496,17.792,11.998,27.174,12.339
				C1170.829,1307.662,1170.252,1301.116,1170.993,1296.47z"/>
			<g>
				<path style="fill:#F7A491;" d="M1136.625,1235.931c-0.878-0.32-7.04,45.571,4.654,58.198
					c11.694,12.625,34.478,16.759,42.651,6.814c9.04-11,8.586-60.321-9.596-73.31
					C1156.152,1214.644,1136.625,1235.931,1136.625,1235.931z"/>
				<path style="fill:#13375B;" d="M1167.412,1203.084c-14.053,2.875-23.156,11.493-26.5,15.165
					c-6.381,0.756-15.054,4.294-24.01,19.174c-11.012,18.294-2.879,38.564,9.939,48.508c12.819,9.945,12.641,21.432,12.641,21.432
					l2.026-5.942c1.495-4.501,2.106-9.273,1.605-13.995c-0.3-2.833-0.904-5.896-2.074-8.414c-3.083-6.642,6.624-11.054,9.345-16.58
					c2.096-4.255,2.197-13.988,5.499-21.022l3.943-5.369c0,0,9.096-7.102,17.996-5.098
					C1186.724,1232.95,1185.444,1199.395,1167.412,1203.084z"/>
				<path style="fill:#F7A491;" d="M1149.787,1270.601c0.093,5.599-2.443,10.182-5.665,10.238c-3.222,0.054-5.909-4.44-6.002-10.038
					c-0.092-5.599,2.444-10.182,5.665-10.238C1147.008,1260.507,1149.695,1265.001,1149.787,1270.601z"/>
			</g>
			<path style="fill:#FFFFFF;" d="M1168.778,1283.537l17.627-0.916c0,0-0.06,6.739-7.799,7.367
				C1169.168,1290.753,1168.778,1283.537,1168.778,1283.537z"/>
			<path style="fill:#3C8F7C;" d="M1130.678,1330.947L1130.678,1330.947c1.616-3.022,4.633-5.047,8.047-5.353
				c14.812-1.327,55.515-1.354,76.29,34.619c3.276,5.671,5.634,11.826,7.322,18.154l4.368,18.018l-107.108-3.483l0.182-11.896
				C1118.693,1363.632,1122.467,1346.297,1130.678,1330.947z"/>
		</g>
		<path style="fill:#1A1A1A;" d="M1385.101,1402.961l15.554-63.153c1.041-4.231-1.543-8.504-5.773-9.547
			c-4.231-1.041-8.504,1.543-9.545,5.773l-16.303,66.197L1385.101,1402.961z"/>
		<path style="fill:#F7A491;" d="M1344.917,1401.14c4.401-2.75,7.97-5.012,10.375-6.467c0.182-0.111,11.39-5.488,11.571-5.593
			v-0.001c1.576-0.577,2.916-1.034,3.227-1.042c0.851-0.02,5.721-1.657,6.113-1.842c0.39-0.184,2.401-0.18,3.253-0.2
			c0.851-0.021,9.845-4.664,11.331-5.367c1.485-0.703,4.17-3.315,4.17-3.315l5.872-3.356c4.313-2.464,0.408-6.056,0.408-6.056
			c2.027-1.175,2.606-2.526,2.257-3.869s-1.516-2.442-1.567-2.703c-0.053-0.263,0.509-0.744,0.509-0.744
			c1.32-0.696,1.362-2.727,0.949-3.751c-0.413-1.025-2.07-2.25-2.91-2.356c-0.839-0.104-0.967-0.476-0.967-0.476
			c0.185-1.427-2.141-4.921-3.803-4.996c-1.661-0.074-8.11,3.076-8.883,3.06c-0.773-0.017-2.201-0.203-3.138,0.242
			c-0.938,0.444-8.93,1.549-10.259,2.177c-1.328,0.629-4.284,5.093-6.493,7.096c-2.208,2.003-4.477,6.907-5.201,8.207
			c-0.283,0.509-1.734,1.364-3.393,2.219l-0.001-0.001c-0.26,0.272-49.095,17.915-78.001,26.538L1344.917,1401.14z"/>
		<path style="fill:#50BFA5;" d="M1192.666,1395.017c-3.025-18.169-6.755-37.265-10.761-46.084
			c-8.783-19.333-38.415-30.846-52.946-18.829c-7.756,6.412-4.407,36.943,2.195,63.294L1192.666,1395.017z"/>
		<path style="fill:#3C8F7C;" d="M762.204,1289.833c0,0-36.29-0.896-48.617,7.261c-12.326,8.155-10.821,89.315-10.821,89.315
			l11.97,2.274c0,0,4.341,55.845,13.615,58.758c9.273,2.914,70.216-15.784,82.88-31.501
			c12.663-15.716-26.816-131.498-26.816-131.498L762.204,1289.833z"/>
		<g>
			<path style="fill:#F7A491;" d="M826.721,1225.467c3.16-9.806,5.278-39.422,5.973-49.481c-0.49-0.724-3.134-5.045-2.852-13.474
				c0.2-5.955-3.964-15.815-0.145-15.149c3.819,0.667,4.018,11.007,6.31,9.227c2.292-1.78,3.339-23.421,6.8-22.817
				c3.461,0.604,1.112,20.987,3.163,19.394c2.051-1.592,2.14-20.389,7.033-19.535c4.894,0.854-2.159,22.106,0.466,22.565
				s6.722-13.051,10.66-12.364c3.938,0.687-6.475,18.19-5.268,17.253c1.206-0.937,9.594-8.085,10.989-6.486
				c1.577,1.809-17.844,22.272-17.904,27.652l0,0c1.617,13.643,4.836,38.349,0.438,53.876
				c-5.381,18.997-19.177,61.216-19.177,61.216l-29.405-6.989C803.802,1290.354,822.974,1237.096,826.721,1225.467z"/>
			<path style="fill:#F48C7F;" d="M839.237,1160.592c1.445,0.651,2.647,1.65,3.696,2.792c0.114,0.23,3.782,3.692,2.847,9.322
				C845.133,1169.26,844.402,1165.439,839.237,1160.592z"/>
		</g>
		<path style="fill:#F7A491;" d="M651.214,1305.728c0,0,0.752-4.732-3.183-12.038c-2.524-4.686-3.282-14.235-5.923-12.18
			c-2.64,2.055,1.327,10.408-1.125,9.897c-2.453-0.512-11.869-17.413-14.261-15.553c-2.393,1.862,7.512,17.239,5.318,16.781
			c-2.194-0.458-9.749-15.465-13.132-12.833c-3.383,2.632,10.447,16.832,8.633,18.244c-1.815,1.412-10.313-7.768-13.035-5.649
			c-2.723,2.118,12.17,11.977,10.88,11.709c-1.291-0.27-10.519-2.649-10.944-0.814c-0.48,2.075,18.794,8.151,20.983,12.434
			c2.189,4.282,35.328,47.01,44.795,47.031c9.466,0.021,51.982-28.753,55.068-38.108c3.085-9.357-0.762-19.279-6.958-20.571
			c-6.195-1.292-45.834,27.244-47.779,26.838C678.605,1330.511,651.214,1305.728,651.214,1305.728z"/>
		<path style="fill:#F48C7F;" d="M641.367,1295.368c-0.935,1.279-1.486,2.743-1.835,4.254c0.014,0.256-1.464,5.078,2.132,9.512
			C640.524,1305.818,639.272,1302.134,641.367,1295.368z"/>
		<path style="fill:#B75742;" d="M740.777,1364.714c0,0,38.166,30.352,42.388,36.545c3.155,4.627-7.334,56.826-7.334,56.826
			s-15.092,0.473-22.002-4.892c0,0,4.129-36.077,2.314-37.486c-1.815-1.41-43.697-20.036-43.697-20.036l2.649-21.402
			L740.777,1364.714z"/>
		<path style="fill:#9BC1F9;" d="M814.011,1255.499c0,0,6.605,1.23,29.185,25.883l-26.248,53.395l-24.267-44.388L814.011,1255.499z"
			/>
		<path style="fill:#9BC1F9;" d="M771.43,1293.146c0,0,17.245-3.852,23.29-6.81c6.045-2.96,61.952,128.762,47.856,133.414
			c-29.444,9.713-105.882,35.387-105.882,35.387s-2.202-7.635,0.573-21.526c4.806-24.058,3.217-77.754,2.207-87.14
			c-0.593-5.517-33.208,10.445-33.208,10.445l-12.85-41.625c0,0,37.227-12.684,49.723-16.693
			C746.622,1297.48,771.43,1293.146,771.43,1293.146z"/>
		<g>
			<path style="fill:#3C8F7C;" d="M835.218,1374.699c-6.98-21.73-53.212-84.217-53.617-84.81l7.552-5.153
				c1.685,2.47,39.359,55.449,46.742,78.435L835.218,1374.699z"/>
		</g>
		<g>
			<path style="fill:#3C8F7C;" d="M734.949,1415.03l-4.792-6.073c0.323-0.255,32.5-26.028,33.369-54.588
				c0.877-28.859-22.382-56.579-22.616-56.855l5.89-5.016c1.039,1.22,25.428,30.229,24.459,62.105
				C770.281,1386.789,736.392,1413.893,734.949,1415.03z"/>
		</g>
		<g>
			<g>
				<path style="fill:#1A1A1A;" d="M763.167,1205.071c0,0,13.65-10.14,26.584,6.316c10.315,13.125,8.954,8.996,14.05,15.525
					c5.095,6.529,12.787,7.09,13.956,17.947c1.168,10.856-3.716,13.091-3.716,13.091s5.492,7.951,1.36,17.18
					c-4.132,9.231-15.96,18.07-26.661,18c0,0-14.942,10.415-31.307,8.017c-16.365-2.398-10.817-2.995-17.33-2.294
					c-6.513,0.7-25.086-6.331-23.592-19.67c0,0-12.103-11.594-2.811-23.126c9.292-11.533,14.325-19.572,18.851-34.214
					S755.566,1202.471,763.167,1205.071z"/>
			</g>
		</g>
		<path style="fill:#F7A491;" d="M781.438,1280.018c0,0,1.488,19.276,3.486,20.885c1.999,1.611,4.84,4.331,2.68,9.201
			c-2.16,4.869-13.995,3.185-19.645,1.138c-5.423-1.964-9.252-6.291-9.252-6.291l-0.587-30.721L781.438,1280.018z"/>
		<path style="fill:#F48C7F;" d="M774.635,1288.804c-3.839-0.897-10.572-2.701-16.434-10.272l-0.082-4.302l23.319,5.789
			c0,0,0.363,4.703,0.971,9.656C779.252,1289.883,776.466,1289.232,774.635,1288.804z"/>
		<path style="fill:#F7A491;" d="M748.752,1257.384c0,0-1.761-11.237-8.462-8.297c-6.703,2.94,0.42,19.419,6.111,18.24
			C752.092,1266.149,748.752,1257.384,748.752,1257.384z"/>
		<path style="fill:#F7A491;" d="M769.664,1213.684c0,0,10.83-1.41,17.287,6.436c6.457,7.848,15.085,31.324,7.708,48.956
			c-7.376,17.634-19.519,14.791-24.525,13.622c-5.007-1.171-14.939-3.883-21.438-18.926
			C742.197,1248.732,741.932,1213.374,769.664,1213.684z"/>
		<g>
			<polygon style="fill:#F7A491;" points="991.045,1393.358 1010.995,1488.657 976.571,1485.321 960.002,1398.157 			"/>
			<path style="fill:#5184CE;" d="M996.952,1396.156l-36.95,2c0,0-2.754-25.51-3.385-37.716c-0.765-14.806-0.49-33.942,1.32-33.625
				c5.078,0.893,11.979,3.314,16.289,8.635C989.139,1353.863,996.952,1396.156,996.952,1396.156z"/>
			<path style="fill:#EAFCFC;" d="M972.658,1357.103c0.887,4.481,24.294,129.024,24.294,129.024
				c-55.405,30.381-97.697,4.458-97.697,4.458s2.108-83.725-0.727-95.34c-1.876-7.685-8.691-58.292-3.736-59.996
				c6.358-2.187,15.968-5.406,23.991-6.66c6.848-1.07,33.572-2.867,38.44-1.506C957.223,1327.083,968.928,1338.262,972.658,1357.103
				z"/>
			<path style="fill:#13375B;" d="M952.801,1238.276c0,0,22.413-0.34,20.558,18.219c0,0,16.673,6.484,5.559,21.508
				c0,0,11.857,16.158-8.784,31.674c0,0-5.481,21.703-28.851,11.327c0,0-6.912,5.156-16.475-1.743
				c-9.562-6.9-10.809-10.986-10.809-10.986s-21.146-4.009-18.241-23.458c0,0-11.105-9.472,5.669-21.37
				c0,0-0.306-26.677,22.361-23.083C923.787,1240.364,937.029,1220.003,952.801,1238.276z"/>
			<path style="fill:#F7A491;" d="M917.698,1281.962c-0.608,4.733-3.693,8.237-6.892,7.828c-3.2-0.411-5.301-4.58-4.693-9.313
				c0.607-4.733,3.693-8.237,6.892-7.828C916.204,1273.06,918.305,1277.229,917.698,1281.962z"/>
			<path style="fill:#F7A491;" d="M970.309,1296.421c-1.965,4.349-5.941,6.797-8.88,5.469c-2.939-1.329-3.728-5.93-1.763-10.28
				c1.966-4.347,5.942-6.796,8.88-5.468C971.485,1287.472,972.274,1292.073,970.309,1296.421z"/>
			<path style="fill:#F7A491;" d="M943.308,1310.856c-0.025,0.337,1.875,12.526,2.885,18.971c0.377,2.405-0.998,4.732-3.281,5.577
				c-6.101,2.257-17.984,5.159-25.464-2.704c-0.682-0.716-1.004-1.703-0.897-2.686l3.101-28.528L943.308,1310.856z"/>
			<path style="fill:#F48C7F;" d="M945.149,1323.138c-6.477,2.685-25.197,0.357-26.608-11.43l1.111-10.222l23.656,9.37
				C943.295,1311.018,944.578,1319.418,945.149,1323.138z"/>
			<path style="fill:#F7A491;" d="M949.359,1252.748c0,0-9.861-2.137-19.281,3.713c-9.42,5.85-24.709,28.854-11.927,48.847
				c12.782,19.995,34.496,10.205,42.141-5.632C967.936,1283.838,971.188,1260.265,949.359,1252.748z"/>
			<path style="fill:#FFFFFF;" d="M943.258,1302.226l-13.122-0.753c0,0,0.016,5,5.777,5.498
				C942.937,1307.579,943.258,1302.226,943.258,1302.226z"/>
			<path style="fill:#13375B;" d="M966.196,1263.962c0,0-9.555-5.116-16.674-4.445c-7.118,0.673-30.312,17.537-33.687,14.713
				c-3.374-2.822,0.977-17.739,3.667-19.9c2.69-2.162,13.44-8.673,14.361-8.794c0.922-0.12,10.671,0.059,12.344,0.486
				c1.671,0.428,13.734,6.187,13.734,6.187L966.196,1263.962z"/>
			<path style="fill:#F7A491;" d="M827.359,1497.425c0.202-0.571,0.696-0.597,1.199-0.629c4.892-0.304,9.775-0.677,14.607-1.555
				c0.806-0.147,1.598-0.354,2.333-0.675c1.333-0.581,2.668-0.61,4.043-0.276c0.745,0.181,1.496,0.196,2.258,0.169
				c2.462-0.089,9.409-2.7,12.996-3.442c0.82-0.171,1.454-0.814,1.634-1.631c3.108-14.149,9.73-45.882,10.391-56.267
				c0.846-13.284,8.114-73.279,8.114-73.279l24.683,6.053c0,0-8.685,44.391-10.797,65.85c-1.631,16.57-17.023,52.106-21.875,62.338
				c-2.291,7.575-7.951,7.961-9.262,8.163c-0.75,0.115-1.43,0.507-1.907,1.098c-0.86,1.069-1.854,2.007-3.002,2.783
				c-0.851,0.575-1.496,1.31-2.042,2.163c-0.992,1.55-1.871,3.165-2.741,4.785c-0.577,1.074-1.205,1.428-2.118,1.208
				c-0.98-0.235-1.465-0.938-1.484-2.122c-0.027-1.748,0.481-3.348,1.311-4.865c0.779-1.423,0.692-2.233-0.305-3.488
				c-0.573-0.721-1.162-1.419-1.903-1.985c-0.753-0.573-1.539-1.003-2.53-0.833c-1.745,0.494-3.508,0.907-5.305,1.163l-1.471,0.349
				c-0.052,0.009-0.802,0.197-0.802,0.197c-0.124,0.036-2.719,0.403-3.609,0.432c-0.717,0.024-1.874,0.107-2.86,0.186
				c-0.891,0.071-2.794-0.336-2.859-0.336c-0.87,0.008-1.648-0.281-2.314-0.844c-0.273-0.23-0.536-0.489-0.415-0.899
				c0.113-0.375,0.4-0.543,0.776-0.622c0.585-0.124,3.611-0.591,3.574-0.718c-0.903,0.029-3.73,0.05-4.633,0.056
				c-1.216,0.005-2.284-0.398-3.151-1.27C827.55,1498.337,827.156,1497.997,827.359,1497.425z"/>
			<path style="fill:#5184CE;" d="M868.46,1395.947l35.757,17.286c0,0,5.614-26.263,9.805-42.494
				c3.605-13.959-14.217-38.792-20.151-35.393C880.596,1342.95,868.46,1395.947,868.46,1395.947z"/>
		</g>
		<path style="fill:#F7CC7F;" d="M1110.125,1349.681l317.972,13.531c0,0-27.731,92.788-28.415,97.421
			c-0.683,4.633-105.028,61.571-131.248,60.888c-26.22-0.683-87.371-22.627-100.528-26.498
			c-13.158-3.873-47.337-30.534-45.287-46.94C1124.671,1431.677,1110.125,1349.681,1110.125,1349.681z"/>
		<path style="fill:#EAB054;" d="M1201.63,1396.752h-85.318c-2.106,0-3.814-1.708-3.814-3.815v-7.371
			c0-2.106,1.708-3.815,3.814-3.815h85.318c2.106,0,3.814,1.709,3.814,3.815v7.371
			C1205.444,1395.043,1203.737,1396.752,1201.63,1396.752z"/>
		<path style="opacity:0.6;fill:#C5DDF9;" d="M1443.933,1333.071l-336.349-28.791v22.505c0,12.742,9.774,23.207,22.137,23.705
			l297.945,11.981c6.841,0.275,13.54-2.816,17.46-8.594C1448.497,1348.907,1449.981,1341.914,1443.933,1333.071z"/>
		<polygon style="opacity:0.7;fill:#C5DDF9;" points="1107.584,1304.279 1107.584,1301.046 1442.727,1331.414 1443.933,1333.071 		
			"/>
		<polygon style="opacity:0.2;fill:#FFFFFF;" points="1185.031,1352.714 1215.685,1353.947 1240.85,1315.687 1211.063,1313.138 		
			"/>
		<polygon style="opacity:0.2;fill:#FFFFFF;" points="1239.42,1354.901 1263.914,1317.661 1252.589,1316.692 1227.764,1354.432 		
			"/>
		<path style="fill:#F7CC7F;" d="M651.934,1350.89l384.185,3.799l3.443,121.763c0,0-44.885,65.283-50.298,64.599
			c-5.414-0.683-120.16-19.14-130.462-18.457c-10.303,0.685-100.249-43.457-104.494-42.578c-4.245,0.88-32.272-14.161-32.272-14.161
			l-45.684-32.268l-45.287-46.615L651.934,1350.89z"/>
		<path style="fill:#EAB054;" d="M729.706,1389.252h-85.317c-2.107,0-3.815-1.707-3.815-3.815v-7.371
			c0-2.106,1.708-3.813,3.815-3.813h85.317c2.106,0,3.814,1.707,3.814,3.813v7.371
			C733.521,1387.545,731.813,1389.252,729.706,1389.252z"/>
		<path style="fill:#FFFFFF;" d="M786.545,1262.579l-13.296,2.558c0,0,1.278,4.991,7.157,4.036
			C787.575,1268.005,786.545,1262.579,786.545,1262.579z"/>
		<path style="fill:#1A1A1A;" d="M745.36,1249.839c0,0,30.01-13.753,32.984-35.288c2.973-21.534-24.667-0.966-24.667-0.966
			l-11.18,10.726L745.36,1249.839z"/>
		<path style="fill:#F7CC7F;" d="M1118.499,1346.961c0,0,5.583,3.851,12.649,3.586c0,0-9.396,2.869-9.672,2.643
			c-0.276-0.226-5.011-4.034-4.936-4.109C1116.615,1349.005,1118.499,1346.961,1118.499,1346.961z"/>
		<path style="fill:#F7CC7F;" d="M1147.469,1207.894l37.563,2.377c0,0-6.151-10.18-8.757-10.18c-2.606,0-19.793,0-19.793,0
			L1147.469,1207.894z"/>
	</g>
	<path style="fill:#183658;" d="M3255.266,1768.133H262.24c-6.274,0-11.361-5.087-11.361-11.361l0,0
		c0-6.274,5.087-11.361,11.361-11.361h2993.025c6.275,0,11.361,5.087,11.361,11.361l0,0
		C3266.627,1763.046,3261.541,1768.133,3255.266,1768.133z"/>
	<g>
		<g>
			<path style="fill:#13375B;" d="M2424.66,1098.656c15.498,4.145,18.077,63.882,18.077,63.882l49.122-5.633
				c0,0-8.954-62.291-34.898-88.322c-25.944-26.03-91.506-10.118-116.432,6.089c-24.926,16.206-14.112,36.85-14.112,36.85
				S2409.162,1094.511,2424.66,1098.656z"/>
			<path style="fill:#355389;" d="M2474.034,1148.39c2.569,56.734,18.471,61.76,18.786,62.547c0.332,0.062,13.032,9.827,27.087-3.09
				l-4.672-4.737c-2.01,2.051-5.072,3.896-7.998,4.722c-6.527,1.7-10.756-1.555-11.273-1.71c-0.345-0.275-3.682-2.293-5.35-5.047
				c-8.157-10.909-12.05-39.256-13.153-52.803L2474.034,1148.39z"/>
			<path style="fill:#184655;" d="M2308.906,1106.919c0,0,6.893,27.035,7.679,49.007c0.787,21.972,15.932,40.298,17.901,95.287
				c1.969,54.991,9.827,105.536,9.827,105.536s61.017,4.249,73.029-8.701c12.012-12.95,6.807-130.663-5.07-187.89
				c-11.877-57.228,40.346-72.832,13.212-91.578c-27.134-18.746-62.424-6.044-77.364-0.954
				C2333.179,1072.715,2308.471,1094.797,2308.906,1106.919z"/>
			<path style="fill:#F7CC7F;" d="M2409.658,1152.406c0,0,7.203,43.905,1.787,88.375c-5.416,44.47,3.206,132.204,3.206,132.204
				s45.454,31.735,58.81,6.538c2.509-4.734,8.506-60.932,9.046-84.428c0.573-24.955-2.861-112.123-4.017-140.37
				c-0.242-5.924-1.996-11.679-5.089-16.731c-9.933-16.222-32.731-52.128-40.658-53.367
				C2422.396,1083.007,2404.224,1105.379,2409.658,1152.406z"/>
			<path style="fill:#13375B;" d="M2479.686,1185.05c-6.394,6.231-47.022,45.309-67.415,48.129c0.238-2.487,0.446-4.964,0.624-7.422
				c15.947-2.557,51.877-35.668,66.442-49.787C2479.449,1178.864,2479.566,1181.9,2479.686,1185.05z"/>
			<path style="fill:#13375B;" d="M2409.769,1290.064c-0.044-2.439-0.076-4.874-0.094-7.292c12.322,5.279,55.679,1.909,72.869,0.001
				c0.023,2.542,0.031,4.885,0.025,6.992C2466.812,1291.519,2424.463,1296.154,2409.769,1290.064z"/>
			<path style="fill:#13375B;" d="M2478.453,1346.832c-0.252,2.3-0.508,4.55-0.764,6.725c-17.131,3.433-50.133-11.197-65.97-18.07
				c-0.165-2.596-0.327-5.274-0.484-8.019C2425.96,1333.864,2463.392,1349.667,2478.453,1346.832z"/>
			<path style="fill:#13375B;" d="M2479.449,1337.308c-7.614,3.194-54.998,23.522-65.818,24.214
				c-0.167-2.005-0.349-4.235-0.539-6.659c7.626-0.709,43.7-15.789,67.123-25.556
				C2479.971,1331.973,2479.715,1334.651,2479.449,1337.308z"/>
			<g>
				<path style="fill:#50BFA5;" d="M2433.112,1357.151h-15.208c-5.486,0-9.933-4.447-9.933-9.933v-89.185
					c0-5.486,4.447-9.933,9.933-9.933h15.208c5.486,0,9.932,4.447,9.932,9.932v89.185
					C2443.044,1352.704,2438.597,1357.151,2433.112,1357.151z"/>
				<rect x="2407.971" y="1280.567" style="fill:#13375B;" width="35.073" height="7.343"/>
			</g>
		</g>
		<g>
			<g>
				<g>
					<path style="fill:#F7A491;" d="M2436.043,1664.144c0,0,16.243,14.913,16.28,14.941c2.277,1.684,8.382,5.373,10.154,7.195
						c6.657,6.844-36.002,23.908-32.15,14.215c0.349-0.877,1.003-8.598-1.06-11.126c-3.179-3.895-8.898-9.444-8.898-9.444
						L2436.043,1664.144z"/>
					<path style="fill:#184655;" d="M2430.339,1700.355c0,0,9.162-4.883,13.321-7.933c4.159-3.05,4.684-12.169,8.423-13.506
						c4.116-1.472,21.409,16.215,21.409,16.215s-33.801,36.734-51.489,48.975c-3.81,2.637-8.428,1.796-10.06,1.825
						C2405.695,1746.043,2420.514,1719.495,2430.339,1700.355z"/>
					<path style="fill:#F7A491;" d="M2231.482,1693.063c0,0-5.044,24.418-5.05,24.469c-0.314,3.188-0.357,11.259-1.096,14.035
						c-2.776,10.431-43.895-21.244-32.299-23.089c1.05-0.167,6.266-2.263,8.06-5.481c3.12-5.599,6.081-16.084,6.081-16.084
						L2231.482,1693.063z"/>
					<path style="fill:#184655;" d="M2193.178,1708.41c0,0,10.01,6.1,15.359,8.387c5.349,2.288,15.135-4.062,18.585-1.194
						c3.798,3.157-2.386,31.124-2.386,31.124s-70.337-18.646-85.302-28.325C2133.504,1714.567,2169.002,1709.894,2193.178,1708.41z"
						/>
					<path style="fill:#355389;" d="M2269.336,1358.057l-43.586,174.233l-27.558,168.729l34.314,4.625
						c0,0,48.333-129.033,49.678-143.883c1.345-14.85,25.607-84.274,25.607-84.274L2269.336,1358.057z"/>
					<path style="fill:#13375B;" d="M2371.064,1337.887c0,0-3.263,167.057-0.573,182.583
						c2.691,15.526,75.715,147.979,75.715,147.979l-24.584,26.723c0,0-104.484-121.144-109.088-131.83
						c-7.219-16.754-42.857-205.626-42.857-205.626L2371.064,1337.887z"/>
					<path style="fill:#F8A492;" d="M2090.313,1069.428c3.524,7.048,3.974,10.503,4.868,11.802
						c1.058,1.536,24.017,11.312,24.017,11.312s67.486,29.253,71.184,30.707l75.419-0.558l11.838,37.129
						c0,0-82.118-1.563-86.416-2.391c-4.298-0.827-91.146-50.818-98.93-54.977c0,0-11.042-1.601-17.948-2.832
						c-6.906-1.231-11.838-3.472-13.358-4.778c-2.965-2.546-0.842-5.657-0.543-6.699c-2.133-4.465,1.241-5.91,1.332-6.075
						c0.205-0.369-0.847-1.324-0.462-3.515c0.333-1.896,2-2.229,2.583-3.229c-1.292-4.792,2.542-5.125,3.875-4.875
						c1.333,0.25,12.422,2.743,13.729,3.042c1.729,0.395,2.069,0.144,2.354-1.042c0.771-3.208-0.917-8.542-0.75-10.792
						c0.225-3.036,2.621-4.604,3.458-4.208C2087.313,1057.804,2087.438,1063.678,2090.313,1069.428z"/>
					<path style="fill:#B75742;" d="M2250.2,1162.538c-5.065-18.428-9.347-35.541-8.5-44.047c0,0,22.5-3.75,49.33-7.802
						c19.25-2.907,49.945,28.115,43.965,35.137C2321.619,1161.531,2250.2,1162.538,2250.2,1162.538z"/>
					<path style="fill:#F47458;" d="M2331.024,1106.706c0,0,18.512-1.698,25.912,15.852c7.401,17.55,14.801,101.927,11.437,142.428
						c-3.364,40.5,10.829,96.554,10.829,96.554c-64.531,33.401-110.396-2.727-110.396-2.727s-17.039-154.981-10.764-183.604
						c13.115-59.824,38.327-69.468,38.327-69.468L2331.024,1106.706z"/>
					<path style="fill:#F8A492;" d="M2382.293,1385.811c6.991-11.395,8.56-9.777,9.417-11.262
						c1.015-1.757-0.112-28.882-0.112-28.882s-2.803-79.971-3.102-84.283l-35.797-73.832l30.944-28.983
						c0,0,36.843,81.405,38.039,86.014c1.196,4.609-7.325,113.294-7.774,122.885c0,0,3.588,11.596,5.606,18.956
						c2.018,7.36,0.721,15.295,0.977,17.46c0.037,0.319,0.479,7.584-1.308,16.702c-1.54,7.858-3.588-0.279-3.588-0.279
						s0.304-15.056-0.86-14.863c-0.897,0.148-0.589,8.375-2.205,17.087c-0.415,2.24-0.833,4.449-1.233,6.476
						c-1.049,5.319-4.532,6.214-4.298,0.478c0.082-2.026,0.299-5.387,0.785-7.766c0.525-2.569,0.198-5.093,0.317-7.318
						c0.237-4.417,0.464-7.635,0.281-7.544c-0.238,0.119-0.795-0.785-1.308,1.58c-0.616,2.842-0.624,9.165-1.847,13.276
						c-0.693,2.33-1.853,7.29-1.853,7.29s-3.118,7.175-3.588,7.135c-2.542-0.223-1.756-5.723-0.411-8.769
						c-0.113-2.378,1.252-7.562,1.252-7.562s0.467-11.092-1.065-11.165c-0.652-0.032-1.734,6.743-3.812,13.228
						c-1.93,6.02-4.837,11.79-6.055,11.593c-2.065-0.335-0.617-7.246-0.617-7.246s1.268-4.788,1.57-6.41
						c0.354-1.902,0.99-7.673,0.99-7.673s1.303-20.189-0.155-20.132c-1.458,0.056-5.158,1.728-5.662,2.955
						c-0.504,1.226-0.28,3.959-0.785,5.186c-0.504,1.226-2.186,2.398-3.7,1.895c-1.513-0.502-1.289-7.36-1.289-7.36
						S2380.275,1389.101,2382.293,1385.811z"/>
					<path style="fill:#B75742;" d="M2398.886,1180.184l-40.565,31.465c0,0-17.912-17.079-26.908-35.968
						c-9.107-19.123,1.983-69.512,11.676-66.918C2364.77,1114.563,2398.886,1180.184,2398.886,1180.184z"/>
					<path style="fill:#F7A491;" d="M2323.278,1069.233l6.07,40.006c0,0-22.166,47.634-35.399,43.502
						c-11.103-3.466-4.272-45.614-4.272-45.614s6.052-22.635,4.237-33.961C2292.099,1061.84,2323.278,1069.233,2323.278,1069.233z"
						/>
					<path style="fill:#F47458;" d="M2293.914,1073.167c-1.815-11.327,29.364-3.934,29.364-3.934l0.503,3.318
						c-0.912,2.219-2.027,4.119-3.381,5.576c-6.965,7.495-17.85,11.997-27.263,12.337
						C2294.079,1084.357,2294.657,1077.811,2293.914,1073.167z"/>
					<g>
						<path style="fill:#F7A491;" d="M2328.394,1012.635c0.881-0.32,7.063,45.564-4.669,58.189
							c-11.732,12.625-34.591,16.757-42.79,6.814c-9.069-10.999-8.614-60.313,9.627-73.3
							C2308.803,991.35,2328.394,1012.635,2328.394,1012.635z"/>
						<path style="fill:#184655;" d="M2297.506,979.793c14.099,2.875,23.232,11.491,26.587,15.163
							c6.401,0.756,15.103,4.295,24.088,19.171c11.048,18.292,2.889,38.559-9.972,48.502c-12.861,9.944-12.682,21.43-12.682,21.43
							l-2.033-5.941c-1.5-4.501-2.113-9.273-1.611-13.993c0.301-2.832,0.907-5.896,2.08-8.413
							c3.094-6.641-6.644-11.053-9.374-16.577c-2.103-4.255-2.205-13.986-5.517-21.018l-3.956-5.368c0,0-9.126-7.102-18.055-5.098
							C2278.132,1009.654,2279.417,976.105,2297.506,979.793z"/>
						<path style="fill:#F7A491;" d="M2315.189,1047.3c-0.093,5.598,2.452,10.181,5.684,10.236
							c3.232,0.055,5.928-4.438,6.021-10.036c0.093-5.599-2.452-10.181-5.684-10.237
							C2317.977,1037.208,2315.282,1041.701,2315.189,1047.3z"/>
					</g>
				</g>
			</g>
		</g>
		<path style="fill:#184655;" d="M2307.872,1191.529c-0.846-34.857,1.316-82.765,34.562-96.358
			c11.878-4.984,26.385,0.619,37.387,4.713l0,0c-13.501-1.887-26.232,3.316-32.807,7.001c-27.364,13.835-27.153,53.472-26.162,84.34
			c2.494,77.616,61.973,69.395,61.973,69.395l1.386,5.167c0,0-22.344,7.334-50.847-6.731
			C2310.636,1247.84,2307.872,1191.529,2307.872,1191.529z"/>
	</g>
	<g>
		<g>
			<g>
				<path style="fill:#F0937F;" d="M2733.97,1217.928l-10.406,46.024c-21-8.236-54.239-13.275-66.578-18.587
					c-14.453-8.363-23.956-8.68-28.458-8.388c-2.422,0.158-12.518,1.365-12.518,1.365l1.171,3.311c0,0,6.624-0.245,7.594-0.15
					c2.408,0.236,1.167,0.816,1.167,0.816c-2.068,0.096-11.048,1.993-11.048,1.993s1.889,2.955,4.463,2.578
					c4.516-0.662,7.371,0.273,5.778,0.718c-1.161,0.324-2.834-0.307-5.545,0.084c-6.601,0.951-7.005,4.555-0.827,4.216
					c2.696-0.148,7.573,1.547,10.647,2.601c-1.009,0.73-2.207,1.227-2.795,1.443c-1.089,0.399-9.316,0.607-8.794,2.584
					c0.522,1.978,18.988,2.338,18.988,2.338l9.494-1.31l0.511,0.135l0.009,0.013c0,0,79.821,38.029,92.408,34.029
					c14.479-8.638,21.094-75.396,20.36-77.282L2733.97,1217.928z"/>
				<path style="fill:#B75742;" d="M2761.691,1173.642c0,0-22.933-17.823-35.046,70.797l41.42,11.551l15.802-33.303
					L2761.691,1173.642z"/>
			</g>
		</g>
		<g>
			<path style="fill:#184655;" d="M2735.506,1097.567c4.696-30.615,32.395-52.629,61.363-37.774
				c6.515,3.341,15.335,10.12,19.835,15.896c12.374,15.881,15.373,35.565,28.491,50.839c11.309,13.168,41.497,10.684,55.594,20.811
				c14.097,10.128,23.978,28.286,23.978,50.006c0,24.292-5.485,50.078-24.306,65.435c-18.821,15.357-45.571,19.184-68.974,12.677
				c-23.404-6.508-43.484-22.455-57.936-41.979s-24.672-40.928-31.874-64.128C2733.64,1143.456,2732.471,1117.354,2735.506,1097.567
				z"/>
			<path style="fill:#F7CC7F;" d="M2746.004,1186.009c15.103-33.654,65.525-37.442,97.577-19.183
				c9.526,5.427,11.224,5.027,17.202,11.005c15.672,15.672,30.782,173.91-9.25,186.222c-46.711,14.366-88.446,5.501-104.213-19.258
				C2736.761,1328.216,2722.764,1237.795,2746.004,1186.009z"/>
			<path style="fill:#F7A491;" d="M2743.427,1684.871c0,0-2.436,26.6-0.834,35.274c0.214,1.162,0.687,2.633,1.236,4.253
				c1.651,4.863-2.87,19.713-2.87,19.713l-60.614,0.224c-3.302,0.012-1.094-2.081,1.591-4.001
				c4.397-3.143,7.938-5.212,21.939-11.759c0.913-0.427,4.243-2.483,5.445-3.194c3.044-1.804,6.115-4.665,8.763-7.535
				c4.411-4.781,5.082-28.224,5.082-28.224L2743.427,1684.871z"/>
			<path style="fill:#355389;" d="M2709.328,1725.375c15.977,4.302,27.858,1.659,34.52-0.925c1.649,4.855,4.753,21.272,2.902,21.272
				c-15.201,0-28.065,2.877-71.617,2.191c-1.559-0.025-1.369-5.381-0.353-6.563
				C2677.589,1738.084,2708.125,1726.088,2709.328,1725.375z"/>
			<path style="fill:#184655;" d="M2819.449,1369.111c0,0-0.862,37.969-11.743,62.284c-10.598,23.681-61.32,82.089-74.802,116.179
				c4.168,19.229,15.623,46.255,14.794,67.567c-0.939,24.152,0.466,88.057,0.466,88.057l-27.22,0.863l-35.708-164.912
				l53.811-177.933l24.417-43.207L2819.449,1369.111z"/>
			<path style="fill:#F7A491;" d="M2935.739,1647.052c0,0,16.724,22.952,24.092,28.754c3.945,3.108,14.66,7.28,15.79,12.418
				c1.13,5.138-48.522,50.589-48.522,50.589c-2.628,2.327-2.334-0.894-1.537-4.313c1.305-5.595,2.68-9.735,9.266-24.788
				c0.429-0.982,1.646-4.962,2.105-6.373c1.165-3.577,1.609-8.017,1.71-12.168c0.167-6.915-15.751-26.107-15.751-26.107
				L2935.739,1647.052z"/>
			<path style="fill:#355389;" d="M2936.937,1703.33c15.778-7.777,23.412-18.228,26.917-24.966
				c4.725,2.719,17.434,8.519,16.317,10.139c-8.783,12.744-17.895,28.59-53.157,58.61c-1.262,1.075-6.437-5.119-6.455-6.777
				C2920.511,1735.756,2936.477,1704.745,2936.937,1703.33z"/>
			<path style="fill:#13375B;" d="M2817.529,1344.795c0,0,21.046,31.614,26.057,57.778c4.881,25.482-3.232,102.413,5.249,138.078
				c14.432,13.372,39.304,28.961,50.834,46.904c13.067,20.334,50.829,71.906,50.829,71.906l-21.815,16.302l-123.744-114.709
				l-50.096-153.035l-17.19-44.751L2817.529,1344.795z"/>
			<path style="fill:#F47458;" d="M2800.492,1164.922c0,0,27.865-1.771,38.889,10.22c11.024,11.991-24.455,106.851-26.459,122.113
				c-2.004,15.262,16.447,45.694,16.447,45.694s-76.69,35.86-95.399,23.505c0,0,2.999-122.313,5.003-133.215
				c2.004-10.902,18.708-55.236,22.717-59.597C2765.7,1169.282,2800.492,1164.922,2800.492,1164.922z"/>
			<path style="fill:#F7A491;" d="M2791.215,1127.762c0,0,0.145,0.82,0.403,2.213c1.242,6.686,6.027,28.865,9.259,34.963
				c3.906,7.369-13.372,30.87-30.002,28.002c-4.95-0.854,4.184-21.594,3.745-23.79c-0.84-4.205-1.98-9.942-3.146-15.825
				c-0.658-3.318-1.324-6.683-1.95-9.845c-1.778-8.987-3.229-16.337-3.229-16.337L2791.215,1127.762z"/>
			<path style="fill:#F47458;" d="M2791.619,1129.975c-0.259-1.394-0.403-2.213-0.403-2.213l-24.919-0.62
				c0,0,1.451,7.35,3.229,16.337c0.623,3.144,1.285,6.489,1.939,9.79c3.847-0.565,7.867-2.432,11.898-5.953
				c4.394-3.839,7.274-8.452,9.013-13.377C2792.068,1132.366,2791.811,1131.011,2791.619,1129.975z"/>
			<path style="fill:#F7A491;" d="M2772.296,1074.109c0,0,11.745-1.354,19.108,8.149c7.362,9.503,15.298,38.891-2.992,54.869
				c-18.289,15.978-36.36-2.108-39.04-21.284C2746.693,1096.667,2745.652,1073.417,2772.296,1074.109z"/>
			<path style="fill:#184655;" d="M2770.982,1070.967c0,0,15.692,27.947,26.917,29.238c11.225,1.292,12.7,16.142,12.7,16.142
				s-4.014-34.218-15.127-40.817C2784.359,1068.931,2770.982,1070.967,2770.982,1070.967z"/>
			<path style="fill:#F7A491;" d="M2794.955,1107.228c-0.913,4.963,0.923,9.514,4.102,10.166c3.178,0.652,6.494-2.844,7.406-7.807
				c0.913-4.963-0.923-9.514-4.101-10.166C2799.185,1098.77,2795.868,1102.265,2794.955,1107.228z"/>
			<g>
				<path style="fill:#F8D18B;" d="M2805.498,1157.61c-17.349,23.213-25.267,60.054-13.563,95.556
					c4.82,14.029,10.27,27.627,20.647,41.661c13.079,17.431,23.35,21.998,22.449,21.475l3.853-7.487
					c-0.063-0.049-5.136-2.739-11.431-9.128c-0.362-0.457-14.46-13.482-24.087-39.289c-22.584-57.374,9.089-93.808,9.623-95.17
					c0.22-0.298,0.435-1.286,0.582-1.464L2805.498,1157.61z"/>
			</g>
			<g>
				<path style="fill:#F8D18B;" d="M2735.866,1299.319c5.212-69.464,34.038-128.947,34.355-129.333l-7.851-0.636
					c-0.356,0.434-8.804,5.048-16.826,24.283c-6.623,15.88-14.095,40.825-14.212,72.694
					C2731.308,1272.93,2735.866,1299.319,2735.866,1299.319z"/>
			</g>
		</g>
		<polygon style="fill:#FFFFFF;" points="2710.898,1320.058 2608.565,1296.574 2608.565,1213.305 2710.898,1236.79 		"/>
		<path style="fill:#F8A492;" d="M2614.38,1248.712c9.378,1.382,5.467-2.146-0.67-5.517c4.021,1.344,4.737,0.466,4.631-0.675
			c-0.128-1.377-7.773-6.45-9.797-6.187c-1.875,0.244-1.765,6.71-1.177,8.596c0.089,1.117,0.232,2.39,0.199,3.763
			c-0.094,3.863-0.055,4.633,0.234,6.135c0.447,2.317,2.727,2.302,5.889,3.001c4.387,0.498,5.294-2.133-0.765-4.448
			c0.633,0.09,6.341,1.119,6.971-0.266C2620.498,1251.788,2618.513,1250.759,2614.38,1248.712z"/>
		<path style="fill:#F8A492;" d="M2799.614,1224.407l-2.716,50.766c-21-8.236-54.667-18.432-67.006-23.745
			c-14.453-8.363-23.956-8.68-28.458-8.388c-2.422,0.158-12.518,1.365-12.518,1.365s-10.421,6.582-9.775,7.126
			c1.877,1.583,10.947-3.815,10.947-3.815s6.623-0.245,7.594-0.15c2.408,0.236,1.167,0.816,1.167,0.816
			c-6.575,0.692-11.048,1.993-11.048,1.993s-12.339,4.638-11.861,5.366c0.686,1.042,1.847,0.953,6.473-0.068
			c2.826-0.624,7.62-2.138,10.194-2.516c4.516-0.662,7.542,0.542,6,0.625c-1.204,0.065-4.114,0.289-6.825,0.68
			c-6.601,0.951-14.171,3.001-13.279,3.904c1.195,1.209,10.289-0.241,13.563-0.5c2.696-0.148,10.333,2.208,10.252,2.706
			c-0.127,0.378-4.118,0.518-5.043,0.503c-1.16-0.019-7.399-0.472-7.398,0.833c0.002,1.459,19.481,4,19.481,4l9.853-0.281
			l0.511,0.135l0.009,0.013c0,0,75.169,45.633,92.356,38.937c14.479-8.638,21.146-80.304,20.412-82.19L2799.614,1224.407z"/>
		<path style="fill:#B75742;" d="M2840.315,1172.478c7.009,16.77-1.666,64.023-1.666,64.023s-37.435-5.347-45.219-10.212
			c0,0,10.501-45.042,11.245-47.813c3.367-12.544,12.328-15.246,18.365-16.408
			C2832.54,1160.241,2840.315,1172.478,2840.315,1172.478z"/>
	</g>
</g>
</svg>
